<?xml version="1.0" encoding="UTF-8" standalone="no"?>
<!-- Created with Inkscape (http://www.inkscape.org/) -->

<svg
   width="72"
   height="72"
   viewBox="0 0 72 72"
   version="1.1"
   id="svg1"
   xmlns="http://www.w3.org/2000/svg"
   xmlns:svg="http://www.w3.org/2000/svg">
  <defs
     id="defs1" />
  <g
     id="layer1">
    <path
       style="fill:#860626;fill-opacity:1;fill-rule:evenodd;stroke:none"
       d="m 5.8795134,32.53868 c -0.34022,0 -0.6804399,-0.151136 -0.9072532,-0.415626 -0.4158243,-0.528978 -0.3024177,-1.246877 0.1890111,-1.662503 1.2096708,-0.982389 3.8558258,-2.682677 7.8250587,-5.025296 0.567033,-0.340058 1.285275,-0.151137 1.625495,0.415626 0.302418,0.528978 0.151209,1.246878 -0.415824,1.586935 -3.818024,2.267051 -6.4263769,3.929555 -7.5604434,4.836375 -0.2268132,0.151137 -0.4914287,0.264489 -0.7560442,0.264489 z"
       id="path1-9" />
    <path
       style="fill:#860626;fill-opacity:1;fill-rule:evenodd;stroke:none"
       d="m 62.84745,70.322859 c -0.302417,0 -0.567033,-0.113352 -0.793846,-0.302273 L 39.977111,50.221676 c -0.264616,-0.226705 -0.378022,-0.528978 -0.378022,-0.869036 0,-0.340058 0.151208,-0.680115 0.415824,-0.869036 L 61.902395,30.460551 c 0.378022,-0.302274 0.907253,-0.340058 1.323077,-0.113353 2.003518,1.17131 2.72176,3.70285 2.72176,5.478706 v 28.980465 c 0,1.964778 -0.869451,3.853986 -2.343737,5.176433 -0.226814,0.226705 -0.491429,0.302273 -0.793847,0.302273 z M 42.547661,49.428208 62.771846,67.52683 c 0.567033,-0.793468 0.869451,-1.738072 0.869451,-2.682677 V 35.825904 c 0,-1.020173 -0.302418,-2.191482 -0.982858,-2.947166 z"
       id="path2-8" />
    <path
       style="fill:#860626;fill-opacity:1;fill-rule:evenodd;stroke:none"
       d="M 58.462393,71.985363 H 10.113361 c -1.5120882,0 -2.9485724,-0.415626 -4.1960454,-1.209094 C 5.6148979,70.549564 5.4258868,70.247291 5.3880846,69.869449 5.3502826,69.529392 5.5014912,69.15155 5.7661067,68.924845 L 27.804798,49.163719 c 0.415824,-0.415626 1.058462,-0.415626 1.512088,-0.03778 l 4.763079,3.929555 c 0.0756,0.03778 0.151209,0.07557 0.189011,0.151136 0.0756,-0.07557 0.113407,-0.113352 0.189011,-0.151136 l 5.556926,-4.571886 c 0.453626,-0.377842 1.096264,-0.340058 1.512088,0.03778 l 22.076494,19.761126 c 0.264615,0.226705 0.415824,0.528978 0.415824,0.869036 0,0.340057 -0.151209,0.642331 -0.378022,0.869036 -1.436484,1.246878 -3.250991,1.964777 -5.178904,1.964777 z M 8.639075,69.453823 c 0.4914288,0.151137 0.9828576,0.188921 1.474286,0.188921 h 48.349032 c 0.869451,0 1.738902,-0.188921 2.494947,-0.604547 L 40.733155,50.901791 35.970076,54.831346 c -0.151209,0.113353 -0.264616,0.226705 -0.378022,0.302273 -0.982858,0.831252 -1.625495,0.831252 -2.608353,0 -0.113407,-0.07557 -0.226813,-0.18892 -0.378022,-0.302273 L 28.636446,51.544122 8.6768772,69.453823 Z"
       id="path3-6" />
    <path
       style="fill:#860626;fill-opacity:1;fill-rule:evenodd;stroke:none"
       d="m 6.5599532,70.96519 c -0.2268133,0 -0.4536266,-0.07557 -0.6426376,-0.188921 C 3.8381938,69.416039 2.5907207,67.186772 2.5907207,64.844153 V 35.825904 c 0,-2.115914 0.9072532,-4.005123 2.5705506,-5.365353 0.4158243,-0.340058 1.058462,-0.340058 1.4742863,0 l 22.6813284,18.6276 c 0.264616,0.226705 0.415825,0.566762 0.415825,0.869036 0,0.340058 -0.113407,0.680115 -0.378023,0.90682 L 7.3537997,70.625133 C 7.1269864,70.851838 6.8623709,70.927406 6.5599532,70.927406 Z M 5.9551178,32.916522 C 5.2746779,33.747774 4.934458,34.730163 4.934458,35.825904 v 29.018249 c 0,1.284662 0.5670332,2.53154 1.5498908,3.438361 L 26.784138,50.032755 Z"
       id="path4-5" />
    <path
       style="fill:#860626;fill-opacity:1;fill-rule:evenodd;stroke:none"
       d="m 54.455359,38.848638 c -0.642638,0 -1.171869,-0.491194 -1.171869,-1.171309 v -9.105987 c 0,-0.642331 0.529231,-1.17131 1.171869,-1.17131 0.642637,0 1.171868,0.528979 1.171868,1.17131 v 9.105987 c 0,0.642331 -0.529231,1.171309 -1.171868,1.171309 z m -40.864194,0 c -0.642638,0 -1.171869,-0.491194 -1.171869,-1.171309 V 11.530677 c 0,-1.7380719 1.436485,-3.1360869 3.175386,-3.1360869 h 21.547263 c 0.642637,0 1.171868,0.528979 1.171868,1.17131 0,0.6423309 -0.529231,1.1713089 -1.171868,1.1713089 H 15.594682 c -0.453626,0 -0.831648,0.377842 -0.831648,0.793468 v 26.184436 c 0,0.642331 -0.529231,1.133525 -1.171869,1.133525 z"
       id="path5-0" />
    <path
       style="fill:#860626;fill-opacity:1;fill-rule:evenodd;stroke:none"
       d="m 54.379754,29.742651 c -0.567033,0 -1.171868,-0.151137 -1.701099,-0.45341 -0.793847,-0.415626 -1.398682,-1.17131 -1.663298,-2.07813 L 44.475574,4.7673091 c -0.264615,-0.869036 -0.151209,-1.813641 0.302418,-2.644893 0.415824,-0.7934674 1.171869,-1.3980142 2.079122,-1.6625035 l 0.831648,-0.2267051 c 0.907254,-0.2644892 1.852309,-0.1511367 2.646155,0.2644893 0.831649,0.4534101 1.436485,1.2090933 1.7011,2.0781303 L 58.5758,25.019629 c 0.264616,0.90682 0.151209,1.851425 -0.302418,2.644892 -0.453626,0.831252 -1.171868,1.435799 -2.079121,1.662504 l -0.831649,0.264489 c -0.34022,0.07557 -0.68044,0.151137 -0.982858,0.151137 z M 48.67162,2.3869061 c -0.113407,0 -0.226813,0.03778 -0.302418,0.07557 l -0.869451,0.226705 c -0.302417,0.07557 -0.529231,0.302273 -0.68044,0.566762 -0.151208,0.26449 -0.189011,0.566763 -0.113406,0.869037 l 6.539783,22.4438019 c 0.0756,0.302274 0.264615,0.528979 0.567033,0.680115 0.264616,0.151137 0.567033,0.188921 0.869451,0.113353 l 0.869451,-0.264489 c 0.264615,-0.07557 0.529231,-0.26449 0.68044,-0.528979 0.151209,-0.302273 0.189011,-0.604547 0.113406,-0.90682 L 49.805686,3.2181581 C 49.69228,2.9158841 49.503269,2.6891791 49.238653,2.5380421 49.049642,2.4246901 48.860631,2.3869061 48.67162,2.3869061 Z"
       id="path6-2" />
    <path
       style="fill:#860626;fill-opacity:1;fill-rule:evenodd;stroke:none"
       d="m 62.658439,32.53868 c -0.189011,0 -0.415824,-0.07557 -0.604835,-0.18892 l -6.010552,-3.513929 c -0.567033,-0.302274 -0.718242,-1.020173 -0.415825,-1.586936 0.34022,-0.528978 1.058462,-0.717899 1.625496,-0.415626 l 6.010552,3.513929 c 0.529231,0.340058 0.718242,1.057957 0.378022,1.586936 -0.189011,0.377841 -0.604836,0.604546 -0.982858,0.604546 z"
       id="path7-8" />
    <path
       style="fill:#860626;fill-opacity:1;fill-rule:evenodd;stroke:none"
       d="m 30.450953,28.760263 c -0.642638,0 -1.134067,-0.491195 -1.171869,-1.095742 0,-0.642331 0.491429,-1.171309 1.134066,-1.209093 l 21.698471,-0.7179 c 0.642638,-0.03778 1.171869,0.491195 1.209671,1.133526 0,0.642331 -0.491428,1.171309 -1.134066,1.171309 l -21.698471,0.7179 z M 26.973149,16.820462 c -0.378022,0 -0.793847,-0.188921 -1.02066,-0.528979 -0.302418,-0.566762 -0.151209,-1.284662 0.415825,-1.624719 L 45.004805,3.4826471 c 0.529231,-0.340058 1.247473,-0.188921 1.587693,0.377842 0.34022,0.528978 0.151209,1.246877 -0.378022,1.586935 L 27.577984,16.669325 c -0.189011,0.113353 -0.415824,0.151137 -0.604835,0.151137 z"
       id="path8-6" />
    <path
       style="fill:#860626;fill-opacity:1;fill-rule:evenodd;stroke:none"
       d="m 36.72612,42.92933 c -0.68044,0 -1.323077,-0.188921 -1.927913,-0.491195 -0.945055,-0.528978 -1.663297,-1.398014 -1.965715,-2.418187 L 29.316886,27.929011 c -0.0756,-0.340058 -0.0378,-0.7179 0.189011,-0.982389 0.226814,-0.302273 0.567034,-0.491194 0.907253,-0.491194 l 5.897146,-0.188921 c 0.529231,-0.03778 1.02066,0.340057 1.171869,0.831252 l 3.137583,10.692922 c 0.604836,2.115914 -0.642637,4.345181 -2.759561,4.987512 -0.378022,0.07557 -0.756045,0.151137 -1.134067,0.151137 z m -4.725277,-14.206852 3.099782,10.655139 c 0.113407,0.415626 0.415824,0.793468 0.793847,1.020173 0.415824,0.226705 0.86945,0.264489 1.285275,0.113352 0.907253,-0.226705 1.436484,-1.171309 1.171868,-2.07813 l -2.872968,-9.823886 -3.515606,0.113352 z"
       id="path9-0" />
    <path
       style="fill:#860626;fill-opacity:1;fill-rule:evenodd;stroke:none"
       d="m 25.914687,29.667083 c -0.793847,0 -1.549891,-0.188921 -2.268133,-0.604547 -1.134066,-0.604547 -1.927913,-1.586936 -2.305935,-2.796029 l -1.398682,-4.836375 c -0.718242,-2.493756 0.756044,-5.138649 3.250991,-5.856548 l 3.477803,-1.020173 c 0.604836,-0.151136 1.247473,0.188921 1.436484,0.793468 l 3.4022,11.713095 c 0.189011,0.604547 -0.189011,1.246878 -0.793847,1.435799 l -3.440001,0.982389 c -0.453627,0.113352 -0.907253,0.188921 -1.36088,0.188921 z M 23.835565,17.765066 c -1.285275,0.377842 -2.003517,1.738073 -1.663297,3.022735 l 1.398682,4.79859 c 0.189011,0.604547 0.604835,1.133526 1.171868,1.435799 0.567034,0.340058 1.247473,0.415626 1.852309,0.226705 l 2.343737,-0.680115 -2.759562,-9.446045 z"
       id="path10-2" />
    <path
       style="fill:#860626;fill-opacity:1;fill-rule:evenodd;stroke:none"
       d="m 62.16701,13.00426 c -0.491428,0 -0.945055,-0.340058 -1.096264,-0.831252 -0.189011,-0.642331 0.151209,-1.284662 0.793847,-1.435799 l 4.574068,-1.3224459 c 0.604835,-0.188921 1.285275,0.151137 1.436484,0.7556829 0.189011,0.642332 -0.189011,1.284663 -0.793847,1.435799 l -4.574068,1.322447 c -0.113406,0.03778 -0.226813,0.07557 -0.34022,0.07557 z"
       id="path11-4" />
    <path
       style="fill:#860626;fill-opacity:1;fill-rule:evenodd;stroke:none"
       d="m 60.2769,6.5053811 c -0.189011,0 -0.378022,-0.07557 -0.567033,-0.151137 -0.567034,-0.302273 -0.756045,-1.020172 -0.453627,-1.586935 l 2.305935,-4.1562598 c 0.302418,-0.5667626 1.02066,-0.7556835 1.587693,-0.4534101 0.529231,0.3022734 0.756044,1.0201728 0.453627,1.5869359 l -2.305935,4.156259 c -0.226814,0.377842 -0.604836,0.604547 -1.02066,0.604547 z"
       id="path12-8" />
    <path
       style="fill:#860626;fill-opacity:1;fill-rule:evenodd;stroke:none"
       d="m 68.253167,21.807974 c -0.189011,0 -0.378022,-0.07557 -0.567033,-0.151137 l -4.196046,-2.304835 c -0.529231,-0.302273 -0.756044,-1.020173 -0.453627,-1.549151 0.302418,-0.566763 1.02066,-0.793468 1.587693,-0.453411 l 4.196046,2.267051 c 0.529231,0.302274 0.756044,1.020173 0.453627,1.586936 -0.226814,0.377842 -0.604836,0.604547 -1.02066,0.604547 z"
       id="path13-6" />
  </g>
</svg>
