<?xml version="1.0" encoding="UTF-8" standalone="no"?>
<!-- Created with Inkscape (http://www.inkscape.org/) -->

<svg
   width="72"
   height="72"
   viewBox="0 0 72 72"
   version="1.1"
   id="svg1"
   xmlns="http://www.w3.org/2000/svg"
   xmlns:svg="http://www.w3.org/2000/svg">
  <defs
     id="defs1" />
  <g
     id="layer1">
    <g
       id="g4148"
       transform="translate(-49.430622,-56.325289)">
      <path
         style="fill:#860626;fill-opacity:1;fill-rule:evenodd;stroke:none"
         d="m 117.4869,71.298394 c 0,-1.586935 -1.32307,-2.909382 -2.91077,-2.909382 h -3.96923 c -1.6255,0 -2.91077,1.322447 -2.91077,2.909382 v 38.124236 c 0,0.18892 0,0.30227 0.0756,0.45341 v 0 l 3.81802,8.19917 c 0.18901,0.37784 0.56704,0.60455 0.98286,0.60455 0.45363,0 0.83165,-0.22671 0.98286,-0.60455 l 3.85582,-8.19917 v 0 c 0.0756,-0.15114 0.11341,-0.26449 0.11341,-0.45341 v -5.0253 z m -7.63605,37.028496 V 76.134769 h 1.6633 v 32.192121 z m 3.81803,-32.192121 h 1.62549 l 0.0378,32.192121 h -1.66329 z m -3.06198,-5.554274 h 3.96923 c 0.37802,0 0.71824,0.340057 0.71824,0.717899 v 2.682677 h -5.44352 v -2.682677 c 0,-0.377842 0.34023,-0.717899 0.75605,-0.717899 z m 1.96572,44.434195 -2.07913,-4.49632 h 4.19605 z"
         id="path1-7" />
      <path
         style="fill:#860626;fill-opacity:1;fill-rule:evenodd;stroke:none"
         d="m 101.42096,65.781904 c -0.90725,-0.566763 -1.927912,-0.869036 -3.024176,-0.869036 h -5.556925 c -0.945056,-1.511367 -2.494946,-2.53154 -4.309453,-2.53154 h -1.285275 c -0.264616,-3.400576 -2.872968,-6.045469 -6.048354,-6.045469 -3.137584,0 -5.745937,2.682677 -6.010552,6.045469 h -1.285276 c -1.814506,0 -3.402199,1.020173 -4.309452,2.53154 h -5.821541 c -3.06198,0 -5.594728,2.720461 -5.594728,6.121037 v 11.410822 l -4.498463,4.345181 c -0.189011,0.18892 -0.34022,0.45341 -0.34022,0.793467 v 37.859745 c 0,1.58694 1.323077,2.8716 2.986375,2.8716 h 31.035618 c 1.625495,0 2.986375,-1.28466 2.986375,-2.8716 v -3.24944 H 98.6614 c 1.247473,0 2.38154,-0.41562 3.3644,-1.20909 1.24747,-1.02017 2.00351,-2.64489 2.00351,-4.42075 V 70.656063 c -0.0378,-2.040345 -1.02066,-3.89177 -2.60835,-4.874159 z M 73.900949,64.57281 h 2.419342 c 0.302418,0 0.604835,-0.151136 0.793847,-0.377841 0.189011,-0.188921 0.302417,-0.528979 0.264615,-0.831252 0,-0.151137 0,-0.26449 0,-0.415626 0,-2.455972 1.7011,-4.420749 3.855826,-4.420749 2.116924,0 3.855826,1.964777 3.855826,4.420749 0,0.151136 0,0.264489 -0.0378,0.415626 0,0.302273 0.0756,0.604546 0.302417,0.869036 0.189011,0.226705 0.491429,0.340057 0.793847,0.340057 h 2.381539 c 1.663298,0 2.986375,1.549152 2.986375,3.476145 v 1.775856 H 70.914574 v -1.775856 c 0,-1.926993 1.323078,-3.476145 2.986375,-3.476145 z M 60.027537,83.653821 60.59457,83.124842 v 2.644893 c 0,0.377842 -0.34022,0.717899 -0.793847,0.717899 h -2.683957 z m 28.087045,41.751519 c 0,0.41562 -0.34022,0.7179 -0.793847,0.7179 H 56.285117 c -0.415824,0 -0.756044,-0.30228 -0.756044,-0.7179 V 88.641332 h 4.27165 c 1.625496,0 2.986375,-1.284662 2.986375,-2.871597 v -4.118476 h 24.57144 c 0.415824,0 0.793846,0.302274 0.793846,0.7179 v 43.036181 z m 13.722208,-8.87928 c 0,1.13352 -0.45363,2.1537 -1.20967,2.75824 -0.60484,0.45341 -1.28528,0.7179 -1.96572,0.7179 H 90.30711 V 82.369159 c 0,-1.62472 -1.323077,-2.909382 -2.986375,-2.909382 H 61.690834 c -0.151209,0 -0.302418,0.03778 -0.415824,0.07557 -0.0756,0.03778 -0.151209,0.07557 -0.189011,0.113353 -0.0756,0.03778 -0.113407,0.07557 -0.189011,0.113352 v 0 l -0.529231,0.528979 v -9.294908 c 0,-2.153698 1.512088,-3.891771 3.402199,-3.891771 h 5.027694 c -0.0378,0.26449 -0.0756,0.604547 -0.0756,0.906821 v 2.871597 c 0,0.604547 0.453627,1.095741 1.096264,1.095741 h 22.794735 c 0.604836,0 1.096265,-0.491194 1.096265,-1.095741 v -2.833813 c 0,-0.340058 -0.0378,-0.642331 -0.113407,-0.944605 h 4.800881 c 0.68044,0 1.285275,0.188921 1.852312,0.528979 0.98285,0.604547 1.58769,1.738072 1.58769,3.022734 v 45.907775 z"
         id="path2-4" />
      <path
         style="fill:#860626;fill-opacity:1;fill-rule:evenodd;stroke:none"
         d="M 82.255239,91.324009 H 66.831935 c -0.604835,0 -1.096264,0.491194 -1.096264,1.095741 0,0.604547 0.491429,1.095741 1.096264,1.095741 h 15.423304 c 0.604835,0 1.096264,-0.491194 1.096264,-1.095741 0,-0.604547 -0.491429,-1.095741 -1.096264,-1.095741 z"
         id="path3-2" />
      <path
         style="fill:#860626;fill-opacity:1;fill-rule:evenodd;stroke:none"
         d="M 82.255239,98.994197 H 61.388416 c -0.642637,0 -1.096264,0.453411 -1.096264,1.057953 0,0.64234 0.453627,1.09575 1.096264,1.09575 h 20.866823 c 0.604835,0 1.096264,-0.45341 1.096264,-1.09575 0,-0.604542 -0.491429,-1.057953 -1.096264,-1.057953 z"
         id="path4-7" />
      <path
         style="fill:#860626;fill-opacity:1;fill-rule:evenodd;stroke:none"
         d="M 82.255239,106.6266 H 61.388416 c -0.642637,0 -1.096264,0.4912 -1.096264,1.09574 0,0.60455 0.453627,1.09574 1.096264,1.09574 h 20.866823 c 0.604835,0 1.096264,-0.49119 1.096264,-1.09574 0,-0.60454 -0.491429,-1.09574 -1.096264,-1.09574 z"
         id="path5-7" />
      <path
         style="fill:#860626;fill-opacity:1;fill-rule:evenodd;stroke:none"
         d="M 82.255239,114.29679 H 61.388416 c -0.642637,0 -1.096264,0.49119 -1.096264,1.09574 0,0.60455 0.453627,1.09574 1.096264,1.09574 h 20.866823 c 0.604835,0 1.096264,-0.49119 1.096264,-1.09574 0,-0.60455 -0.491429,-1.09574 -1.096264,-1.09574 z"
         id="path6-9" />
    </g>
  </g>
</svg>
