<?xml version="1.0" encoding="UTF-8" standalone="no"?>
<!-- Created with Inkscape (http://www.inkscape.org/) -->

<svg
   width="72"
   height="72"
   viewBox="0 0 72 72"
   version="1.1"
   id="svg1"
   xmlns="http://www.w3.org/2000/svg"
   xmlns:svg="http://www.w3.org/2000/svg">
  <defs
     id="defs1" />
  <g
     id="layer1">
    <path
       style="fill:#860626;fill-opacity:1;fill-rule:evenodd;stroke:none"
       d="m 17.306805,71.98943 c -0.718242,0 -1.285275,-0.566762 -1.285275,-1.284662 V 58.651615 H 6.6087782 c -3.6290126,0 -6.6153872,-2.98495 -6.6153872,-6.612231 V 6.6228013 c 0,-3.627282 2.9863746,-6.6122316 6.6153872,-6.6122316 H 65.391221 c 3.666815,0 6.615388,2.9849496 6.615388,6.6122316 V 52.0016 c 0,3.665065 -2.986375,6.650015 -6.615388,6.650015 H 31.180218 l -12.96616,12.959973 c -0.226813,0.226705 -0.567033,0.377842 -0.907253,0.377842 z M 6.6087782,2.5798943 c -2.2681328,0 -4.0448369,1.775856 -4.0448369,4.080691 V 52.039384 c 0,2.26705 1.7767041,4.042907 4.0448369,4.042907 H 17.306805 c 0.718242,0 1.285275,0.566763 1.285275,1.284662 V 67.606465 L 29.743733,56.460133 c 0.264616,-0.226705 0.567034,-0.377842 0.907254,-0.377842 h 34.740234 c 2.268133,0 4.044837,-1.775857 4.044837,-4.042907 V 6.6228013 c 0,-2.267051 -1.776704,-4.042907 -4.044837,-4.042907 z"
       id="path1-4" />
    <path
       style="fill:#860626;fill-opacity:1;fill-rule:evenodd;stroke:none"
       d="m 15.983727,17.202371 c -0.680439,0 -1.247473,-0.566763 -1.247473,-1.246878 0,-0.680115 0.567034,-1.209094 1.247473,-1.209094 h 28.011441 c 0.68044,0 1.247473,0.528979 1.247473,1.209094 0,0.680115 -0.567033,1.246878 -1.247473,1.246878 z"
       id="path2-9" />
    <path
       style="fill:#860626;fill-opacity:1;fill-rule:evenodd;stroke:none"
       d="m 15.983727,29.935639 c -0.680439,0 -1.247473,-0.566763 -1.247473,-1.246878 0,-0.680115 0.567034,-1.209094 1.247473,-1.209094 h 40.750787 c 0.68044,0 1.247473,0.528979 1.247473,1.209094 0,0.680115 -0.567033,1.246878 -1.247473,1.246878 z"
       id="path3-6" />
    <path
       style="fill:#860626;fill-opacity:1;fill-rule:evenodd;stroke:none"
       d="m 15.983727,42.668907 c -0.680439,0 -1.247473,-0.528978 -1.247473,-1.209093 0,-0.680116 0.567034,-1.246878 1.247473,-1.246878 h 28.011441 c 0.68044,0 1.247473,0.566762 1.247473,1.246878 0,0.680115 -0.567033,1.209093 -1.247473,1.209093 z"
       id="path4-3" />
  </g>
</svg>
