<?xml version="1.0" encoding="UTF-8" standalone="no"?>
<!-- Created with Inkscape (http://www.inkscape.org/) -->

<svg
   width="72"
   height="72"
   viewBox="0 0 72 72"
   version="1.1"
   id="svg1"
   xmlns="http://www.w3.org/2000/svg"
   xmlns:svg="http://www.w3.org/2000/svg">
  <defs
     id="defs1" />
  <g
     id="layer1">
    <path
       style="fill:#860626;fill-opacity:1;fill-rule:evenodd;stroke:none"
       d="M 53.596937,71.989431 H 6.45757 c -1.701099,0 -3.364397,-0.68012 -4.574068,-1.85143 -1.20967,-1.1713 -1.89011,-2.79602 -1.89011,-4.49631 V 6.358312 c 0,-1.662503 0.68044,-3.287223 1.89011,-4.496317 C 3.093173,0.690686 4.756471,0.01057 6.45757,0.01057 h 47.139367 c 1.70109,0 3.36439,0.680116 4.57406,1.851425 1.20967,1.209094 1.89011,2.796029 1.89011,4.496317 v 10.504002 c 0,0.302274 -0.15121,0.642331 -0.37802,0.869036 -0.22681,0.226705 -0.56703,0.377842 -0.90725,0.377842 -0.30242,0 -0.64264,-0.151137 -0.86945,-0.377842 -0.22682,-0.226705 -0.37802,-0.566762 -0.37802,-0.869036 V 6.358312 c 0,-1.020172 -0.41583,-2.002561 -1.13407,-2.720461 -0.75605,-0.717899 -1.77671,-1.133525 -2.79736,-1.133525 H 6.45757 c -1.058462,0 -2.041319,0.377842 -2.797363,1.133525 C 2.941964,4.355751 2.52614,5.33814 2.52614,6.358312 v 59.283379 c 0,1.02017 0.415824,2.00256 1.134067,2.72046 0.756044,0.75568 1.738901,1.13352 2.797363,1.17131 h 47.139367 c 1.05846,0 2.04131,-0.41563 2.79736,-1.17131 0.71824,-0.7179 1.13407,-1.70029 1.13407,-2.72046 v -23.8796 c 0,-0.34006 0.1512,-0.64233 0.37802,-0.86904 0.22681,-0.2267 0.56703,-0.37784 0.90725,-0.37784 0.34022,0 0.64264,0.15114 0.86945,0.37784 0.26462,0.22671 0.37802,0.52898 0.37802,0.86904 v 23.8796 c 0,1.70029 -0.68044,3.28722 -1.89011,4.49632 -1.20967,1.17131 -2.83516,1.85142 -4.57406,1.85142 z"
       id="path1-20" />
    <path
       style="fill:#860626;fill-opacity:1;fill-rule:evenodd;stroke:none"
       d="m 54.882207,53.664101 c -0.15121,0 -0.30242,-0.0378 -0.45363,-0.0756 l -8.127473,-2.90938 c -0.151209,-0.0756 -0.302417,-0.15113 -0.415824,-0.26449 -0.151209,-0.11335 -0.226813,-0.26449 -0.302418,-0.37784 -0.0756,-0.15114 -0.113406,-0.30227 -0.113406,-0.49119 0,-0.15114 0.0378,-0.34006 0.0756,-0.45341 L 60.212317,9.532183 c 0.0378,-0.151136 0.11341,-0.302273 0.22682,-0.415626 0.1134,-0.113352 0.26461,-0.226705 0.41582,-0.302273 0.15121,-0.03778 0.30242,-0.113353 0.45363,-0.113353 0.18901,0 0.34022,0.03778 0.49142,0.07557 l 8.16528,2.909383 c 0.30242,0.113352 0.56704,0.340057 0.68044,0.642331 0.15121,0.302273 0.15121,0.642331 0.0756,0.944604 l -14.66725,39.560032 c -0.0756,0.26449 -0.26462,0.45341 -0.45363,0.60455 -0.22681,0.15114 -0.45362,0.2267 -0.71824,0.2267 z m -6.539783,-4.91194 5.783743,2.07813 13.76,-37.2552 -5.78374,-2.07813 z"
       id="path2-97" />
    <path
       style="fill:#860626;fill-opacity:1;fill-rule:evenodd;stroke:none"
       d="m 69.511667,14.104069 c -0.15121,0 -0.30242,-0.03778 -0.41583,-0.113352 l -8.16528,-2.909382 c -0.15121,-0.03778 -0.30241,-0.113353 -0.41582,-0.226705 -0.11341,-0.113353 -0.22681,-0.26449 -0.30242,-0.377842 -0.0756,-0.151137 -0.11341,-0.340058 -0.11341,-0.491194 0,-0.151137 0.0378,-0.340058 0.0756,-0.453411 l 0.98286,-2.644892 c 0.49143,-1.36023 1.54989,-2.455972 2.83517,-3.060519 1.36088,-0.604546 2.87297,-0.680115 4.23385,-0.188921 l 0.1134,0.03778 c 0.68044,0.26449 1.32308,0.604547 1.85231,1.095742 0.52923,0.491194 0.98286,1.057957 1.28528,1.700288 0.30241,0.642331 0.49143,1.36023 0.52923,2.07813 0,0.717899 -0.11341,1.398014 -0.34022,2.07813 l -0.98286,2.644892 c -0.0756,0.226705 -0.22681,0.415626 -0.45363,0.566763 -0.22681,0.151137 -0.45362,0.226705 -0.71824,0.226705 z m -6.53979,-4.911943 5.78374,2.07813 0.56704,-1.473583 c 0.1134,-0.377842 0.18901,-0.755684 0.1512,-1.17131 0,-0.377842 -0.1134,-0.755683 -0.26461,-1.095741 -0.18901,-0.377842 -0.41583,-0.680115 -0.68044,-0.944604 -0.30242,-0.26449 -0.64264,-0.453411 -1.02066,-0.604547 l -0.15121,-0.03778 c -0.71824,-0.26449 -1.54989,-0.226706 -2.26813,0.113352 -0.75605,0.302273 -1.28528,0.90682 -1.58769,1.662504 z"
       id="path3-3" />
    <path
       style="fill:#860626;fill-opacity:1;fill-rule:evenodd;stroke:none"
       d="m 47.057149,62.316681 c -0.151209,0 -0.302418,-0.0378 -0.453627,-0.0756 -0.226813,-0.0756 -0.453627,-0.22671 -0.604835,-0.45341 -0.113407,-0.18892 -0.226814,-0.41563 -0.226814,-0.68012 l -0.302417,-11.59974 c 0,-0.18892 0.0378,-0.37784 0.113406,-0.56676 0.113407,-0.18892 0.226813,-0.34006 0.415825,-0.45341 0.151208,-0.11335 0.340219,-0.18892 0.529231,-0.2267 0.226813,0 0.415824,0 0.604835,0.0756 l 8.165274,2.90938 c 0.18902,0.0756 0.37803,0.18892 0.49143,0.34006 0.15121,0.15113 0.22682,0.30227 0.30242,0.52897 0.0378,0.18893 0.0378,0.37785 0,0.56677 -0.0378,0.2267 -0.15121,0.37784 -0.30242,0.52898 l -7.787253,8.69036 c -0.151209,0.11335 -0.302418,0.2267 -0.453627,0.30227 -0.151209,0.0756 -0.34022,0.11335 -0.491428,0.11335 z m 0.982857,-11.03298 0.189011,6.65002 4.46066,-4.98752 z"
       id="path4-7" />
    <path
       style="fill:#860626;fill-opacity:1;fill-rule:evenodd;stroke:none"
       d="m 55.184627,40.326291 c -0.18901,0 -0.41583,-0.0378 -0.56704,-0.11335 -0.18901,-0.11336 -0.34022,-0.22671 -0.45362,-0.41563 -0.11341,-0.15114 -0.18901,-0.34006 -0.22681,-0.52898 -0.0378,-0.18892 0,-0.41563 0.0756,-0.60455 l 5.85934,-15.831567 c 0.0756,-0.18892 0.15121,-0.340057 0.26461,-0.45341 0.0756,-0.151136 0.22682,-0.226705 0.37803,-0.302273 0.15121,-0.07557 0.34022,-0.113353 0.49142,-0.151137 0.18902,0 0.34023,0.03778 0.52924,0.07557 0.1512,0.07557 0.30241,0.151137 0.41582,0.26449 0.11341,0.151136 0.22681,0.264489 0.30242,0.415626 0.0378,0.151136 0.0756,0.340057 0.0756,0.491194 0,0.188921 -0.0378,0.377842 -0.11341,0.528979 l -5.85934,15.831568 c -0.0756,0.26449 -0.22681,0.45341 -0.45363,0.60455 -0.22681,0.15114 -0.45363,0.2267 -0.71824,0.2267 z"
       id="path5-2" />
    <path
       style="fill:#860626;fill-opacity:1;fill-rule:evenodd;stroke:none"
       d="M 47.699786,25.77938 H 7.629439 c -0.34022,0 -0.642638,-0.113352 -0.869451,-0.340057 -0.264615,-0.226705 -0.378022,-0.566763 -0.378022,-0.869036 0,-0.340058 0.113407,-0.642331 0.378022,-0.906821 0.226813,-0.226705 0.529231,-0.340057 0.869451,-0.340057 h 40.070347 c 0.34022,0 0.642638,0.113352 0.907253,0.340057 0.226814,0.226705 0.378022,0.566763 0.378022,0.906821 0,0.302273 -0.151208,0.604547 -0.378022,0.869036 -0.226813,0.226705 -0.567033,0.340057 -0.907253,0.340057 z"
       id="path6-6" />
    <path
       style="fill:#860626;fill-opacity:1;fill-rule:evenodd;stroke:none"
       d="M 47.699786,32.542751 H 7.629439 c -0.34022,0 -0.642638,-0.15114 -0.869451,-0.37784 -0.264615,-0.22671 -0.378022,-0.52898 -0.378022,-0.86904 0,-0.34006 0.113407,-0.642332 0.378022,-0.869037 0.226813,-0.226705 0.529231,-0.377841 0.869451,-0.377841 h 40.070347 c 0.34022,0 0.642638,0.151136 0.907253,0.377841 0.226814,0.226705 0.378022,0.528977 0.378022,0.869037 0,0.34006 -0.151208,0.64233 -0.378022,0.86904 -0.226813,0.2267 -0.567033,0.37784 -0.907253,0.37784 z"
       id="path7-0" />
    <path
       style="fill:#860626;fill-opacity:1;fill-rule:evenodd;stroke:none"
       d="M 46.112093,39.268331 H 7.629439 c -0.34022,0 -0.642638,-0.11335 -0.869451,-0.34006 -0.264615,-0.2267 -0.378022,-0.56676 -0.378022,-0.86903 0,-0.34006 0.113407,-0.64233 0.378022,-0.90682 0.226813,-0.22671 0.529231,-0.34006 0.869451,-0.34006 h 38.482654 c 0.34022,0 0.68044,0.11335 0.907253,0.34006 0.226814,0.2267 0.378022,0.56676 0.378022,0.90682 0,0.30227 -0.151208,0.60454 -0.378022,0.86903 -0.226813,0.22671 -0.567033,0.34006 -0.907253,0.34006 z"
       id="path8-1" />
    <path
       style="fill:#860626;fill-opacity:1;fill-rule:evenodd;stroke:none"
       d="M 42.974509,46.031701 H 7.629439 c -0.34022,0 -0.642638,-0.15114 -0.869451,-0.37784 -0.264615,-0.22671 -0.378022,-0.52898 -0.378022,-0.86904 0,-0.34006 0.113407,-0.64233 0.378022,-0.86904 0.226813,-0.2267 0.529231,-0.37784 0.869451,-0.37784 h 35.34507 c 0.34022,0 0.68044,0.15114 0.907254,0.37784 0.226813,0.22671 0.378022,0.52898 0.378022,0.86904 0,0.34006 -0.151209,0.64233 -0.378022,0.86904 -0.226814,0.2267 -0.567034,0.37784 -0.907254,0.37784 z"
       id="path9-6" />
    <path
       style="fill:#860626;fill-opacity:1;fill-rule:evenodd;stroke:none"
       d="M 41.424619,52.757281 H 7.629439 c -0.34022,0 -0.642638,-0.11335 -0.869451,-0.34005 -0.264615,-0.22671 -0.378022,-0.56677 -0.378022,-0.86904 0,-0.34006 0.113407,-0.64233 0.378022,-0.90682 0.226813,-0.22671 0.529231,-0.34006 0.869451,-0.34006 h 33.79518 c 0.34022,0 0.642637,0.11335 0.869451,0.34006 0.264615,0.2267 0.378022,0.56676 0.378022,0.90682 0,0.30227 -0.113407,0.60455 -0.378022,0.86904 -0.226814,0.2267 -0.529231,0.34005 -0.869451,0.34005 z"
       id="path10-5" />
    <path
       style="fill:#860626;fill-opacity:1;fill-rule:evenodd;stroke:none"
       d="M 42.974509,59.520651 H 7.629439 c -0.34022,0 -0.642638,-0.15114 -0.869451,-0.37784 -0.264615,-0.22671 -0.378022,-0.52898 -0.378022,-0.86904 0,-0.34005 0.113407,-0.64233 0.378022,-0.86903 0.226813,-0.22671 0.529231,-0.37785 0.869451,-0.37785 h 35.34507 c 0.34022,0 0.68044,0.15114 0.907254,0.37785 0.226813,0.2267 0.378022,0.52898 0.378022,0.86903 0,0.34006 -0.151209,0.64233 -0.378022,0.86904 -0.226814,0.2267 -0.567034,0.37784 -0.907254,0.37784 z"
       id="path11-7" />
    <path
       style="fill:#860626;fill-opacity:1;fill-rule:evenodd;stroke:none"
       d="M 52.425067,66.246231 H 7.629439 c -0.34022,0 -0.642638,-0.11335 -0.869451,-0.34005 -0.264615,-0.22671 -0.378022,-0.56677 -0.378022,-0.90682 0,-0.30228 0.113407,-0.60455 0.378022,-0.86904 0.226813,-0.2267 0.529231,-0.34006 0.869451,-0.34006 h 44.795628 c 0.34022,0 0.64263,0.11336 0.90725,0.34006 0.22681,0.22671 0.34022,0.56676 0.34022,0.86904 0,0.34005 -0.11341,0.64233 -0.34022,0.90682 -0.26462,0.2267 -0.56703,0.34005 -0.90725,0.34005 z"
       id="path12-5" />
    <path
       style="fill:#860626;fill-opacity:1;fill-rule:evenodd;stroke:none"
       d="M 50.988577,12.403781 V 6.056039 c 0,-0.302273 0.26462,-0.566763 0.56703,-0.566763 h 1.32308 c 0.30242,0 0.56704,0.26449 0.56704,0.566763 v 12.619916 c 0,0.340057 -0.26462,0.566762 -0.56704,0.566762 h -1.47428 c -0.18901,0 -0.37803,-0.07557 -0.49143,-0.264489 l -4.309455,-6.952289 c -0.151209,-0.188921 -0.378022,-0.302273 -0.642638,-0.226705 -0.226813,0.07557 -0.415824,0.302274 -0.415824,0.528979 v 6.347742 c 0,0.340057 -0.264616,0.566762 -0.567033,0.566762 h -1.323078 c -0.302417,0 -0.567033,-0.226705 -0.567033,-0.566762 V 6.056039 c 0,-0.302273 0.264616,-0.566763 0.567033,-0.566763 h 1.474287 c 0.189011,0 0.378022,0.113353 0.491428,0.26449 l 4.309453,6.952288 c 0.15121,0.226706 0.41582,0.302274 0.64264,0.26449 0.26461,-0.07557 0.41582,-0.302274 0.41582,-0.566763 z"
       id="path13-4" />
    <path
       style="fill:#860626;fill-opacity:1;fill-rule:evenodd;stroke:none"
       d="m 38.400441,15.350947 h -3.553408 c -0.226813,0 -0.453626,0.188921 -0.529231,0.415626 l -1.020659,3.098303 c -0.113407,0.226705 -0.302418,0.377841 -0.567034,0.377841 h -1.436484 c -0.226813,0 -0.378022,-0.07557 -0.491429,-0.226705 -0.113406,-0.151136 -0.113406,-0.340057 -0.0756,-0.528978 L 35.262858,5.867118 c 0.0756,-0.226705 0.264615,-0.377842 0.529231,-0.377842 h 1.587693 c 0.264615,0 0.453626,0.151137 0.529231,0.377842 l 4.800881,12.619916 c 0.0756,0.188921 0.0378,0.377842 -0.0756,0.528978 -0.0756,0.151137 -0.264615,0.226705 -0.453626,0.226705 h -1.587693 c -0.226813,0 -0.453627,-0.151136 -0.529231,-0.377841 l -1.134067,-3.136087 c -0.0756,-0.226705 -0.264615,-0.377842 -0.529231,-0.377842 z m -2.381539,-2.304835 h 1.171869 c 0.189011,0 0.34022,-0.07557 0.453626,-0.226705 0.113407,-0.151137 0.151209,-0.340058 0.07561,-0.528978 l -0.567034,-1.662504 c -0.0756,-0.226705 -0.302417,-0.377842 -0.529231,-0.377842 -0.264615,0 -0.453626,0.151137 -0.567033,0.377842 l -0.567033,1.662504 c -0.0378,0.18892 -0.0378,0.377841 0.0756,0.528978 0.113407,0.151137 0.264616,0.226705 0.453626,0.226705 z"
       id="path14-1" />
    <path
       style="fill:#860626;fill-opacity:1;fill-rule:evenodd;stroke:none"
       d="M 27.589008,18.675955 V 6.056039 c 0,-0.302273 0.264616,-0.566763 0.567033,-0.566763 h 1.398682 c 0.302418,0 0.567034,0.26449 0.567034,0.566763 v 12.619916 c 0,0.340057 -0.264616,0.566762 -0.567034,0.566762 h -1.398682 c -0.302417,0 -0.567033,-0.226705 -0.567033,-0.566762 z"
       id="path15-2" />
    <path
       style="fill:#860626;fill-opacity:1;fill-rule:evenodd;stroke:none"
       d="m 18.667686,14.670832 1.247473,-0.188921 c 0.151209,0 0.302417,0.03778 0.415824,0.113352 0.151209,0.113353 0.226813,0.26449 0.226813,0.415626 0.0378,0.491195 0.113407,1.284662 0.378022,1.62472 0.264616,0.302274 0.567034,0.377842 0.907254,0.377842 0.264615,0 0.529231,-0.03778 0.756044,-0.188921 0.226813,-0.151137 0.34022,-0.340058 0.415824,-0.566763 0.151209,-0.377841 0.151209,-1.020173 0.151209,-1.473583 V 6.056039 c 0,-0.302273 0.264616,-0.566763 0.567033,-0.566763 h 1.398682 c 0.302418,0 0.567033,0.26449 0.567033,0.566763 v 8.652577 c 0,0.831252 -0.0756,1.851425 -0.415824,2.644892 -0.264615,0.680116 -0.718242,1.209094 -1.323077,1.586936 -0.642638,0.377842 -1.36088,0.528979 -2.079122,0.528979 -1.096264,0 -2.079122,-0.302274 -2.759562,-1.133526 -0.756044,-0.831252 -0.945055,-2.002561 -0.945055,-3.098303 0,-0.302273 0.226813,-0.528978 0.491429,-0.566762 z"
       id="path16-0" />
    <path
       style="fill:#860626;fill-opacity:1;fill-rule:evenodd;stroke:none"
       d="m 15.341091,5.489276 h 1.398682 c 0.302417,0 0.567033,0.26449 0.567033,0.566763 v 7.330131 c 0,1.020173 -0.113407,2.229266 -0.453627,3.211655 -0.302417,0.869036 -0.869451,1.549151 -1.663297,2.07813 -0.869451,0.604547 -1.965715,0.793468 -3.024177,0.793468 -1.02066,0 -2.079122,-0.151137 -2.986375,-0.680116 C 8.385483,18.298113 7.780648,17.617998 7.47823,16.748962 7.062406,15.728789 6.986801,14.481911 6.986801,13.38617 V 6.056039 c 0,-0.302273 0.226814,-0.566763 0.567034,-0.566763 h 1.360879 c 0.34022,0 0.567033,0.26449 0.567033,0.566763 v 7.292347 c 0,0.680115 0.0378,1.662503 0.264616,2.304834 0.151209,0.453411 0.415824,0.755684 0.793847,0.982389 0.453626,0.302274 0.982857,0.377842 1.474286,0.377842 0.718242,0 1.625495,-0.113353 2.116924,-0.680115 0.567033,-0.642331 0.642638,-2.153699 0.642638,-2.98495 V 6.056039 c 0,-0.302273 0.264615,-0.566763 0.567033,-0.566763 z"
       id="path17-0" />
  </g>
</svg>
