<?xml version="1.0" encoding="UTF-8" standalone="no"?>
<!-- Created with Inkscape (http://www.inkscape.org/) -->

<svg
   width="72"
   height="72"
   viewBox="0 0 72 72"
   version="1.1"
   id="svg1"
   xmlns="http://www.w3.org/2000/svg"
   xmlns:svg="http://www.w3.org/2000/svg">
  <defs
     id="defs1" />
  <g
     id="layer1">
    <path
       style="fill:#860626;fill-opacity:1;fill-rule:evenodd;stroke:none"
       d="m 36.018902,71.989431 c -0.793847,0 -1.436484,-0.75568 -1.436484,-1.62472 V 25.817165 c 0,-4.458534 3.175386,-8.123599 7.069014,-8.123599 h 22.454515 c 0.79385,0 1.43648,0.755684 1.43648,1.662504 v 44.547551 c 0,0.90682 -0.64263,1.62472 -1.43648,1.62472 H 41.651432 c -2.305935,0 -4.196046,2.19148 -4.196046,4.79859 0,0.90682 -0.642638,1.6625 -1.436484,1.6625 z m 5.63253,-51.008641 c -2.305935,0 -4.196046,2.153698 -4.196046,4.79859 v 38.048671 c 1.171869,-0.98239 2.608353,-1.54915 4.196046,-1.54915 H 62.669467 V 20.98079 Z"
       id="path1-8" />
    <path
       style="fill:#860626;fill-opacity:1;fill-rule:evenodd;stroke:none"
       d="m 36.018902,71.989431 c -0.793847,0 -1.436484,-0.75568 -1.436484,-1.62472 0,-2.64489 -1.890111,-4.79859 -4.196046,-4.79859 H 7.894054 c -0.793846,0 -1.436484,-0.75568 -1.436484,-1.6625 V 19.35607 c 0,-0.90682 0.642638,-1.662504 1.436484,-1.662504 H 30.34857 c 3.93143,0 7.106816,3.665065 7.106816,8.123599 v 44.547546 c 0,0.86904 -0.642638,1.62472 -1.436484,1.62472 z M 9.330539,62.278901 H 30.34857 c 1.587693,0 3.024177,0.56676 4.196046,1.54915 V 25.77938 c 0,-2.644892 -1.890111,-4.79859 -4.196046,-4.79859 H 9.330539 Z"
       id="path2-8" />
    <path
       style="fill:#860626;fill-opacity:1;fill-rule:evenodd;stroke:none"
       d="M 70.570127,71.989431 H 1.429876 c -0.793847,0 -1.436484,-0.75568 -1.436484,-1.62472 V 27.026258 c 0,-0.869036 0.642637,-1.624719 1.436484,-1.624719 h 6.464178 c 0.793847,0 1.436485,0.755683 1.436485,1.624719 0,0.906821 -0.642638,1.662504 -1.436485,1.662504 H 2.86636 V 68.702211 H 69.133637 V 28.688762 h -5.02769 c -0.75604,0 -1.43648,-0.755683 -1.43648,-1.662504 0,-0.869036 0.68044,-1.624719 1.43648,-1.624719 h 6.46418 c 0.79385,0 1.43648,0.755683 1.43648,1.624719 v 43.338453 c 0,0.86904 -0.64264,1.62472 -1.43648,1.62472 z"
       id="path3-0" />
    <path
       style="fill:#860626;fill-opacity:1;fill-rule:evenodd;stroke:none"
       d="M 58.057597,30.38905 H 42.067256 c -0.793846,0 -1.436484,-0.755683 -1.436484,-1.624719 0,-0.906821 0.642638,-1.662504 1.436484,-1.662504 h 15.990341 c 0.79384,0 1.43648,0.755683 1.43648,1.662504 0,0.869036 -0.64264,1.624719 -1.43648,1.624719 z"
       id="path4-8" />
    <path
       style="fill:#860626;fill-opacity:1;fill-rule:evenodd;stroke:none"
       d="M 58.057597,38.966061 H 42.067256 c -0.793846,0 -1.436484,-0.755686 -1.436484,-1.624722 0,-0.90682 0.642638,-1.662504 1.436484,-1.662504 h 15.990341 c 0.79384,0 1.43648,0.755684 1.43648,1.662504 0,0.869036 -0.64264,1.624722 -1.43648,1.624722 z"
       id="path5-7" />
    <path
       style="fill:#860626;fill-opacity:1;fill-rule:evenodd;stroke:none"
       d="M 58.057597,47.580851 H 42.067256 c -0.793846,0 -1.436484,-0.75568 -1.436484,-1.6625 0,-0.90682 0.642638,-1.62472 1.436484,-1.62472 h 15.990341 c 0.79384,0 1.43648,0.7179 1.43648,1.62472 0,0.90682 -0.64264,1.6625 -1.43648,1.6625 z"
       id="path6-7" />
    <path
       style="fill:#860626;fill-opacity:1;fill-rule:evenodd;stroke:none"
       d="M 58.057597,56.157861 H 42.067256 c -0.793846,0 -1.436484,-0.75568 -1.436484,-1.62472 0,-0.90682 0.642638,-1.6625 1.436484,-1.6625 h 15.990341 c 0.79384,0 1.43648,0.75568 1.43648,1.6625 0,0.86904 -0.64264,1.62472 -1.43648,1.62472 z"
       id="path7-8" />
    <path
       style="fill:#860626;fill-opacity:1;fill-rule:evenodd;stroke:none"
       d="M 29.932745,30.38905 H 13.942409 c -0.793847,0 -1.436484,-0.755683 -1.436484,-1.624719 0,-0.906821 0.642637,-1.662504 1.436484,-1.662504 h 15.990336 c 0.793847,0 1.474287,0.755683 1.474287,1.662504 0,0.869036 -0.68044,1.624719 -1.474287,1.624719 z"
       id="path8-3" />
    <path
       style="fill:#860626;fill-opacity:1;fill-rule:evenodd;stroke:none"
       d="M 29.932745,38.966061 H 13.942409 c -0.793847,0 -1.436484,-0.755686 -1.436484,-1.624722 0,-0.90682 0.642637,-1.662504 1.436484,-1.662504 h 15.990336 c 0.793847,0 1.474287,0.755684 1.474287,1.662504 0,0.869036 -0.68044,1.624722 -1.474287,1.624722 z"
       id="path9-8" />
    <path
       style="fill:#860626;fill-opacity:1;fill-rule:evenodd;stroke:none"
       d="M 29.932745,47.580851 H 13.942409 c -0.793847,0 -1.436484,-0.75568 -1.436484,-1.6625 0,-0.90682 0.642637,-1.62472 1.436484,-1.62472 h 15.990336 c 0.793847,0 1.474287,0.7179 1.474287,1.62472 0,0.90682 -0.68044,1.6625 -1.474287,1.6625 z"
       id="path10-3" />
    <path
       style="fill:#860626;fill-opacity:1;fill-rule:evenodd;stroke:none"
       d="M 29.932745,56.157861 H 13.942409 c -0.793847,0 -1.436484,-0.75568 -1.436484,-1.62472 0,-0.90682 0.642637,-1.6625 1.436484,-1.6625 h 15.990336 c 0.793847,0 1.474287,0.75568 1.474287,1.6625 0,0.86904 -0.68044,1.62472 -1.474287,1.62472 z"
       id="path11-7" />
    <path
       style="fill:#860626;fill-opacity:1;fill-rule:evenodd;stroke:none"
       d="M 66.260677,13.159465 H 10.086583 c -0.226813,0 -0.453627,-0.07557 -0.68044,-0.188921 L 0.787238,8.0586 C 0.295809,7.756327 -0.006608,7.189564 -0.006608,6.585018 c 0,-0.604547 0.302417,-1.17131 0.793846,-1.435799 L 9.443945,0.199491 C 9.632956,0.086139 9.85977,0.01057 10.086583,0.01057 v 0 h 56.174094 c 3.06198,0 5.55692,2.720461 5.74593,6.158821 v 0.869037 c -0.18901,3.400576 -2.68395,6.121037 -5.74593,6.121037 z M 10.426803,9.872241 h 55.833874 c 1.58769,0 2.87296,-1.473583 2.87296,-3.287223 0,-1.813641 -1.28527,-3.287224 -2.87296,-3.287224 H 10.426803 L 4.643064,6.585018 Z"
       id="path12-1" />
    <path
       style="fill:#860626;fill-opacity:1;fill-rule:evenodd;stroke:none"
       d="m 10.086583,13.12168 c -0.378022,0 -0.756044,-0.151136 -1.02066,-0.45341 -0.567033,-0.642331 -0.567033,-1.700288 0,-2.304835 0.869451,-1.020172 1.36088,-2.342619 1.36088,-3.740633 0,-1.435799 -0.491429,-2.758245 -1.36088,-3.778418 -0.567033,-0.642331 -0.567033,-1.662504 0,-2.304835 0.567033,-0.642331 1.474287,-0.642331 2.003518,0 1.436484,1.62472 2.23033,3.778418 2.23033,6.083253 0,2.304835 -0.793846,4.458533 -2.23033,6.083252 -0.226814,0.302274 -0.642638,0.453411 -0.982858,0.453411 z"
       id="path13-0" />
    <path
       style="fill:#860626;fill-opacity:1;fill-rule:evenodd;stroke:none"
       d="m 58.057597,13.159465 c -0.75605,0 -1.43649,-0.755684 -1.43649,-1.662504 V 1.673074 c 0,-0.90682 0.68044,-1.662504 1.43649,-1.662504 0.79384,0 1.43648,0.755684 1.43648,1.662504 v 9.823887 c 0,0.90682 -0.64264,1.662504 -1.43648,1.662504 z"
       id="path14-7" />
  </g>
</svg>
