<?xml version="1.0" encoding="UTF-8" standalone="no"?>
<!-- Created with Inkscape (http://www.inkscape.org/) -->

<svg
   width="72"
   height="72"
   viewBox="0 0 72 72"
   version="1.1"
   id="svg1"
   xmlns="http://www.w3.org/2000/svg"
   xmlns:svg="http://www.w3.org/2000/svg">
  <defs
     id="defs1" />
  <g
     id="layer1">
    <path
       style="fill:#860626;fill-opacity:1;fill-rule:evenodd;stroke:none"
       d="m 18.100651,68.588856 c -3.93143,0 -7.636047,-1.51137 -10.395609,-4.3074 C 4.94548,61.523216 3.39559,57.820366 3.39559,53.928596 V 10.136729 h 2.494946 v 43.791867 c 0,3.24944 1.285275,6.30995 3.553408,8.61479 2.305935,2.26705 5.367914,3.55171 8.618905,3.55171 h 43.850568 v 2.49376 z"
       id="path1-6" />
    <path
       style="fill:#860626;fill-opacity:1;fill-rule:evenodd;stroke:none"
       d="m 22.561312,59.634006 c -2.721759,0 -5.29231,-1.05796 -7.220223,-2.98495 -1.927912,-1.927 -2.986374,-4.49632 -2.986374,-7.216781 V 13.612874 c 0,-2.720461 1.058462,-5.289785 2.986374,-7.216779 1.927913,-1.926993 4.498464,-2.98495 7.220223,-2.98495 h 35.874302 c 1.323077,0 2.646155,0.26449 3.893628,0.755684 1.247473,0.528979 2.343737,1.284662 3.288792,2.229266 0.945056,0.944605 1.7011,2.040346 2.230331,3.325008 0.491429,1.209094 0.756044,2.53154 0.756044,3.891771 v 35.819401 c 0,2.720461 -1.058462,5.289781 -2.986375,7.216781 -1.89011,1.92699 -4.460661,2.98495 -7.18242,2.98495 z M 27.4756,31.975985 c -0.869451,0 -1.663297,0.302273 -2.268133,0.90682 L 14.849661,43.23567 v 6.234389 c 0,2.040347 0.831648,3.967337 2.268133,5.440927 1.436484,1.43579 3.402199,2.26705 5.443518,2.26705 h 35.8365 c 2.041319,0 3.969232,-0.83126 5.443518,-2.26705 1.436485,-1.47359 2.268133,-3.40058 2.268133,-5.440927 v -6.083252 l -9.639564,-6.083253 c -0.529231,-0.340058 -1.096265,-0.491194 -1.7011,-0.491194 -0.113407,0 -0.264616,0 -0.378022,0 -0.718242,0.07557 -1.436484,0.415625 -1.927913,0.944604 L 49.854511,40.364072 48.115609,38.626 50.610555,36.09446 c 0.945056,-0.944604 2.154727,-1.549151 3.440002,-1.700288 0.226813,0 0.453626,-0.03778 0.642638,-0.03778 1.134066,0 2.192528,0.302273 3.099781,0.90682 l 8.278685,5.176433 0.0378,-26.826767 c 0,-2.040346 -0.831648,-3.967339 -2.268133,-5.440922 C 62.404846,6.736153 60.476933,5.904901 58.397812,5.904901 h -35.8365 c -2.041319,0 -3.969232,0.831252 -5.443518,2.267051 -1.436485,1.435799 -2.268133,3.400576 -2.268133,5.440922 v 26.033299 l 8.581102,-8.425872 c 1.058462,-1.057957 2.457144,-1.662504 3.931431,-1.700288 H 27.4756 c 1.436484,0 2.835166,0.528979 3.855826,1.511367 L 49.6655,49.356707 47.926598,51.094776 29.705931,32.882805 c -0.604836,-0.604547 -1.436484,-0.90682 -2.268133,-0.90682 z"
       id="path2-5" />
    <path
       style="fill:#860626;fill-opacity:1;fill-rule:evenodd;stroke:none"
       d="m 44.410992,28.915466 c -0.567033,0 -1.171868,-0.07557 -1.738902,-0.188921 -1.738901,-0.340057 -3.326594,-1.171309 -4.574068,-2.418187 -1.247473,-1.246878 -2.116924,-2.833814 -2.457143,-4.571886 -0.34022,-1.738072 -0.151209,-3.513928 0.529231,-5.138648 0.680439,-1.662504 1.814506,-3.022735 3.288792,-4.005123 1.474287,-0.982389 3.175386,-1.511367 4.95209,-1.511367 2.38154,0 4.61187,0.944604 6.31297,2.607108 1.663297,1.700288 2.608353,3.929555 2.608353,6.309958 0,1.775856 -0.529231,3.476144 -1.512089,4.949727 -0.945055,1.473583 -2.343737,2.607109 -3.969232,3.287224 -1.096264,0.45341 -2.268133,0.680115 -3.440002,0.680115 z m 0,-15.264808 c -0.415824,0 -0.831648,0.03778 -1.247473,0.113352 -1.247473,0.26449 -2.381539,0.869037 -3.288792,1.775857 -0.907254,0.90682 -1.512089,2.040345 -1.776705,3.287223 -0.226813,1.246878 -0.113406,2.53154 0.378023,3.70285 0.491428,1.171309 1.323077,2.191482 2.381539,2.871597 1.058462,0.7179 2.305935,1.095742 3.553408,1.095742 1.738902,0 3.326595,-0.680116 4.536266,-1.889209 1.209671,-1.209094 1.890111,-2.833814 1.890111,-4.534102 0,-1.284662 -0.378022,-2.53154 -1.096265,-3.589497 -0.680439,-1.057957 -1.701099,-1.851424 -2.872968,-2.342619 -0.756044,-0.340057 -1.587693,-0.491194 -2.457144,-0.491194 z"
       id="path3-1" />
  </g>
</svg>
