<?xml version="1.0" encoding="UTF-8" standalone="no"?>
<!-- Created with Inkscape (http://www.inkscape.org/) -->

<svg
   width="72"
   height="72"
   viewBox="0 0 72 72"
   version="1.1"
   id="svg1"
   xmlns="http://www.w3.org/2000/svg"
   xmlns:svg="http://www.w3.org/2000/svg">
  <defs
     id="defs1" />
  <g
     id="layer1">
    <path
       style="fill:#860626;fill-opacity:1;fill-rule:evenodd;stroke:none"
       d="m 62.593858,28.329811 c -0.07561,0 -0.189011,-0.03778 -0.264616,-0.03778 H 42.48308 c -0.113407,0 -0.189011,0.03778 -0.302418,0.03778 -0.642638,0.151137 -1.134067,0.7179 -1.134067,1.435799 v 12.242075 c 0,0.793467 0.642638,1.435799 1.436485,1.435799 h 19.846162 c 0.793847,0 1.398682,-0.642331 1.398682,-1.435799 V 29.76561 c 0,-0.717899 -0.453627,-1.284662 -1.134066,-1.435799 z m -1.7011,12.242074 H 43.919564 V 31.20141 h 16.973194 z"
       id="path1-4" />
    <path
       style="fill:#860626;fill-opacity:1;fill-rule:evenodd;stroke:none"
       d="m 29.063294,28.329811 c -0.113407,0 -0.189012,-0.03778 -0.302418,-0.03778 H 8.9147133 c -0.075604,0 -0.1890111,0.03778 -0.2646155,0.03778 -0.6804399,0.151137 -1.1340664,0.7179 -1.1340664,1.435799 v 12.242075 c 0,0.793467 0.6048354,1.435799 1.3986819,1.435799 H 28.760876 c 0.793846,0 1.436484,-0.642331 1.436484,-1.435799 V 29.76561 c 0,-0.717899 -0.491429,-1.284662 -1.134066,-1.435799 z M 27.324392,40.571885 H 10.351197 V 31.20141 h 16.973195 z"
       id="path2-3" />
    <path
       style="fill:#860626;fill-opacity:1;fill-rule:evenodd;stroke:none"
       d="m -0.006609,36.982388 c 0,-0.07557 0.0378,-0.188921 0.0756,-0.226705 l 2.1925286,-2.191482 c 0,0 0.1512088,-0.113353 0.2268133,-0.113353 0.075604,0 0.1512088,0.03778 0.189011,0.113353 0.075604,0.03778 0.1134067,0.113352 0.1134067,0.188921 0,0.07557 -0.037802,0.151136 -0.1134067,0.18892 l -1.9657151,2.040346 1.9657151,2.002562 c 0,0 0.1134067,0.113352 0.1134067,0.18892 0,0.07557 -0.037802,0.151137 -0.1134067,0.226706 -0.037802,0.03778 -0.1134066,0.07557 -0.189011,0.07557 -0.075604,0 -0.1512089,-0.03778 -0.2268133,-0.07557 L 0.068991,37.171309 c 0,0 -0.0756,-0.113352 -0.0756,-0.188921 z"
       id="path3-8" />
    <path
       style="fill:#205578;fill-opacity:1;fill-rule:evenodd;stroke:none"
       d="m 71.931005,11.553636 c 0,0.831252 -0.68044,1.549151 -1.512089,1.549151 H 1.6188859 c -0.8316487,0 -1.5120889,-0.717899 -1.5120889,-1.549151 0,-0.869036 0.6804402,-1.549152 1.5120889,-1.549152 H 70.418916 c 0.831649,0 1.512089,0.680117 1.512089,1.549152 z"
       id="path4-0" />
    <path
       style="fill:#860626;fill-opacity:1;fill-rule:evenodd;stroke:none"
       d="m 72.006609,36.566762 c 0,0.07557 -0.0378,0.151137 -0.0756,0.188921 L 69.73848,38.98495 c 0,0 -0.151209,0.07557 -0.226813,0.07557 -0.0756,0 -0.151209,-0.03778 -0.189011,-0.07557 -0.0378,-0.07557 -0.07561,-0.151137 -0.07561,-0.226705 0,-0.07557 0,-0.151137 0.07561,-0.188921 l 2.003517,-2.002562 -2.003517,-2.002561 c 0,0 -0.07561,-0.151137 -0.07561,-0.226705 0,-0.07557 0,-0.151137 0.07561,-0.188921 0.0378,-0.07557 0.113406,-0.113353 0.189011,-0.113353 0.0756,0 0.151209,0.03778 0.226813,0.113353 l 2.192529,2.191482 c 0,0 0.0756,0.151137 0.0756,0.226705 z"
       id="path5-8" />
    <path
       style="fill:#860626;fill-opacity:1;fill-rule:evenodd;stroke:none"
       d="m 71.8554,60.446363 c 0,0.869036 -0.68044,1.549153 -1.512088,1.549153 H 1.5432815 c -0.8316487,0 -1.5120885,-0.680116 -1.5120885,-1.549153 0,-0.831252 0.6804398,-1.54915 1.5120885,-1.54915 H 70.343312 c 0.831648,0 1.512088,0.717899 1.512088,1.54915 z"
       id="path6-8" />
    <path
       style="fill:#860626;fill-opacity:1;fill-rule:evenodd;stroke:none"
       d="m 71.8554,11.553636 c 0,0.831252 -0.68044,1.549151 -1.512088,1.549151 H 1.5432815 c -0.8316487,0 -1.5120885,-0.717899 -1.5120885,-1.549151 0,-0.869036 0.6804398,-1.549152 1.5120885,-1.549152 H 70.343312 c 0.831648,0 1.512088,0.680117 1.512088,1.549152 z"
       id="path7-0" />
    <path
       style="fill:#860626;fill-opacity:1;fill-rule:evenodd;stroke:none"
       d="m 71.8554,51.64265 c 0,0.869036 -0.68044,1.549151 -1.512088,1.549151 H 1.5432815 c -0.8316487,0 -1.5120885,-0.680115 -1.5120885,-1.549151 0,-0.831252 0.6804398,-1.511368 1.5120885,-1.511368 H 70.343312 c 0.831648,0 1.512088,0.680116 1.512088,1.511368 z"
       id="path8-6" />
    <path
       style="fill:#860626;fill-opacity:1;fill-rule:evenodd;stroke:none"
       d="m 71.8554,20.357349 c 0,0.831252 -0.68044,1.511369 -1.512088,1.511369 H 1.5432815 c -0.8316487,0 -1.5120885,-0.680117 -1.5120885,-1.511369 0,-0.869036 0.6804398,-1.54915 1.5120885,-1.54915 H 70.343312 c 0.831648,0 1.512088,0.680115 1.512088,1.54915 z"
       id="path9-8" />
  </g>
</svg>
