<?xml version="1.0" encoding="UTF-8" standalone="no"?>
<!-- Created with Inkscape (http://www.inkscape.org/) -->

<svg
   width="72"
   height="72"
   viewBox="0 0 72 72"
   version="1.1"
   id="svg1"
   xmlns="http://www.w3.org/2000/svg"
   xmlns:svg="http://www.w3.org/2000/svg">
  <defs
     id="defs1" />
  <g
     id="layer1">
    <path
       style="fill:#860626;fill-opacity:1;fill-rule:evenodd;stroke:none"
       d="M 48.115611,12.913868 H 28.874283 c -0.604835,0 -1.096264,-0.491194 -1.096264,-1.057957 0,-0.604546 0.491429,-1.057957 1.096264,-1.057957 h 19.241328 c 0.604835,0 1.096264,0.453411 1.096264,1.057957 0,0.566763 -0.491429,1.057957 -1.096264,1.057957 z"
       id="path1-9" />
    <path
       style="fill:#860626;fill-opacity:1;fill-rule:evenodd;stroke:none"
       d="M 68.680017,23.606791 H 3.319987 c -1.814507,0 -3.326595,-1.473583 -3.326595,-3.287223 v -6.23439 c 0,-1.813641 1.512088,-3.287224 3.326595,-3.287224 h 7.144618 c 0.604836,0 1.058462,0.453411 1.058462,1.057957 0,0.566763 -0.453626,1.057957 -1.058462,1.057957 H 3.319987 c -0.642638,0 -1.171869,0.528979 -1.171869,1.17131 v 6.23439 c 0,0.642331 0.529231,1.133525 1.171869,1.133525 h 65.36003 c 0.64264,0 1.17187,-0.491194 1.17187,-1.133525 v -6.23439 c 0,-0.642331 -0.52923,-1.17131 -1.17187,-1.17131 h -7.14462 c -0.56703,0 -1.05846,-0.491194 -1.05846,-1.057957 0,-0.604546 0.49143,-1.057957 1.05846,-1.057957 h 7.14462 c 1.85231,0 3.32659,1.473583 3.32659,3.287224 v 6.23439 c 0,1.81364 -1.47428,3.287223 -3.32659,3.287223 z"
       id="path2-7" />
    <path
       style="fill:#860626;fill-opacity:1;fill-rule:evenodd;stroke:none"
       d="m 20.10417,12.913868 h -5.859343 c -0.604836,0 -1.096265,-0.491194 -1.096265,-1.057957 0,-0.604546 0.491429,-1.057957 1.096265,-1.057957 h 5.859343 c 0.604835,0 1.058462,0.453411 1.058462,1.057957 0,0.566763 -0.453627,1.057957 -1.058462,1.057957 z"
       id="path3-2" />
    <path
       style="fill:#860626;fill-opacity:1;fill-rule:evenodd;stroke:none"
       d="m 57.755177,12.913868 h -5.821543 c -0.604835,0 -1.096264,-0.491194 -1.096264,-1.057957 0,-0.604546 0.491429,-1.057957 1.096264,-1.057957 h 5.821543 c 0.60483,0 1.09626,0.453411 1.09626,1.057957 0,0.566763 -0.49143,1.057957 -1.09626,1.057957 z"
       id="path4-2" />
    <path
       style="fill:#860626;fill-opacity:1;fill-rule:evenodd;stroke:none"
       d="M 3.622404,66.49183 V 22.548834 c 0,-0.604547 0.491429,-1.095741 1.096264,-1.095741 h 62.562669 c 0.60483,0 1.09626,0.491194 1.09626,1.095741 V 66.49183 h -2.15473 V 23.606791 H 5.814933 V 66.49183 Z"
       id="path5-8" />
    <path
       style="fill:#860626;fill-opacity:1;fill-rule:evenodd;stroke:none"
       d="M 62.367047,65.66058 H 27.778019 c -0.604835,0 -1.096264,-0.49119 -1.096264,-1.09574 0,-0.56676 0.491429,-1.05796 1.096264,-1.05796 H 61.270777 V 28.48095 H 10.729221 v 35.02593 h 12.096708 c 0.604836,0 1.096264,0.4912 1.096264,1.05796 0,0.60455 -0.491428,1.09574 -1.096264,1.09574 H 9.632956 c -0.604835,0 -1.058462,-0.49119 -1.058462,-1.09574 V 27.385209 c 0,-0.566763 0.453627,-1.057957 1.058462,-1.057957 h 52.734091 c 0.60483,0 1.09626,0.491194 1.09626,1.057957 V 64.56484 c 0,0.60455 -0.49143,1.09574 -1.09626,1.09574 z"
       id="path6-2" />
    <path
       style="fill:#860626;fill-opacity:1;fill-rule:evenodd;stroke:none"
       d="m 12.354716,18.203653 c -1.663298,0 -2.986375,-1.322446 -2.986375,-2.947165 V 8.455335 c 0,-1.624719 1.323077,-2.947166 2.986375,-2.947166 1.625495,0 2.986375,1.322447 2.986375,2.947166 v 6.801153 c 0,1.624719 -1.36088,2.947165 -2.986375,2.947165 z m 0,-10.541785 c -0.453627,0 -0.831649,0.340057 -0.831649,0.793467 v 6.801153 c 0,0.45341 0.378022,0.793467 0.831649,0.793467 0.453626,0 0.831649,-0.340057 0.831649,-0.793467 V 8.455335 c 0,-0.45341 -0.378023,-0.793467 -0.831649,-0.793467 z"
       id="path7-8" />
    <path
       style="fill:#860626;fill-opacity:1;fill-rule:evenodd;stroke:none"
       d="m 21.99428,18.203653 c -1.663297,0 -2.986374,-1.322446 -2.986374,-2.947165 V 8.455335 c 0,-1.624719 1.323077,-2.947166 2.986374,-2.947166 1.625496,0 2.986375,1.322447 2.986375,2.947166 v 6.801153 c 0,1.624719 -1.360879,2.947165 -2.986375,2.947165 z m 0,-10.541785 c -0.453626,0 -0.831648,0.340057 -0.831648,0.793467 v 6.801153 c 0,0.45341 0.378022,0.793467 0.831648,0.793467 0.453627,0 0.831649,-0.340057 0.831649,-0.793467 V 8.455335 c 0,-0.45341 -0.378022,-0.793467 -0.831649,-0.793467 z"
       id="path8-9" />
    <path
       style="fill:#860626;fill-opacity:1;fill-rule:evenodd;stroke:none"
       d="m 50.005721,18.203653 c -1.625495,0 -2.986375,-1.322446 -2.986375,-2.947165 V 8.455335 c 0,-1.624719 1.36088,-2.947166 2.986375,-2.947166 1.663298,0 2.986375,1.322447 2.986375,2.947166 v 6.801153 c 0,1.624719 -1.323077,2.947165 -2.986375,2.947165 z m 0,-10.541785 c -0.453626,0 -0.793846,0.340057 -0.793846,0.793467 v 6.801153 c 0,0.45341 0.34022,0.793467 0.793846,0.793467 0.453627,0 0.831649,-0.340057 0.831649,-0.793467 V 8.455335 c 0,-0.45341 -0.378022,-0.793467 -0.831649,-0.793467 z"
       id="path9-0" />
    <path
       style="fill:#860626;fill-opacity:1;fill-rule:evenodd;stroke:none"
       d="m 59.645287,18.203653 c -1.6255,0 -2.98638,-1.322446 -2.98638,-2.947165 V 8.455335 c 0,-1.624719 1.36088,-2.947166 2.98638,-2.947166 1.6633,0 2.98637,1.322447 2.98637,2.947166 v 6.801153 c 0,1.624719 -1.32307,2.947165 -2.98637,2.947165 z m 0,-10.541785 c -0.45363,0 -0.79385,0.340057 -0.79385,0.793467 v 6.801153 c 0,0.45341 0.34022,0.793467 0.79385,0.793467 0.45363,0 0.83165,-0.340057 0.83165,-0.793467 V 8.455335 c 0,-0.45341 -0.37802,-0.793467 -0.83165,-0.793467 z"
       id="path10-7" />
    <path
       style="fill:#860626;fill-opacity:1;fill-rule:evenodd;stroke:none"
       d="m 22.825929,65.66058 c -0.604835,0 -1.096264,-0.49119 -1.096264,-1.09574 V 52.70061 c 0,-0.60455 0.491429,-1.09574 1.096264,-1.09574 0.604836,0 1.096264,0.49119 1.096264,1.09574 v 11.86423 c 0,0.60455 -0.491428,1.09574 -1.096264,1.09574 z"
       id="path11-8" />
    <path
       style="fill:#860626;fill-opacity:1;fill-rule:evenodd;stroke:none"
       d="m 22.825929,40.34518 c -0.604835,0 -1.096264,-0.45341 -1.096264,-1.05796 V 27.385209 c 0,-0.566763 0.491429,-1.057957 1.096264,-1.057957 0.604836,0 1.096264,0.491194 1.096264,1.057957 V 39.28722 c 0,0.60455 -0.491428,1.05796 -1.096264,1.05796 z"
       id="path12-1" />
    <path
       style="fill:#860626;fill-opacity:1;fill-rule:evenodd;stroke:none"
       d="m 36.018902,65.66058 c -0.604835,0 -1.096264,-0.49119 -1.096264,-1.09574 V 52.58726 c 0,-0.60455 0.491429,-1.05796 1.096264,-1.05796 0.567033,0 1.058462,0.45341 1.058462,1.05796 v 11.97758 c 0,0.60455 -0.491429,1.09574 -1.058462,1.09574 z"
       id="path13-5" />
    <path
       style="fill:#860626;fill-opacity:1;fill-rule:evenodd;stroke:none"
       d="m 36.018902,40.45854 c -0.604835,0 -1.096264,-0.4912 -1.096264,-1.09575 V 27.385209 c 0,-0.566763 0.491429,-1.057957 1.096264,-1.057957 0.567033,0 1.058462,0.491194 1.058462,1.057957 V 39.36279 c 0,0.60455 -0.491429,1.09575 -1.058462,1.09575 z"
       id="path14-8" />
    <path
       style="fill:#860626;fill-opacity:1;fill-rule:evenodd;stroke:none"
       d="m 49.174073,65.66058 c -0.604836,0 -1.058462,-0.49119 -1.058462,-1.09574 V 27.385209 c 0,-0.566763 0.453626,-1.057957 1.058462,-1.057957 0.604835,0 1.096264,0.491194 1.096264,1.057957 V 64.56484 c 0,0.60455 -0.491429,1.09574 -1.096264,1.09574 z"
       id="path15-6" />
    <path
       style="fill:#860626;fill-opacity:1;fill-rule:evenodd;stroke:none"
       d="M 62.367047,40.83638 H 36.396924 c -0.604835,0 -1.096264,-0.45341 -1.096264,-1.05796 0,-0.56676 0.491429,-1.05796 1.096264,-1.05796 h 25.970123 c 0.60483,0 1.09626,0.4912 1.09626,1.05796 0,0.60455 -0.49143,1.05796 -1.09626,1.05796 z"
       id="path16-1" />
    <path
       style="fill:#860626;fill-opacity:1;fill-rule:evenodd;stroke:none"
       d="M 22.3345,40.83638 H 9.632956 c -0.604835,0 -1.058462,-0.45341 -1.058462,-1.05796 0,-0.56676 0.453627,-1.05796 1.058462,-1.05796 H 22.3345 c 0.604836,0 1.058462,0.4912 1.058462,1.05796 0,0.60455 -0.453626,1.05796 -1.058462,1.05796 z"
       id="path17-2" />
    <path
       style="fill:#860626;fill-opacity:1;fill-rule:evenodd;stroke:none"
       d="M 62.367047,53.22959 H 36.396924 c -0.604835,0 -1.096264,-0.45341 -1.096264,-1.05796 0,-0.60455 0.491429,-1.05796 1.096264,-1.05796 h 25.970123 c 0.60483,0 1.09626,0.45341 1.09626,1.05796 0,0.60455 -0.49143,1.05796 -1.09626,1.05796 z"
       id="path18" />
    <path
       style="fill:#860626;fill-opacity:1;fill-rule:evenodd;stroke:none"
       d="M 22.3345,53.22959 H 9.632956 c -0.604835,0 -1.058462,-0.45341 -1.058462,-1.05796 0,-0.60455 0.453627,-1.05796 1.058462,-1.05796 H 22.3345 c 0.604836,0 1.058462,0.45341 1.058462,1.05796 0,0.60455 -0.453626,1.05796 -1.058462,1.05796 z"
       id="path19" />
    <path
       style="fill:#860626;fill-opacity:1;fill-rule:evenodd;stroke:none"
       d="m 29.365712,56.36567 c -5.821541,0 -10.509015,-4.64745 -10.509015,-10.39064 0,-5.70542 4.687474,-10.35287 10.509015,-10.35287 5.783739,0 10.509016,4.64745 10.509016,10.35287 0,5.74319 -4.725277,10.39064 -10.509016,10.39064 z m 0,-18.6276 c -4.61187,0 -8.354289,3.70285 -8.354289,8.23696 0,4.57188 3.742419,8.23695 8.354289,8.23695 4.61187,0 8.35429,-3.66507 8.35429,-8.23695 0,-4.53411 -3.74242,-8.23696 -8.35429,-8.23696 z"
       id="path20" />
    <path
       style="fill:#860626;fill-opacity:1;fill-rule:evenodd;stroke:none"
       d="m 28.382855,49.98015 c -0.302418,0 -0.567034,-0.11335 -0.793847,-0.30228 l -2.683957,-2.64489 c -0.415824,-0.41562 -0.415824,-1.09574 0,-1.51137 0.453627,-0.41562 1.134066,-0.41562 1.549891,0 l 1.965715,1.927 4.158243,-3.51393 c 0.453627,-0.37784 1.171869,-0.34006 1.549891,0.11335 0.378022,0.45341 0.34022,1.13353 -0.113406,1.51137 l -4.95209,4.15626 c -0.189012,0.18892 -0.453627,0.26449 -0.718243,0.26449 z"
       id="path21" />
    <path
       style="fill:#860626;fill-opacity:1;fill-rule:evenodd;stroke:none"
       d="m 57.036937,34.904261 h -2.419346 c -0.567033,0 -1.058462,-0.491195 -1.058462,-1.057957 0,-0.604547 0.491429,-1.057957 1.058462,-1.057957 h 2.419346 c 0.60483,0 1.05846,0.45341 1.05846,1.057957 0,0.566762 -0.45363,1.057957 -1.05846,1.057957 z"
       id="path22" />
    <path
       style="fill:#860626;fill-opacity:1;fill-rule:evenodd;stroke:none"
       d="m 43.806158,59.46398 h -2.419342 c -0.604835,0 -1.058462,-0.4912 -1.058462,-1.09574 0,-0.56677 0.453627,-1.05796 1.058462,-1.05796 h 2.419342 c 0.604836,0 1.058462,0.49119 1.058462,1.05796 0,0.60454 -0.453626,1.09574 -1.058462,1.09574 z"
       id="path23" />
  </g>
</svg>
