<?xml version="1.0" encoding="UTF-8" standalone="no"?>
<!-- Created with Inkscape (http://www.inkscape.org/) -->

<svg
   width="72"
   height="72"
   viewBox="0 0 72 72"
   version="1.1"
   id="svg1"
   inkscape:export-filename="Documents\ICON\Staff Attendance Management.svg"
   inkscape:export-xdpi="96"
   inkscape:export-ydpi="96"
   inkscape:version="1.4.2 (f4327f4, 2025-05-13)"
   sodipodi:docname="Icon72.svg"
   xmlns:inkscape="http://www.inkscape.org/namespaces/inkscape"
   xmlns:sodipodi="http://sodipodi.sourceforge.net/DTD/sodipodi-0.dtd"
   xmlns="http://www.w3.org/2000/svg"
   xmlns:svg="http://www.w3.org/2000/svg">
  <sodipodi:namedview
     id="namedview1"
     pagecolor="#ffffff"
     bordercolor="#000000"
     borderopacity="0.25"
     inkscape:showpageshadow="2"
     inkscape:pageopacity="0.0"
     inkscape:pagecheckerboard="0"
     inkscape:deskcolor="#d1d1d1"
     inkscape:document-units="px"
     inkscape:zoom="5.9767586"
     inkscape:cx="53.206098"
     inkscape:cy="44.422072"
     inkscape:window-width="1440"
     inkscape:window-height="837"
     inkscape:window-x="-8"
     inkscape:window-y="-8"
     inkscape:window-maximized="1"
     inkscape:current-layer="layer1">
    <inkscape:page
       x="0"
       y="0"
       width="72"
       height="72"
       id="page2"
       margin="0"
       bleed="0" />
  </sodipodi:namedview>
  <defs
     id="defs1" />
  <g
     inkscape:label="Layer 1"
     inkscape:groupmode="layer"
     id="layer1">
    <path
       style="fill:#860626;fill-opacity:1;fill-rule:evenodd;stroke:none"
       d="m 68.642218,48.37432 h -2.26814 v -3.40058 c 0,-1.17131 -0.45362,-2.30484 -1.32307,-3.17387 -0.83165,-0.83125 -1.96572,-1.32245 -3.17539,-1.32245 h -6.7288 c -1.20966,0 -2.34373,0.4912 -3.21318,1.32245 -0.83165,0.86903 -1.28528,2.00256 -1.28528,3.17387 v 3.40058 h -2.26813 c -0.907254,0 -1.738903,0.34005 -2.38154,0.98238 -0.642638,0.64234 -0.982858,1.47359 -0.982858,2.38041 v 13.48895 c 0,0.90682 0.34022,1.77586 0.982858,2.3804 0.642637,0.64233 1.474286,1.02018 2.38154,1.02018 h 20.26199 c 0.86945,0 1.7389,-0.37785 2.38154,-1.02018 0.64263,-0.60454 0.98285,-1.47358 0.98285,-2.3804 V 51.73711 c 0,-0.90682 -0.34022,-1.73807 -0.98285,-2.38041 -0.64264,-0.64233 -1.51209,-0.98238 -2.38154,-0.98238 z m -15.76353,-3.40058 c 0,-0.56676 0.22682,-1.13353 0.68044,-1.58694 0.41583,-0.41562 0.98286,-0.64233 1.5877,-0.64233 h 6.72879 c 0.60484,0 1.17187,0.22671 1.58769,0.64233 0.41583,0.45341 0.68044,1.02018 0.68044,1.58694 v 3.40058 h -1.13406 v -3.40058 c 0,-0.26449 -0.11341,-0.56676 -0.34022,-0.79347 -0.18901,-0.18892 -0.49143,-0.30227 -0.79385,-0.30227 h -6.72879 c -0.30242,0 -0.60484,0.11335 -0.79385,0.30227 -0.22681,0.22671 -0.34022,0.52898 -0.34022,0.79347 v 3.40058 h -1.13407 z m 7.86286,3.40058 h -4.49846 v -2.26705 h 4.49846 z m -12.36132,2.22926 h 20.26199 c 0.30241,0 0.56703,0.11336 0.79384,0.34006 0.18901,0.22671 0.34022,0.49119 0.34022,0.79347 v 2.53154 l -7.90066,2.11591 V 55.0999 c 0,-0.30227 -0.11341,-0.56676 -0.34022,-0.79347 -0.18901,-0.18892 -0.49143,-0.30227 -0.79385,-0.30227 h -4.49846 c -0.30242,0 -0.56703,0.11335 -0.79385,0.30227 -0.18901,0.22671 -0.30242,0.4912 -0.30242,0.79347 v 1.28466 l -7.900657,-2.11591 v -2.53154 c 0,-0.30228 0.113406,-0.56676 0.34022,-0.79347 0.226817,-0.2267 0.491427,-0.34006 0.793847,-0.34006 z m 11.26506,5.62985 v 3.36279 h -2.26813 v -3.36279 z m 8.99693,10.12616 h -20.26199 c -0.30242,0 -0.56703,-0.11336 -0.793847,-0.34006 -0.226814,-0.18892 -0.34022,-0.4912 -0.34022,-0.79347 v -8.65258 l 7.900657,2.1537 v 2.00256 c 0,0.30228 0.11341,0.60455 0.30242,0.79347 0.22682,0.22671 0.49143,0.34006 0.79385,0.34006 h 4.49846 c 0.30242,0 0.60484,-0.11335 0.79385,-0.34006 0.22681,-0.18892 0.34022,-0.49119 0.34022,-0.79347 v -2.00256 l 7.90066,-2.1537 v 8.65258 c 0,0.30227 -0.15121,0.60455 -0.34022,0.79347 -0.22681,0.2267 -0.49143,0.34006 -0.79384,0.34006 z"
       id="path1-8" />
    <path
       style="fill:#860626;fill-opacity:1;fill-rule:evenodd;stroke:none"
       d="M 41.613631,57.36695 H 5.625923 c -0.907254,0 -1.738902,-0.37784 -2.38154,-0.98239 C 2.601746,55.74223 2.261526,54.87319 2.261526,54.00416 V 21.358629 H 60.741548 V 37.11463 c 0,0.30227 0.15121,0.60455 0.34022,0.79347 0.22682,0.2267 0.49143,0.34006 0.79385,0.34006 0.30242,0 0.60484,-0.11336 0.79385,-0.34006 0.22681,-0.18892 0.34022,-0.4912 0.34022,-0.79347 V 13.499519 c 0,-1.473583 -0.60484,-2.909382 -1.6633,-3.967339 -1.05846,-1.057957 -2.45715,-1.662503 -3.96923,-1.662503 h -1.13407 V 4.506885 c 0,-0.302274 -0.11341,-0.604547 -0.30242,-0.793468 -0.22681,-0.226705 -0.49143,-0.340058 -0.79385,-0.340058 -0.30241,0 -0.60483,0.113353 -0.79384,0.340058 -0.22681,0.188921 -0.34022,0.491194 -0.34022,0.793468 v 3.362792 h -5.63253 V 4.506885 c 0,-0.302274 -0.11341,-0.604547 -0.34022,-0.793468 -0.18901,-0.226705 -0.49143,-0.340058 -0.793847,-0.340058 -0.302418,0 -0.567034,0.113353 -0.793847,0.340058 -0.189011,0.188921 -0.34022,0.491194 -0.34022,0.793468 V 7.869677 H 40.517366 V 4.506885 c 0,-0.302274 -0.113406,-0.604547 -0.340219,-0.793468 C 39.950333,3.486712 39.685718,3.373359 39.3833,3.373359 c -0.302418,0 -0.604835,0.113353 -0.793846,0.340058 -0.226814,0.188921 -0.34022,0.491194 -0.34022,0.793468 v 3.362792 h -5.63253 V 4.506885 c 0,-0.302274 -0.113407,-0.604547 -0.302418,-0.793468 -0.226813,-0.226705 -0.529231,-0.340058 -0.793847,-0.340058 -0.302417,0 -0.604835,0.113353 -0.831648,0.340058 -0.189011,0.188921 -0.302418,0.491194 -0.302418,0.793468 v 3.362792 h -5.63253 V 4.506885 c 0,-0.302274 -0.113407,-0.604547 -0.34022,-0.793468 -0.189011,-0.226705 -0.491429,-0.340058 -0.793846,-0.340058 -0.302418,0 -0.567034,0.113353 -0.793847,0.340058 -0.189011,0.188921 -0.34022,0.491194 -0.34022,0.793468 V 7.869677 H 16.890983 V 4.506885 c 0,-0.302274 -0.151209,-0.604547 -0.34022,-0.793468 -0.226814,-0.226705 -0.491429,-0.340058 -0.793847,-0.340058 -0.302418,0 -0.604835,0.113353 -0.793846,0.340058 -0.226814,0.188921 -0.34022,0.491194 -0.34022,0.793468 V 7.869677 H 8.99032 V 4.506885 C 8.99032,4.204611 8.876913,3.902338 8.687902,3.713417 8.461089,3.486712 8.158671,3.373359 7.856253,3.373359 7.591638,3.373359 7.28922,3.486712 7.062407,3.713417 6.873396,3.902338 6.759989,4.204611 6.759989,4.506885 V 7.869677 H 5.625923 c -1.512089,0 -2.910771,0.604546 -3.969233,1.662503 -1.058462,1.057957 -1.663297,2.493756 -1.663297,3.967339 V 54.00416 c 0,1.47358 0.604835,2.90938 1.663297,3.96734 1.058462,1.05795 2.457144,1.62472 3.969233,1.62472 h 35.987708 c 0.302417,0 0.604835,-0.11336 0.793846,-0.30228 0.226813,-0.2267 0.34022,-0.49119 0.34022,-0.79346 0,-0.30228 -0.113407,-0.60455 -0.34022,-0.79347 -0.189011,-0.22671 -0.491429,-0.34006 -0.793846,-0.34006 z M 2.261526,13.499519 c 0,-0.90682 0.34022,-1.738072 0.982857,-2.380403 0.642638,-0.642331 1.474286,-0.982389 2.38154,-0.982389 h 1.134066 v 4.496318 c 0,0.302273 0.113407,0.566762 0.302418,0.793467 0.226813,0.188921 0.529231,0.340058 0.793846,0.340058 0.302418,0 0.604836,-0.151137 0.831649,-0.340058 0.189011,-0.226705 0.302418,-0.491194 0.302418,-0.793467 v -4.496318 h 5.63253 v 4.496318 c 0,0.302273 0.113406,0.566762 0.34022,0.793467 0.189011,0.188921 0.491428,0.340058 0.793846,0.340058 0.302418,0 0.567033,-0.151137 0.793847,-0.340058 0.189011,-0.226705 0.34022,-0.491194 0.34022,-0.793467 v -4.496318 h 5.594727 v 4.496318 c 0,0.302273 0.151209,0.566762 0.34022,0.793467 0.226813,0.188921 0.491429,0.340058 0.793847,0.340058 0.302417,0 0.604835,-0.151137 0.793846,-0.340058 0.226813,-0.226705 0.34022,-0.491194 0.34022,-0.793467 v -4.496318 h 5.63253 v 4.496318 c 0,0.302273 0.113407,0.566762 0.302418,0.793467 0.226813,0.188921 0.529231,0.340058 0.831648,0.340058 0.264616,0 0.567034,-0.151137 0.793847,-0.340058 0.189011,-0.226705 0.302418,-0.491194 0.302418,-0.793467 v -4.496318 h 5.63253 v 4.496318 c 0,0.302273 0.113406,0.566762 0.34022,0.793467 0.189011,0.188921 0.491428,0.340058 0.793846,0.340058 0.302418,0 0.567033,-0.151137 0.793847,-0.340058 0.226813,-0.226705 0.340219,-0.491194 0.340219,-0.793467 v -4.496318 h 5.594728 v 4.496318 c 0,0.302273 0.151209,0.566762 0.34022,0.793467 0.226813,0.188921 0.491429,0.340058 0.793847,0.340058 0.302417,0 0.604837,-0.151137 0.793847,-0.340058 0.22681,-0.226705 0.34022,-0.491194 0.34022,-0.793467 v -4.496318 h 5.63253 v 4.496318 c 0,0.302273 0.11341,0.566762 0.34022,0.793467 0.18901,0.188921 0.49143,0.340058 0.79385,0.340058 0.30241,0 0.56703,-0.151137 0.79384,-0.340058 0.18901,-0.226705 0.30242,-0.491194 0.30242,-0.793467 v -4.496318 h 1.13407 c 0.90725,0 1.7767,0.340058 2.38154,0.982389 0.64263,0.642331 0.98285,1.473583 0.98285,2.380403 v 5.629843 H 2.261526 Z"
       id="path2-6" />
    <path
       style="fill:#860626;fill-opacity:1;fill-rule:evenodd;stroke:none"
       d="m 13.488783,35.98111 c 0,-0.30228 -0.113406,-0.56677 -0.302417,-0.79347 -0.226814,-0.18892 -0.529231,-0.30228 -0.793847,-0.30228 H 5.625923 c -0.302418,0 -0.604836,0.11336 -0.793847,0.30228 -0.226813,0.2267 -0.34022,0.49119 -0.34022,0.79347 v 6.76336 c 0,0.30228 0.113407,0.56677 0.34022,0.79347 0.189011,0.22671 0.491429,0.34006 0.793847,0.34006 h 6.766596 c 0.264616,0 0.567033,-0.11335 0.793847,-0.34006 0.189011,-0.2267 0.302417,-0.49119 0.302417,-0.79347 z m -2.23033,5.62984 H 6.759989 v -4.49632 h 4.498464 z"
       id="path3-2" />
    <path
       style="fill:#860626;fill-opacity:1;fill-rule:evenodd;stroke:none"
       d="m 24.753843,35.98111 c 0,-0.30228 -0.113407,-0.56677 -0.34022,-0.79347 -0.189011,-0.18892 -0.491429,-0.30228 -0.793846,-0.30228 h -6.728794 c -0.302418,0 -0.604836,0.11336 -0.793847,0.30228 -0.226813,0.2267 -0.34022,0.49119 -0.34022,0.79347 v 6.76336 c 0,0.30228 0.113407,0.56677 0.34022,0.79347 0.189011,0.22671 0.491429,0.34006 0.793847,0.34006 h 6.728794 c 0.302417,0 0.604835,-0.11335 0.793846,-0.34006 0.226813,-0.2267 0.34022,-0.49119 0.34022,-0.79347 z m -2.268133,5.62984 h -4.498463 v -4.49632 h 4.498463 z"
       id="path4-6" />
    <path
       style="fill:#860626;fill-opacity:1;fill-rule:evenodd;stroke:none"
       d="m 36.018903,35.98111 c 0,-0.30228 -0.151209,-0.56677 -0.34022,-0.79347 -0.226813,-0.18892 -0.491429,-0.30228 -0.793846,-0.30228 H 28.11824 c -0.302418,0 -0.567033,0.11336 -0.793846,0.30228 -0.189011,0.2267 -0.34022,0.49119 -0.34022,0.79347 v 6.76336 c 0,0.30228 0.151209,0.56677 0.34022,0.79347 0.226813,0.22671 0.491428,0.34006 0.793846,0.34006 h 6.766597 c 0.302417,0 0.567033,-0.11335 0.793846,-0.34006 0.189011,-0.2267 0.34022,-0.49119 0.34022,-0.79347 z m -2.268133,5.62984 h -4.498463 v -4.49632 h 4.498463 z"
       id="path5-5" />
    <path
       style="fill:#860626;fill-opacity:1;fill-rule:evenodd;stroke:none"
       d="m 39.3833,34.88536 c -0.302418,0 -0.604835,0.11336 -0.793846,0.30228 -0.226814,0.2267 -0.34022,0.49119 -0.34022,0.79347 v 6.76336 c 0,0.30228 0.113406,0.56677 0.34022,0.79347 0.189011,0.22671 0.491428,0.34006 0.793846,0.34006 h 6.728794 c 0.302418,0 0.604836,-0.11335 0.831649,-0.34006 0.189011,-0.2267 0.302418,-0.49119 0.302418,-0.79347 v -6.76336 c 0,-0.30228 -0.113407,-0.56677 -0.302418,-0.79347 -0.226813,-0.18892 -0.529231,-0.30228 -0.831649,-0.30228 z m 5.63253,6.72559 h -4.498464 v -4.49632 h 4.498464 z"
       id="path6-3" />
    <path
       style="fill:#860626;fill-opacity:1;fill-rule:evenodd;stroke:none"
       d="M 12.392519,46.10727 H 5.625923 c -0.302418,0 -0.604836,0.11335 -0.793847,0.34005 -0.226813,0.18892 -0.34022,0.4912 -0.34022,0.79347 v 6.76337 c 0,0.26449 0.113407,0.56676 0.34022,0.79347 0.189011,0.18892 0.491429,0.30227 0.793847,0.30227 h 6.766596 c 0.264616,0 0.567033,-0.11335 0.793847,-0.30227 0.189011,-0.22671 0.302417,-0.52898 0.302417,-0.79347 v -6.76337 c 0,-0.30227 -0.113406,-0.60455 -0.302417,-0.79347 -0.226814,-0.2267 -0.529231,-0.34005 -0.793847,-0.34005 z m -1.134066,6.76336 H 6.759989 v -4.49631 h 4.498464 z"
       id="path7-9" />
    <path
       style="fill:#860626;fill-opacity:1;fill-rule:evenodd;stroke:none"
       d="m 23.619777,46.10727 h -6.728794 c -0.302418,0 -0.604836,0.11335 -0.793847,0.34005 -0.226813,0.18892 -0.34022,0.4912 -0.34022,0.79347 v 6.76337 c 0,0.26449 0.113407,0.56676 0.34022,0.79347 0.189011,0.18892 0.491429,0.30227 0.793847,0.30227 h 6.728794 c 0.302417,0 0.604835,-0.11335 0.793846,-0.30227 0.226813,-0.22671 0.34022,-0.52898 0.34022,-0.79347 v -6.76337 c 0,-0.30227 -0.113407,-0.60455 -0.34022,-0.79347 -0.189011,-0.2267 -0.491429,-0.34005 -0.793846,-0.34005 z m -1.134067,6.76336 h -4.498463 v -4.49631 h 4.498463 z"
       id="path8-2" />
    <path
       style="fill:#860626;fill-opacity:1;fill-rule:evenodd;stroke:none"
       d="M 34.884837,46.10727 H 28.11824 c -0.302418,0 -0.567033,0.11335 -0.793846,0.34005 -0.189011,0.18892 -0.34022,0.4912 -0.34022,0.79347 v 6.76337 c 0,0.26449 0.151209,0.56676 0.34022,0.79347 0.226813,0.18892 0.491428,0.30227 0.793846,0.30227 h 6.766597 c 0.302417,0 0.567033,-0.11335 0.793846,-0.30227 0.189011,-0.22671 0.34022,-0.52898 0.34022,-0.79347 v -6.76337 c 0,-0.30227 -0.151209,-0.60455 -0.34022,-0.79347 -0.226813,-0.2267 -0.491429,-0.34005 -0.793846,-0.34005 z m -1.134067,6.76336 h -4.498463 v -4.49631 h 4.498463 z"
       id="path9-4" />
    <path
       style="fill:#860626;fill-opacity:1;fill-rule:evenodd;stroke:none"
       d="m 50.648358,23.625679 c -0.30242,0 -0.60483,0.113353 -0.79384,0.340058 -0.22682,0.188921 -0.34022,0.491194 -0.34022,0.793468 v 6.725583 c 0,0.302274 0.1134,0.604547 0.34022,0.793468 0.18901,0.226705 0.49142,0.340058 0.79384,0.340058 h 6.7288 c 0.30241,0 0.60483,-0.113353 0.79384,-0.340058 0.22682,-0.188921 0.34022,-0.491194 0.34022,-0.793468 v -6.725583 c 0,-0.302274 -0.1134,-0.604547 -0.34022,-0.793468 -0.18901,-0.226705 -0.49143,-0.340058 -0.79384,-0.340058 z m 5.59473,6.725584 h -4.49846 v -4.496317 h 4.49846 z"
       id="path10-6" />
    <path
       style="fill:#860626;fill-opacity:1;fill-rule:evenodd;stroke:none"
       d="m 13.186366,23.965737 c -0.226814,-0.226705 -0.529231,-0.340058 -0.793847,-0.340058 -0.302418,0 -0.604835,0.113353 -0.831649,0.340058 L 8.99032,26.535061 6.419769,23.965737 C 6.192956,23.739032 5.92834,23.625679 5.625923,23.625679 c -0.302418,0 -0.567034,0.113353 -0.793847,0.340058 -0.189011,0.188921 -0.302418,0.491194 -0.302418,0.793468 -0.0378,0.302273 0.0756,0.566762 0.302418,0.793467 l 2.570551,2.569325 -2.570551,2.569324 c -0.113407,0.113352 -0.189011,0.226705 -0.264615,0.377842 -0.0378,0.113352 -0.0756,0.264489 -0.0756,0.415625 0,0.151137 0.0378,0.302274 0.0756,0.453411 0.0756,0.151136 0.151208,0.264489 0.264615,0.377841 0.0756,0.07557 0.226813,0.188921 0.34022,0.226705 0.151209,0.07557 0.302418,0.07557 0.453627,0.07557 0.151208,0 0.302417,0 0.415824,-0.07557 0.151209,-0.07557 0.264616,-0.151136 0.378022,-0.264489 l 2.570551,-2.569324 2.57055,2.569324 c 0.226814,0.226705 0.529231,0.340058 0.793847,0.340058 0.302418,0 0.604835,-0.151137 0.793846,-0.340058 0.226814,-0.226705 0.34022,-0.491194 0.34022,-0.793468 0,-0.302273 -0.113406,-0.566762 -0.302417,-0.793467 l -2.608353,-2.569324 2.608353,-2.569325 c 0.189011,-0.226705 0.302417,-0.491194 0.302417,-0.793467 0,-0.302274 -0.113406,-0.604547 -0.302417,-0.793468 z"
       id="path11-1" />
    <path
       style="fill:#860626;fill-opacity:1;fill-rule:evenodd;stroke:none"
       d="m 24.413623,23.965737 c -0.189011,-0.226705 -0.491429,-0.340058 -0.793846,-0.340058 -0.302418,0 -0.567034,0.113353 -0.793847,0.340058 l -2.57055,2.569324 -2.570551,-2.569324 c -0.226813,-0.226705 -0.491429,-0.340058 -0.793846,-0.340058 -0.302418,0 -0.604836,0.113353 -0.793847,0.340058 -0.226813,0.188921 -0.34022,0.491194 -0.34022,0.793468 0,0.302273 0.113407,0.566762 0.34022,0.793467 l 2.570551,2.569325 -2.570551,2.569324 c -0.113407,0.113352 -0.226813,0.226705 -0.264615,0.377842 -0.0756,0.113352 -0.113407,0.264489 -0.113407,0.415625 0,0.151137 0.0378,0.302274 0.113407,0.453411 0.0378,0.151136 0.113406,0.264489 0.226813,0.377841 0.113406,0.07557 0.226813,0.188921 0.378022,0.226705 0.151209,0.07557 0.302418,0.07557 0.415824,0.07557 0.151209,0 0.302418,0 0.453627,-0.07557 0.151209,-0.07557 0.264615,-0.151136 0.378022,-0.264489 l 2.570551,-2.569324 2.57055,2.569324 c 0.226813,0.226705 0.491429,0.340058 0.793847,0.340058 0.302417,0 0.567033,-0.151137 0.793846,-0.340058 0.189011,-0.226705 0.34022,-0.491194 0.34022,-0.793468 0,-0.302273 -0.113407,-0.566762 -0.34022,-0.793467 l -2.57055,-2.569324 2.57055,-2.569325 c 0.226813,-0.226705 0.34022,-0.491194 0.34022,-0.793467 0,-0.302274 -0.113407,-0.604547 -0.34022,-0.793468 z"
       id="path12-8" />
    <path
       style="fill:#860626;fill-opacity:1;fill-rule:evenodd;stroke:none"
       d="m 35.678683,23.965737 c -0.226813,-0.226705 -0.491429,-0.340058 -0.793846,-0.340058 -0.302418,0 -0.604836,0.113353 -0.793847,0.340058 l -2.570551,2.569324 -2.608352,-2.569324 c -0.189011,-0.226705 -0.491429,-0.340058 -0.793847,-0.340058 -0.264615,0 -0.567033,0.113353 -0.756044,0.340058 -0.226813,0.188921 -0.34022,0.491194 -0.34022,0.793468 0,0.302273 0.113407,0.566762 0.302418,0.793467 l 2.57055,2.569325 -2.57055,2.569324 c -0.113407,0.113352 -0.189011,0.226705 -0.226814,0.377842 -0.0756,0.113352 -0.113406,0.264489 -0.113406,0.415625 0,0.151137 0.0378,0.302274 0.0756,0.453411 0.0756,0.151136 0.151209,0.264489 0.264616,0.377841 0.113406,0.07557 0.226813,0.188921 0.378022,0.226705 0.113406,0.07557 0.264615,0.07557 0.415824,0.07557 0.151209,0 0.302418,0 0.453627,-0.07557 0.113406,-0.07557 0.264615,-0.151136 0.34022,-0.264489 l 2.608352,-2.569324 2.570551,2.569324 c 0.189011,0.226705 0.491429,0.340058 0.793847,0.340058 0.302417,0 0.567033,-0.151137 0.793846,-0.340058 0.189011,-0.226705 0.302418,-0.491194 0.302418,-0.793468 0,-0.302273 -0.113407,-0.566762 -0.302418,-0.793467 l -2.570551,-2.569324 2.570551,-2.569325 c 0.189011,-0.226705 0.34022,-0.491194 0.34022,-0.793467 0,-0.302274 -0.151209,-0.604547 -0.34022,-0.793468 z"
       id="path13-2" />
    <path
       style="fill:#860626;fill-opacity:1;fill-rule:evenodd;stroke:none"
       d="m 46.943743,23.965737 c -0.226813,-0.226705 -0.529231,-0.340058 -0.831649,-0.340058 -0.264615,0 -0.567033,0.113353 -0.793846,0.340058 l -2.570551,2.569324 -2.57055,-2.569324 c -0.226814,-0.226705 -0.491429,-0.340058 -0.793847,-0.340058 -0.302418,0 -0.567033,0.113353 -0.793846,0.340058 -0.189012,0.188921 -0.302418,0.491194 -0.302418,0.793468 -0.0378,0.302273 0.0756,0.566762 0.302418,0.793467 l 2.57055,2.569325 -2.57055,2.569324 c -0.113407,0.113352 -0.189012,0.226705 -0.264616,0.377842 -0.0378,0.113352 -0.0756,0.264489 -0.0756,0.415625 0,0.151137 0,0.302274 0.0756,0.453411 0.0378,0.151136 0.151209,0.264489 0.226813,0.377841 0.113407,0.07557 0.264616,0.188921 0.378022,0.226705 0.151209,0.07557 0.302418,0.07557 0.453627,0.07557 0.151209,0 0.302418,0 0.415824,-0.07557 0.151209,-0.07557 0.264616,-0.151136 0.378023,-0.264489 l 2.57055,-2.569324 2.570551,2.569324 c 0.226813,0.226705 0.529231,0.340058 0.793846,0.340058 0.302418,0 0.604836,-0.151137 0.793847,-0.340058 0.226813,-0.226705 0.34022,-0.491194 0.34022,-0.793468 0,-0.302273 -0.113407,-0.566762 -0.302418,-0.793467 l -2.608353,-2.569324 2.608353,-2.569325 c 0.189011,-0.226705 0.302418,-0.491194 0.302418,-0.793467 0,-0.302274 -0.113407,-0.604547 -0.302418,-0.793468 z"
       id="path14-1" />
  </g>
</svg>
