<?xml version="1.0" encoding="UTF-8" standalone="no"?>
<!-- Created with Inkscape (http://www.inkscape.org/) -->

<svg
   width="72"
   height="72"
   viewBox="0 0 72 72"
   version="1.1"
   id="svg1"
   xmlns="http://www.w3.org/2000/svg"
   xmlns:svg="http://www.w3.org/2000/svg">
  <defs
     id="defs1" />
  <g
     id="layer1">
    <g
       id="g4150"
       transform="translate(-50.343154,-50.325305)">
      <path
         style="fill:#860626;fill-opacity:1;fill-rule:evenodd;stroke:none"
         d="m 100.65129,88.422312 c 0,0.151136 -0.11341,0.302273 -0.30242,0.302273 h -2.041315 l -0.151209,-0.07557 -0.113407,-0.188921 V 54.378766 c 0,-0.604546 -0.0378,-0.869036 -0.0756,-0.982388 -0.151209,-0.302274 -0.453627,-0.45341 -0.869451,-0.45341 -14.402644,0 -28.767485,0 -43.132327,0 -0.491429,0 -0.982857,0.226705 -0.982857,0.90682 -0.0378,19.79891 -0.0378,39.59782 -0.0378,59.396732 0,0.49119 0.151209,0.83125 0.491428,0.98239 0.113407,0.0378 0.378023,0.0756 0.869451,0.0756 7.560443,0 15.234293,0 23.021549,0 h 7.825058 c 0.189011,0 0.302418,0.11335 0.302418,0.30227 v 2.04034 l -0.226813,0.26449 h -31.33804 c -1.625495,0 -2.986375,-1.05795 -3.402199,-2.53154 -0.07561,-0.34005 -0.151209,-0.75568 -0.151209,-1.20909 0,-20.327887 0,-40.126797 0,-59.32116 0,-1.473583 0.907253,-2.796029 2.268133,-3.287224 0.415824,-0.151136 0.907253,-0.226705 1.436484,-0.226705 6.917805,0 13.646599,0 20.224184,0 7.67385,0 15.083084,0 22.265505,0 0.869451,0 1.436484,0.07557 1.814506,0.188921 1.436484,0.566763 2.305931,1.851425 2.305931,3.43836 0,12.015369 0,23.50176 0,34.459172 z"
         id="path1-7" />
      <path
         style="fill:#860626;fill-opacity:1;fill-rule:evenodd;stroke:none"
         d="M 95.926015,55.058882 C 95.6614,54.832177 95.358982,54.68104 95.018762,54.68104 H 56.006877 c -0.378022,0 -0.68044,0.151137 -0.945056,0.377842 -0.226813,0.264489 -0.378022,0.566762 -0.378022,0.944604 v 6.461095 c 0,0.340057 0.151209,0.680115 0.378022,0.944604 0.264616,0.226705 0.567034,0.377842 0.945056,0.377842 h 39.011885 c 0.34022,0 0.642638,-0.151137 0.907253,-0.377842 0.226813,-0.264489 0.378022,-0.604547 0.378022,-0.944604 v -6.461095 c 0,-0.340057 -0.151209,-0.680115 -0.378022,-0.944604 z m -2.192528,6.121037 H 57.292152 v -3.891771 h 36.441335 z"
         id="path2-2" />
      <path
         style="fill:#860626;fill-opacity:1;fill-rule:evenodd;stroke:none"
         d="m 62.622264,66.356351 c -0.0756,-0.188921 -0.189011,-0.302273 -0.302417,-0.45341 -0.113407,-0.113352 -0.264616,-0.188921 -0.415825,-0.264489 -0.151209,-0.07557 -0.34022,-0.113353 -0.491428,-0.113353 h -5.405717 c -0.189011,0 -0.34022,0.03778 -0.491429,0.07557 -0.189011,0.07557 -0.302418,0.188921 -0.453627,0.302273 -0.113406,0.113353 -0.189011,0.264489 -0.264615,0.415626 -0.0756,0.188921 -0.113407,0.340058 -0.113407,0.528979 V 72.2129 c 0,0.188921 0.0378,0.340058 0.0756,0.491194 0.0756,0.188921 0.189011,0.340058 0.302418,0.45341 0.113407,0.113353 0.264616,0.226706 0.415825,0.26449 0.189011,0.07557 0.340219,0.113352 0.529231,0.113352 h 5.367914 c 0.189011,0 0.34022,-0.03778 0.529231,-0.07557 0.151209,-0.07557 0.302418,-0.151137 0.415825,-0.302274 0.113406,-0.113352 0.226813,-0.264489 0.302417,-0.415626 0.0378,-0.151136 0.07561,-0.340057 0.07561,-0.528978 v -5.365353 c 0,-0.188921 0,-0.340058 -0.07561,-0.491195 z m -2.305935,4.760807 c 0,0 0,0.03778 0,0.03778 0,0 -0.0378,0 -0.0378,0 h -3.175388 v 0 c -0.0378,0 -0.0378,-0.03778 -0.0378,-0.03778 v -3.173871 c 0,0 0,0 0,0 0,0 0,0 0.0378,0 0,0 0,0 0,0 h 3.175386 c 0,0 0,0 0,0 0,0 0.0378,0 0.0378,0 z"
         id="path3-2" />
      <path
         style="fill:#860626;fill-opacity:1;fill-rule:evenodd;stroke:none"
         d="m 66.780508,68.472265 h -2.079122 c 0,0 -0.0378,0 -0.0378,0.03778 v 2.040346 c 0,0 0.0378,0.07557 0.0378,0.07557 h 2.079122 c 0,0 0.0378,-0.03778 0.0378,-0.07557 v -2.040346 c 0,0 0,-0.03778 -0.0378,-0.03778 z"
         id="path4-9" />
      <path
         style="fill:#860626;fill-opacity:1;fill-rule:evenodd;stroke:none"
         d="m 95.245575,68.510049 v 2.040346 l -0.302417,0.264489 H 69.048641 l -0.264616,-0.264489 v -2.040346 l 0.264616,-0.264489 h 25.894517 z"
         id="path5-4" />
      <path
         style="fill:#860626;fill-opacity:1;fill-rule:evenodd;stroke:none"
         d="m 62.622264,76.066885 c -0.0756,-0.151137 -0.189011,-0.264489 -0.302417,-0.415626 -0.113407,-0.113352 -0.264616,-0.226705 -0.415825,-0.264489 -0.151209,-0.07557 -0.34022,-0.113353 -0.529231,-0.113353 h -5.367914 c -0.189011,0 -0.34022,0.03779 -0.529231,0.113353 -0.151209,0.03778 -0.302418,0.151137 -0.415825,0.264489 -0.113406,0.151137 -0.226813,0.264489 -0.264615,0.415626 -0.0756,0.188921 -0.113407,0.340058 -0.113407,0.528979 v 5.365353 c 0,0.377842 0.151209,0.7179 0.378022,0.944605 0.264616,0.264489 0.604836,0.377841 0.945056,0.377841 h 5.367914 c 0.378022,0 0.68044,-0.113352 0.945056,-0.377841 0.264615,-0.226705 0.378022,-0.566763 0.378022,-0.944605 v -5.365353 c 0,-0.188921 -0.0378,-0.340058 -0.07561,-0.528979 z m -2.305935,4.798591 c 0,0 0,0 0,0.03778 -0.0378,0 -0.0378,0 -0.0378,0 h -3.175388 c 0,0 0,0 0,0 -0.0378,-0.03778 -0.0378,-0.03778 -0.0378,-0.03778 v -3.136087 c 0,0 0,-0.03778 0.0378,-0.07557 0,0 0,0 0,0 h 3.175386 c 0,0 0,0 0.0378,0 0,0.03778 0,0.03778 0,0.07557 z"
         id="path6-1" />
      <path
         style="fill:#860626;fill-opacity:1;fill-rule:evenodd;stroke:none"
         d="m 66.780508,78.182799 h -2.079122 c 0,0 -0.0378,0.03778 -0.0378,0.07557 v 2.040345 c 0,0 0.0378,0.07557 0.0378,0.07557 h 2.079122 c 0,0 0.0756,-0.03778 0.0756,-0.07557 v -2.040345 c 0,0 -0.0378,-0.07557 -0.0756,-0.07557 z"
         id="path7-9" />
      <path
         style="fill:#860626;fill-opacity:1;fill-rule:evenodd;stroke:none"
         d="m 95.245575,78.258368 v 2.040345 l -0.302417,0.26449 H 69.048641 l -0.264616,-0.26449 v -2.040345 l 0.264616,-0.26449 h 25.894517 z"
         id="path8-6" />
      <path
         style="fill:#860626;fill-opacity:1;fill-rule:evenodd;stroke:none"
         d="m 62.697869,86.344182 c 0,-0.340058 -0.151209,-0.680115 -0.378022,-0.944605 -0.264616,-0.226705 -0.567034,-0.377841 -0.945056,-0.377841 h -5.367914 c -0.189011,0 -0.34022,0.03778 -0.529231,0.113352 -0.151209,0.07557 -0.302418,0.151137 -0.415825,0.302274 -0.113406,0.113352 -0.226813,0.264489 -0.302417,0.415626 -0.0378,0.151136 -0.0756,0.340057 -0.0756,0.491194 v 5.403137 c 0,0.340058 0.151209,0.680116 0.378022,0.944605 0.264615,0.226705 0.604835,0.377842 0.945055,0.377842 h 5.405717 c 0.151208,-0.03778 0.340219,-0.03778 0.491428,-0.113353 0.151209,-0.07557 0.302418,-0.188921 0.415825,-0.302273 0.151209,-0.113353 0.226813,-0.264489 0.302417,-0.415626 0.07561,-0.151137 0.07561,-0.340058 0.07561,-0.528979 z m -2.38154,4.269612 c 0,0 0,0.03778 0,0.03778 -0.0378,0 -0.0378,0 -0.0378,0 h -3.137586 c 0,0 -0.0378,0 -0.0378,0 -0.0378,0 -0.0378,-0.03778 -0.0378,-0.03778 v -3.136087 c 0,0 0,-0.03778 0.0378,-0.03778 0,0 0,-0.03778 0.0378,-0.03778 h 3.137584 c 0,0 0,0.03778 0.0378,0.03778 0,0 0,0.03778 0,0.03778 z"
         id="path9-9" />
      <path
         style="fill:#860626;fill-opacity:1;fill-rule:evenodd;stroke:none"
         d="m 66.81831,88.006686 v 2.07813 c 0,0 0,0.03778 -0.0378,0.03778 h -2.079122 c 0,0 -0.0378,0 -0.0378,-0.03778 v -2.07813 c 0,0 0.0378,-0.03778 0.0378,-0.03778 h 2.079122 c 0,0 0.0378,0 0.0378,0.03778 z"
         id="path10-8" />
      <path
         style="fill:#860626;fill-opacity:1;fill-rule:evenodd;stroke:none"
         d="m 95.245575,88.006686 v 2.07813 l -0.302417,0.264489 H 69.048641 l -0.264616,-0.264489 v -2.07813 l 0.264616,-0.26449 h 25.894517 z"
         id="path11-2" />
      <path
         style="fill:#860626;fill-opacity:1;fill-rule:evenodd;stroke:none"
         d="m 122.34976,96.243637 c 0,-1.62472 -0.71824,-2.720461 -2.15472,-3.362792 -0.41583,-0.151137 -0.86945,-0.264489 -1.36088,-0.264489 h -1.92792 c -0.0756,-0.944605 -0.45362,-1.738073 -1.13406,-2.34262 -0.64264,-0.604546 -1.43649,-0.90682 -2.30594,-0.90682 -1.62549,0 -3.36439,1.209094 -3.4778,3.24944 h -1.7389 c -0.0756,-1.095742 -0.56704,-1.964778 -1.43649,-2.607109 -0.56703,-0.415626 -1.32308,-0.680115 -2.07912,-0.680115 -0.41582,0 -0.79385,0.07557 -1.17187,0.226705 -1.36088,0.566763 -2.11692,1.586936 -2.23033,3.060519 h -1.776702 c -0.151209,-1.851425 -1.625495,-3.24944 -3.440002,-3.24944 -0.378022,0 -0.793846,0.07557 -1.209671,0.226705 -1.247473,0.45341 -2.154726,1.662504 -2.268132,3.022735 h -1.965716 c -1.89011,0 -3.440001,1.586935 -3.440001,3.476144 v 22.82164 c 0,0.94461 0.378022,1.81364 1.096264,2.45598 0.68044,0.60454 1.587693,0.9446 2.532748,0.9446 v 0 c 5.141102,0 10.206602,0 15.272092,0 4.23385,0 8.4299,0 12.58814,0 1.54989,0 2.83517,-0.83125 3.4022,-2.22927 0.15121,-0.37784 0.22681,-1.02017 0.22681,-1.96477 0,0 0,-7.29235 0,-21.877043 z m -9.75297,-3.476145 c 0,-0.188921 0.0756,-0.415626 0.22681,-0.566762 0.15121,-0.151137 0.37803,-0.226705 0.56704,-0.226705 h 0.1134 c 0.22682,0 0.41583,0.07557 0.56704,0.226705 0.15121,0.151136 0.22681,0.377841 0.22681,0.566762 v 2.229267 c 0,0.113352 0,0.226705 -0.0378,0.340057 -0.0378,0.07557 -0.11341,0.188921 -0.18901,0.26449 -0.0756,0.07557 -0.15121,0.113352 -0.26461,0.151136 -0.0756,0.03778 -0.18902,0.07557 -0.41583,0.07557 -0.18901,0 -0.41582,-0.07557 -0.56703,-0.226705 -0.15121,-0.151137 -0.22682,-0.377842 -0.22682,-0.604547 z m -8.69451,0 c 0,-0.07557 0.0378,-0.188921 0.0756,-0.302273 0.0378,-0.07557 0.11341,-0.188921 0.18901,-0.264489 0.0756,-0.07557 0.15121,-0.113353 0.26462,-0.151137 0.0756,-0.03778 0.18901,-0.07557 0.30242,-0.07557 h 0.1134 c 0.11341,0 0.18901,0.03778 0.30242,0.07557 0.11341,0.03778 0.18901,0.07557 0.26462,0.151137 0.0756,0.07557 0.1134,0.188921 0.15121,0.264489 0.0378,0.113352 0.0756,0.226705 0.0756,0.302273 v 2.304835 c 0,0.113353 -0.0378,0.226705 -0.0756,0.340058 -0.0378,0.07557 -0.11341,0.151137 -0.18902,0.226705 -0.0378,0.07557 -0.15121,0.151137 -0.22681,0.188921 -0.11341,0.03778 -0.22681,0.07557 -0.34022,0.07557 h -0.0756 c -0.11341,0 -0.22681,-0.03778 -0.34022,-0.07557 -0.0756,-0.03778 -0.15121,-0.113353 -0.22681,-0.188921 -0.0756,-0.07557 -0.15121,-0.151137 -0.18901,-0.226705 -0.0378,-0.113353 -0.0756,-0.226705 -0.0756,-0.340058 z m -8.656705,0.03778 c 0,-0.226705 0.0756,-0.415625 0.226814,-0.566762 0.151208,-0.188921 0.34022,-0.264489 0.567033,-0.264489 h 0.113406 c 0.113407,0 0.226814,0.03778 0.302418,0.07557 0.113407,0.03778 0.189011,0.07557 0.264616,0.151137 0.0756,0.07557 0.151209,0.188921 0.189011,0.264489 0.0378,0.113352 0.0378,0.226705 0.0378,0.340057 v 2.191483 c 0.0378,0.226705 -0.0756,0.415626 -0.189011,0.566763 -0.151209,0.151136 -0.378022,0.264489 -0.604836,0.264489 H 96.03942 c -0.07561,0 -0.189011,-0.03778 -0.302418,-0.07557 -0.0756,-0.03778 -0.189011,-0.07557 -0.264615,-0.151136 -0.07561,-0.07557 -0.113407,-0.188921 -0.151209,-0.26449 -0.0756,-0.113352 -0.0756,-0.226705 -0.0756,-0.340057 z m 24.495835,25.957738 c 0,0.26449 -0.11341,0.49119 -0.26462,0.68011 -0.18901,0.18892 -0.41582,0.30228 -0.68044,0.30228 H 90.747112 c -0.226813,0 -0.491429,-0.11336 -0.68044,-0.30228 -0.189011,-0.18892 -0.264616,-0.41562 -0.264616,-0.68011 v -15.64265 c 0,-0.11336 0,-0.18892 0,-0.34006 h 29.939354 c 0,0.11335 0,0.2267 0,0.34006 z m 0,-18.55203 H 89.802056 v -4.042912 c 0,-0.604546 0.378023,-0.944604 1.02066,-0.944604 v -0.226705 l 0.0378,0.226705 c 0.34022,0 0.642638,0 0.982858,0 0.264616,0 0.529231,0 0.793847,0 0.264615,1.775856 1.247473,2.871598 2.872968,3.173871 0.226813,0.03778 0.453626,0.07557 0.642637,0.07557 1.776705,0 3.213189,-1.398014 3.4022,-3.249439 h 1.776704 c 0.15121,1.851425 1.54989,3.211655 3.44,3.249439 1.85231,0 3.3644,-1.435798 3.47781,-3.249439 l 1.7389,-0.03778 c 0.1134,2.040345 1.8523,3.287223 3.4778,3.287223 0.75605,0 1.51209,-0.264489 2.15473,-0.793467 0.75604,-0.604547 1.20967,-1.435799 1.28527,-2.455972 h 1.77671 c 0.37802,0 0.64263,0.07557 0.79384,0.264489 0.18901,0.151137 0.26462,0.415626 0.26462,0.793468 0,1.322446 0,2.607108 0,3.929553 z"
         id="path12-5" />
      <path
         style="fill:#860626;fill-opacity:1;fill-rule:evenodd;stroke:none"
         d="m 62.319847,95.18568 c -0.226814,-0.26449 -0.567034,-0.415626 -0.907253,-0.415626 h -5.405717 c -0.34022,0 -0.68044,0.151136 -0.945056,0.415626 -0.226813,0.226705 -0.378022,0.566762 -0.378022,0.90682 v 5.40314 c 0,0.34006 0.151209,0.68011 0.378022,0.90682 0.264616,0.26449 0.567034,0.41562 0.945056,0.41562 h 5.405717 c 0.340219,0 0.642637,-0.15113 0.907253,-0.41562 0.264615,-0.22671 0.378022,-0.56676 0.378022,-0.90682 V 96.0925 c 0,-0.340058 -0.113407,-0.680115 -0.378022,-0.90682 z m -2.003518,5.17643 c 0,0 0,0.0378 0,0.0378 -0.0378,0 -0.0378,0 -0.0378,0 h -3.175388 c 0,0 0,0 0,0 -0.0378,0 -0.0378,-0.0378 -0.0378,-0.0378 v -3.136085 c 0,0 0,-0.03778 0.0378,-0.03778 0,0 0,0 0,0 h 3.175386 c 0,0 0,0 0.0378,0 0,0 0,0 0,0.03778 z"
         id="path13-5" />
      <path
         style="fill:#860626;fill-opacity:1;fill-rule:evenodd;stroke:none"
         d="m 66.81831,97.755004 v 2.07813 c 0,0 0,0.03778 -0.0378,0.03778 h -2.079122 c 0,0 -0.0378,0 -0.0378,-0.03778 v -2.07813 c 0,0 0.0378,-0.03778 0.0378,-0.03778 h 2.079122 z"
         id="path14-4" />
      <path
         style="fill:#860626;fill-opacity:1;fill-rule:evenodd;stroke:none"
         d="m 85.454802,97.755004 v 2.07813 l -0.264616,0.264486 H 69.048641 l -0.264616,-0.264486 v -2.07813 l 0.264616,-0.264489 h 16.141545 z"
         id="path15-9" />
      <path
         style="fill:#860626;fill-opacity:1;fill-rule:evenodd;stroke:none"
         d="m 62.319847,104.934 c -0.264616,-0.26449 -0.567034,-0.37784 -0.945056,-0.37784 h -5.367914 c -0.34022,0 -0.68044,0.11335 -0.945056,0.37784 -0.226813,0.2267 -0.378022,0.56676 -0.378022,0.90682 v 5.40314 c 0,0.34005 0.151209,0.68011 0.378022,0.9446 0.264616,0.22671 0.604836,0.37784 0.945056,0.37784 h 5.367914 c 0.378022,0 0.68044,-0.15113 0.945056,-0.37784 0.226813,-0.26449 0.378022,-0.60455 0.378022,-0.9446 v -5.40314 c 0,-0.34006 -0.151209,-0.68012 -0.378022,-0.90682 z m -2.003518,5.17643 c 0,0 0,0.0378 0,0.0378 0,0 -0.0378,0 -0.0378,0 h -3.175388 c 0,0 0,0 0,0 -0.0378,0 -0.0378,0 -0.0378,-0.0378 v -3.13609 c 0,0 0,-0.0378 0.0378,-0.0378 0,0 0,0 0,0 h 3.175386 c 0,0 0.0378,0 0.0378,0 0,0 0,0.0378 0,0.0378 z"
         id="path16-1" />
      <path
         style="fill:#860626;fill-opacity:1;fill-rule:evenodd;stroke:none"
         d="m 66.780508,107.46554 h -2.079122 c 0,0 -0.0378,0.0378 -0.0378,0.0756 v 2.04034 c 0,0 0.0378,0.0756 0.0378,0.0756 h 2.079122 c 0,0 0.0378,-0.0378 0.0378,-0.0756 v -2.04034 z"
         id="path17-2" />
      <path
         style="fill:#860626;fill-opacity:1;fill-rule:evenodd;stroke:none"
         d="m 85.454802,107.50332 v 2.07813 l -0.264616,0.26449 H 69.048641 l -0.264616,-0.26449 v -2.07813 l 0.264616,-0.26449 h 16.141545 z"
         id="path18" />
      <path
         style="fill:#205578;fill-opacity:1;fill-rule:evenodd;stroke:none"
         d="m 99.290412,105.84082 h -2.041319 c -0.0378,0 -0.07561,0.0378 -0.07561,0.0378 v 2.07813 c 0,0.0378 0.0378,0.0378 0.07561,0.0378 h 2.041319 c 0.0378,0 0.0756,0 0.0756,-0.0378 v -2.07813 c 0,0 -0.0378,-0.0378 -0.0756,-0.0378 z"
         id="path19" />
      <path
         style="fill:#860626;fill-opacity:1;fill-rule:evenodd;stroke:none"
         d="m 99.290412,105.84082 h -2.041319 c -0.0378,0 -0.07561,0.0378 -0.07561,0.0378 v 2.07813 c 0,0.0378 0.0378,0.0378 0.07561,0.0378 h 2.041319 c 0.0378,0 0.0756,0 0.0756,-0.0378 v -2.07813 c 0,0 -0.0378,-0.0378 -0.0756,-0.0378 z"
         id="path20" />
      <path
         style="fill:#860626;fill-opacity:1;fill-rule:evenodd;stroke:none"
         d="m 103.63767,105.84082 h -2.04132 c 0,0 -0.0756,0.0378 -0.0756,0.0756 v 2.04034 c 0,0 0.0378,0.0756 0.0756,0.0756 h 2.04132 c 0,0 0.0756,-0.0378 0.0756,-0.0756 v -2.04034 c 0,0 -0.0378,-0.0756 -0.0756,-0.0756 z"
         id="path21" />
      <path
         style="fill:#205578;fill-opacity:1;fill-rule:evenodd;stroke:none"
         d="m 108.02272,105.91639 v 2.04034 c 0,0 0,0.0378 -0.0378,0.0378 h -2.07912 c 0,0 -0.0378,0 -0.0378,-0.0378 v -2.04034 c 0,0 0.0378,-0.0756 0.0378,-0.0756 h 2.07912 c 0,0 0.0378,0.0378 0.0378,0.0756 z"
         id="path22" />
      <path
         style="fill:#860626;fill-opacity:1;fill-rule:evenodd;stroke:none"
         d="m 108.02272,105.91639 v 2.04034 c 0,0 0,0.0378 -0.0378,0.0378 h -2.07912 c 0,0 -0.0378,0 -0.0378,-0.0378 v -2.04034 c 0,0 0.0378,-0.0756 0.0378,-0.0756 h 2.07912 c 0,0 0.0378,0.0378 0.0378,0.0756 z"
         id="path23" />
      <path
         style="fill:#205578;fill-opacity:1;fill-rule:evenodd;stroke:none"
         d="m 112.36998,105.91639 v 2.04034 c 0,0 -0.0378,0.0378 -0.0756,0.0378 h -2.04132 c 0,0 -0.0756,0 -0.0756,-0.0378 v -2.04034 c 0,0 0.0378,-0.0756 0.0756,-0.0756 h 2.04132 c 0,0 0.0756,0.0378 0.0756,0.0756 z"
         id="path24" />
      <path
         style="fill:#860626;fill-opacity:1;fill-rule:evenodd;stroke:none"
         d="m 112.36998,105.91639 v 2.04034 c 0,0 -0.0378,0.0378 -0.0756,0.0378 h -2.04132 c 0,0 -0.0756,0 -0.0756,-0.0378 v -2.04034 c 0,0 0.0378,-0.0756 0.0756,-0.0756 h 2.04132 c 0,0 0.0756,0.0378 0.0756,0.0756 z"
         id="path25" />
      <path
         style="fill:#205578;fill-opacity:1;fill-rule:evenodd;stroke:none"
         d="m 116.67943,105.91639 v 2.04034 c 0,0 0,0.0378 -0.0378,0.0378 h -2.04132 c 0,0 -0.0756,0 -0.0756,-0.0378 v -2.04034 c 0,0 0.0378,-0.0756 0.0756,-0.0756 h 2.04132 c 0,0 0.0378,0.0378 0.0378,0.0756 z"
         id="path26" />
      <path
         style="fill:#860626;fill-opacity:1;fill-rule:evenodd;stroke:none"
         d="m 116.67943,105.91639 v 2.04034 c 0,0 0,0.0378 -0.0378,0.0378 h -2.04132 c 0,0 -0.0756,0 -0.0756,-0.0378 v -2.04034 c 0,0 0.0378,-0.0756 0.0756,-0.0756 h 2.04132 c 0,0 0.0378,0.0378 0.0378,0.0756 z"
         id="path27" />
      <path
         style="fill:#205578;fill-opacity:1;fill-rule:evenodd;stroke:none"
         d="m 95.018762,110.22378 v 2.07813 c 0,0 -0.0378,0.0378 -0.0756,0.0378 h -2.04132 c 0,0 -0.0378,-0.0378 -0.0378,-0.0378 v -2.07813 c 0,0 0,-0.0378 0.0378,-0.0378 h 2.04132 c 0,0 0.0756,0 0.0756,0.0378 z"
         id="path28" />
      <path
         style="fill:#860626;fill-opacity:1;fill-rule:evenodd;stroke:none"
         d="m 95.018762,110.22378 v 2.07813 c 0,0 -0.0378,0.0378 -0.0756,0.0378 h -2.04132 c 0,0 -0.0378,-0.0378 -0.0378,-0.0378 v -2.07813 c 0,0 0,-0.0378 0.0378,-0.0378 h 2.04132 c 0,0 0.0756,0 0.0756,0.0378 z"
         id="path29" />
      <path
         style="fill:#205578;fill-opacity:1;fill-rule:evenodd;stroke:none"
         d="m 99.366017,110.22378 v 2.07813 c 0,0 -0.0378,0.0378 -0.0756,0.0378 h -2.041319 c 0,0 -0.07561,-0.0378 -0.07561,-0.0378 v -2.07813 c 0,0 0.0378,-0.0378 0.07561,-0.0378 h 2.041319 c 0,0 0.0756,0 0.0756,0.0378 z"
         id="path30" />
      <path
         style="fill:#860626;fill-opacity:1;fill-rule:evenodd;stroke:none"
         d="m 99.366017,110.22378 v 2.07813 c 0,0 -0.0378,0.0378 -0.0756,0.0378 h -2.041319 c 0,0 -0.07561,-0.0378 -0.07561,-0.0378 v -2.07813 c 0,0 0.0378,-0.0378 0.07561,-0.0378 h 2.041319 c 0,0 0.0756,0 0.0756,0.0378 z"
         id="path31" />
      <path
         style="fill:#205578;fill-opacity:1;fill-rule:evenodd;stroke:none"
         d="m 103.67547,110.22378 v 2.07813 c 0,0 0,0.0378 -0.0378,0.0378 h -2.04132 c 0,0 -0.0756,-0.0378 -0.0756,-0.0378 v -2.07813 c 0,0 0.0378,-0.0378 0.0756,-0.0378 h 2.04132 c 0,0 0.0378,0 0.0378,0.0378 z"
         id="path32" />
      <path
         style="fill:#860626;fill-opacity:1;fill-rule:evenodd;stroke:none"
         d="m 103.67547,110.22378 v 2.07813 c 0,0 0,0.0378 -0.0378,0.0378 h -2.04132 c 0,0 -0.0756,-0.0378 -0.0756,-0.0378 v -2.07813 c 0,0 0.0378,-0.0378 0.0756,-0.0378 h 2.04132 c 0,0 0.0378,0 0.0378,0.0378 z"
         id="path33" />
      <path
         style="fill:#205578;fill-opacity:1;fill-rule:evenodd;stroke:none"
         d="m 108.02272,110.22378 v 2.04035 c 0,0 -0.0378,0.0756 -0.0378,0.0756 h -2.04132 c 0,0 -0.0756,-0.0378 -0.0756,-0.0756 v -2.04035 c 0,0 0.0378,-0.0378 0.0756,-0.0378 h 2.04132 z"
         id="path34" />
      <path
         style="fill:#860626;fill-opacity:1;fill-rule:evenodd;stroke:none"
         d="m 108.02272,110.22378 v 2.04035 c 0,0 -0.0378,0.0756 -0.0378,0.0756 h -2.04132 c 0,0 -0.0756,-0.0378 -0.0756,-0.0756 v -2.04035 c 0,0 0.0378,-0.0378 0.0756,-0.0378 h 2.04132 z"
         id="path35" />
      <path
         style="fill:#205578;fill-opacity:1;fill-rule:evenodd;stroke:none"
         d="m 112.36998,110.22378 v 2.04035 c 0,0 -0.0378,0.0756 -0.0756,0.0756 h -2.04132 c 0,0 -0.0756,-0.0378 -0.0756,-0.0378 v -2.07813 c 0,0 0.0378,-0.0378 0.0756,-0.0378 h 2.04132 c 0,0 0.0756,0 0.0756,0.0378 z"
         id="path36" />
      <path
         style="fill:#860626;fill-opacity:1;fill-rule:evenodd;stroke:none"
         d="m 112.36998,110.22378 v 2.04035 c 0,0 -0.0378,0.0756 -0.0756,0.0756 h -2.04132 c 0,0 -0.0756,-0.0378 -0.0756,-0.0378 v -2.07813 c 0,0 0.0378,-0.0378 0.0756,-0.0378 h 2.04132 c 0,0 0.0756,0 0.0756,0.0378 z"
         id="path37" />
      <path
         style="fill:#860626;fill-opacity:1;fill-rule:evenodd;stroke:none"
         d="m 116.64163,110.186 h -2.04132 c 0,0 -0.0756,0.0378 -0.0756,0.0378 v 2.07813 c 0,0 0.0378,0.0756 0.0756,0.0756 h 2.04132 c 0,0 0.0756,-0.0378 0.0756,-0.0756 v -2.07813 c 0,0 -0.0378,-0.0378 -0.0756,-0.0378 z"
         id="path38" />
      <path
         style="fill:#860626;fill-opacity:1;fill-rule:evenodd;stroke:none"
         d="m 94.943158,114.4934 h -2.04132 c 0,0 -0.0378,0.0378 -0.0378,0.0756 v 2.04034 c 0,0 0,0.0756 0.0378,0.0756 h 2.04132 c 0,0 0.0756,-0.0378 0.0756,-0.0756 V 114.569 c 0,0 -0.0378,-0.0756 -0.0756,-0.0756 z"
         id="path39" />
      <path
         style="fill:#205578;fill-opacity:1;fill-rule:evenodd;stroke:none"
         d="m 99.366017,114.56896 v 2.07813 c 0,0 -0.0378,0.0378 -0.0378,0.0378 h -2.079121 c 0,0 -0.07561,-0.0378 -0.07561,-0.0378 v -2.07813 c 0,0 0.0378,-0.0756 0.07561,-0.0756 h 2.079121 c 0,0 0.0378,0.0378 0.0378,0.0756 z"
         id="path40" />
      <path
         style="fill:#860626;fill-opacity:1;fill-rule:evenodd;stroke:none"
         d="m 99.366017,114.56896 v 2.07813 c 0,0 -0.0378,0.0378 -0.0378,0.0378 h -2.079121 c 0,0 -0.07561,-0.0378 -0.07561,-0.0378 v -2.07813 c 0,0 0.0378,-0.0756 0.07561,-0.0756 h 2.079121 c 0,0 0.0378,0.0378 0.0378,0.0756 z"
         id="path41" />
      <path
         style="fill:#205578;fill-opacity:1;fill-rule:evenodd;stroke:none"
         d="m 103.63767,114.4934 h -2.04132 c -0.0378,0 -0.0756,0.0378 -0.0756,0.0756 v 2.04034 c 0,0.0378 0.0378,0.0756 0.0756,0.0756 h 2.04132 c 0.0378,0 0.0378,-0.0378 0.0378,-0.0756 V 114.569 c 0,-0.0378 0,-0.0756 -0.0378,-0.0756 z"
         id="path42" />
      <path
         style="fill:#860626;fill-opacity:1;fill-rule:evenodd;stroke:none"
         d="m 103.63767,114.4934 h -2.04132 c -0.0378,0 -0.0756,0.0378 -0.0756,0.0756 v 2.04034 c 0,0.0378 0.0378,0.0756 0.0756,0.0756 h 2.04132 c 0.0378,0 0.0378,-0.0378 0.0378,-0.0756 V 114.569 c 0,-0.0378 0,-0.0756 -0.0378,-0.0756 z"
         id="path43" />
      <path
         style="fill:#205578;fill-opacity:1;fill-rule:evenodd;stroke:none"
         d="m 108.02272,114.56896 v 2.04035 c 0,0 -0.0378,0.0756 -0.0378,0.0756 h -2.07912 c 0,0 -0.0378,-0.0378 -0.0378,-0.0756 v -2.04035 c 0,0 0.0378,-0.0756 0.0378,-0.0756 h 2.07912 c 0,0 0.0378,0.0378 0.0378,0.0756 z"
         id="path44" />
      <path
         style="fill:#860626;fill-opacity:1;fill-rule:evenodd;stroke:none"
         d="m 108.02272,114.56896 v 2.04035 c 0,0 -0.0378,0.0756 -0.0378,0.0756 h -2.07912 c 0,0 -0.0378,-0.0378 -0.0378,-0.0756 v -2.04035 c 0,0 0.0378,-0.0756 0.0378,-0.0756 h 2.07912 c 0,0 0.0378,0.0378 0.0378,0.0756 z"
         id="path45" />
      <path
         style="fill:#205578;fill-opacity:1;fill-rule:evenodd;stroke:none"
         d="m 112.36998,114.56896 v 2.04035 c 0,0 -0.0378,0.0756 -0.0756,0.0756 h -2.04132 c 0,0 -0.0756,-0.0378 -0.0756,-0.0756 v -2.04035 c 0,0 0.0378,-0.0756 0.0756,-0.0756 h 2.04132 c 0,0 0.0756,0.0378 0.0756,0.0756 z"
         id="path46" />
      <path
         style="fill:#860626;fill-opacity:1;fill-rule:evenodd;stroke:none"
         d="m 112.36998,114.56896 v 2.04035 c 0,0 -0.0378,0.0756 -0.0756,0.0756 h -2.04132 c 0,0 -0.0756,-0.0378 -0.0756,-0.0756 v -2.04035 c 0,0 0.0378,-0.0756 0.0756,-0.0756 h 2.04132 c 0,0 0.0756,0.0378 0.0756,0.0756 z"
         id="path47" />
    </g>
  </g>
</svg>
