<?xml version="1.0" encoding="UTF-8" standalone="no"?>
<!-- Created with Inkscape (http://www.inkscape.org/) -->

<svg
   width="72"
   height="72"
   viewBox="0 0 72 72"
   version="1.1"
   id="svg1"
   xmlns="http://www.w3.org/2000/svg"
   xmlns:svg="http://www.w3.org/2000/svg">
  <defs
     id="defs1" />
  <g
     id="layer1">
    <path
       style="fill:#860626;fill-opacity:1;fill-rule:evenodd;stroke:none"
       d="m 10.483507,71.989431 c -5.63253,0 -10.2444,-4.57188 -10.2444,-10.20173 0,-5.62984 4.61187,-10.23951 10.2444,-10.23951 h 51.56222 c 4.536266,0 8.392095,2.98495 9.715165,7.06564 v 6.30996 c -1.32307,4.08069 -5.178899,7.06564 -9.715165,7.06564 z M 71.760892,42.026577 V 30.011208 C 68.887932,13.008328 54.06946,0.01057 36.264617,0.01057 c -19.883965,0 -36.02551,16.133845 -36.02551,36.008323 0,4.874159 0.982857,9.634965 2.872968,14.093498 0.189011,0.41563 0.604835,0.68012 1.058462,0.68012 0.151209,0 0.302418,0 0.415824,-0.0756 0.567034,-0.22671 0.831649,-0.90682 0.604836,-1.47359 C 3.603504,45.540476 2.696251,41.610921 2.545042,37.53023 l -0.0378,-0.415626 H 16.98549 v 0.377842 c 0.0378,3.702849 0.453626,7.367915 1.096264,10.844055 0.113407,0.52898 0.567033,0.90682 1.134066,0.90682 0.0756,0 0.113407,0 0.189011,0 0.604836,-0.11335 1.02066,-0.71789 0.907254,-1.32244 -0.642638,-3.32501 -1.02066,-6.838938 -1.134067,-10.390651 v -0.415596 h 15.952533 v 11.032977 c 0,0.60455 0.529231,1.09574 1.134066,1.09574 0.604835,0 1.134066,-0.49119 1.134066,-1.09574 V 37.114634 h 15.914733 v 0.415626 c -0.07561,3.551713 -0.453627,7.065641 -1.096265,10.390651 -0.113406,0.60455 0.264616,1.20909 0.869451,1.32244 0.0756,0 0.151209,0 0.226814,0 0.529231,0 1.020659,-0.37784 1.096264,-0.90682 0.68044,-3.47614 1.058462,-7.141206 1.134066,-10.844055 v -0.377842 h 14.440446 v 0.415626 c -0.18901,4.080691 -1.09626,8.010246 -2.683957,11.713091 -0.226813,0.56677 0.0378,1.24688 0.604837,1.47359 0.15121,0.0756 0.30242,0.0756 0.45362,0.0756 v 0 c 0.41583,0 0.83165,-0.26449 1.02066,-0.68012 1.09627,-2.607107 1.89012,-5.327568 2.38154,-8.085814 z M 10.483507,53.815241 c -4.422859,0 -8.01407,3.55171 -8.01407,7.97246 0,4.38297 3.591211,7.97246 8.01407,7.97246 h 51.56222 c 4.385057,0 7.976265,-3.58949 7.976265,-7.97246 0,-4.42075 -3.591208,-7.97246 -7.976265,-7.97246 z m 46.988152,13.64009 c -0.415824,0 -0.831649,-0.26449 -1.02066,-0.68012 l -2.003517,-4.49631 -2.003517,4.49631 c -0.189011,0.41563 -0.567034,0.68012 -1.02066,0.68012 -0.529231,-0.0378 -0.945055,-0.34006 -1.058462,-0.79347 l -3.061979,-9.0682 c -0.07561,-0.30227 -0.0378,-0.60455 0.0756,-0.86904 0.151209,-0.26449 0.378022,-0.45341 0.642638,-0.56676 0.113406,-0.0378 0.264615,-0.0378 0.378022,-0.0378 0.491429,0 0.907253,0.30227 1.058462,0.75568 l 2.116924,6.34774 1.852308,-4.19404 c 0.189011,-0.37784 0.604836,-0.64233 1.058462,-0.64233 0.415825,0 0.831649,0.26449 1.02066,0.64233 l 1.852309,4.19404 2.116924,-6.34774 c 0.151208,-0.45341 0.604835,-0.75568 1.058462,-0.75568 0.151208,0 0.264615,0 0.378022,0.0378 0.264615,0.11335 0.491428,0.30227 0.642637,0.56676 0.151209,0.26449 0.151209,0.56677 0.07561,0.86904 l -3.06198,9.0682 c -0.113406,0.45341 -0.529231,0.75569 -0.982857,0.79347 h -0.07561 z m -18.182865,0 c -0.453626,0 -0.869451,-0.26449 -1.02066,-0.68012 l -2.003517,-4.49631 -2.003517,4.49631 c -0.189011,0.41563 -0.604836,0.68012 -1.058462,0.68012 -0.491429,-0.0378 -0.907254,-0.34006 -1.058462,-0.79347 l -3.024178,-9.0682 c -0.0756,-0.30227 -0.0756,-0.60455 0.0756,-0.86904 0.113407,-0.26449 0.34022,-0.45341 0.642638,-0.56676 0.113406,-0.0378 0.226813,-0.0378 0.340219,-0.0378 0.491429,0 0.907254,0.30227 1.096265,0.75568 l 2.116924,6.34774 1.852308,-4.19404 c 0.189011,-0.37784 0.567033,-0.64233 1.02066,-0.64233 0.453627,0 0.869451,0.26449 1.02066,0.64233 l 1.852308,4.19404 2.154726,-6.34774 c 0.151209,-0.45341 0.567034,-0.75568 1.058462,-0.75568 0.113407,0 0.226814,0 0.34022,0.0378 0.302418,0.11335 0.529231,0.30227 0.68044,0.56676 0.113407,0.26449 0.151209,0.56677 0.0378,0.86904 l -3.024177,9.0682 c -0.151209,0.45341 -0.529231,0.75569 -1.020659,0.79347 h -0.0378 z m -18.220667,0 c -0.415825,0 -0.831649,-0.26449 -1.02066,-0.68012 l -2.003517,-4.49631 -2.003518,4.49631 c -0.189011,0.41563 -0.567033,0.68012 -1.020659,0.68012 -0.529231,-0.0378 -0.907254,-0.34006 -1.058462,-0.79347 l -3.024178,-9.0682 c -0.113406,-0.30227 -0.0756,-0.60455 0.0378,-0.86904 0.151208,-0.26449 0.378022,-0.45341 0.680439,-0.56676 0.0756,-0.0378 0.226814,-0.0378 0.34022,-0.0378 0.491429,0 0.907254,0.30227 1.058462,0.75568 l 2.116924,6.34774 1.852309,-4.19404 c 0.189011,-0.37784 0.604835,-0.64233 1.058462,-0.64233 0.415824,0 0.831649,0.26449 1.02066,0.64233 l 1.852308,4.19404 2.116924,-6.34774 c 0.151209,-0.45341 0.604836,-0.75568 1.058462,-0.75568 0.151209,0 0.264616,0 0.378022,0.0378 0.264616,0.11335 0.491429,0.30227 0.642638,0.56676 0.151209,0.26449 0.151209,0.56677 0.0756,0.86904 l -3.024177,9.0682 c -0.151209,0.45341 -0.567033,0.75569 -1.02066,0.79347 h -0.0756 z m 42.6787,-50.630801 c -3.364397,0.717899 -6.766597,1.284662 -10.093191,1.738072 l -0.453627,0.03778 0.113407,0.453411 c 1.360879,4.836374 2.116924,10.012807 2.23033,15.453729 v 0.377842 h 14.440446 l -0.0378,-0.415626 C 69.681772,28.197568 67.678257,22.189883 64.124849,17.013451 L 63.97364,16.786746 Z m -13.155171,2.07813 c -4.233848,0.491194 -8.581102,0.717899 -12.852753,0.793468 h -0.378022 v 15.18924 H 53.313416 V 34.469742 C 53.200009,29.104388 52.36836,23.814603 51.007481,19.204933 l -0.07561,-0.340057 -0.34022,0.07557 z m -29.107705,0.302273 c -1.398682,4.647454 -2.154726,9.899455 -2.305935,15.264809 v 0.415626 h 15.952535 v -15.18924 h -0.415825 c -4.233848,-0.03778 -8.581102,-0.302274 -12.81495,-0.793468 l -0.34022,-0.03778 z M 8.366583,17.013451 C 4.813175,22.189883 2.809657,28.197568 2.545042,34.469742 l -0.0378,0.415626 h 14.440443 v -0.377842 c 0.113407,-5.440922 0.869451,-10.617355 2.230331,-15.453729 l 0.113407,-0.415626 -0.453627,-0.07557 C 15.511201,18.109192 12.109002,17.542429 8.744605,16.862314 l -0.226813,-0.07557 z m 28.994298,0.45341 h 0.415825 c 3.93143,-0.07557 7.976267,-0.302273 11.945499,-0.717899 l 0.491429,-0.03778 -0.189011,-0.491194 C 48.966161,13.272817 47.605281,10.703493 46.093193,8.549795 43.636049,5.07365 40.76308,2.957736 37.85231,2.428758 L 37.360881,2.315405 Z M 34.676924,2.390974 c -2.948573,0.566762 -5.783739,2.682676 -8.240883,6.121037 -1.549891,2.191482 -2.872968,4.760806 -4.007034,7.707972 l -0.151209,0.491194 0.491428,0.03778 c 3.969233,0.415626 7.976268,0.642331 11.9455,0.680115 h 0.415825 V 2.315405 l -0.491429,0.07557 z M 26.625052,3.637852 C 20.312083,5.527061 14.679553,9.192126 10.407902,14.29299 l -0.415824,0.491194 0.642638,0.151137 c 2.986375,0.566763 6.010552,1.095741 9.034729,1.473583 l 0.302418,0.03778 0.113406,-0.302273 c 1.247473,-3.476145 2.759562,-6.498879 4.498464,-8.917067 0.793846,-1.095741 1.587693,-2.078129 2.419341,-2.909381 z m 18.825503,0.680115 c 0.831649,0.831252 1.663297,1.81364 2.457144,2.909382 1.738902,2.455971 3.25099,5.440921 4.460661,8.879282 l 0.113407,0.302273 0.34022,-0.03778 c 2.986375,-0.377842 6.048354,-0.869036 9.034729,-1.435799 l 0.68044,-0.151137 -0.453627,-0.491194 C 57.811879,9.192126 52.179349,5.527061 45.866379,3.637852 l -0.415824,0.642331 z"
       id="path1-1" />
  </g>
</svg>
