<svg width="24" height="24" viewBox="0 0 24 24" fill="none" xmlns="http://www.w3.org/2000/svg">
<g clip-path="url(#clip0_9197_16412)">
<path d="M10.8 7.85718C10.2054 7.85718 9.80385 8.06146 9.48823 8.44021C9.23636 8.74246 9 9.13124 9 9.77146C9 10.3237 8.55229 10.7715 8 10.7715C7.44772 10.7715 7 10.3237 7 9.77146C7 8.52597 7.50204 7.69955 7.95177 7.15986C8.66169 6.30794 9.63458 5.85718 10.8 5.85718C13.1888 5.85718 14.6 7.74501 14.6 9.60004V9.6061L14.5997 9.65531C14.5838 10.9656 13.8667 11.901 13.121 12.5847C12.7484 12.9264 12.3392 13.2322 11.9628 13.5056C11.878 13.5672 11.7954 13.6268 11.7148 13.685C11.4235 13.8951 11.159 14.086 10.9115 14.2844C10.7235 14.4352 10.5285 14.6137 10.3311 14.8252C9.86081 15.3291 9.55764 15.7781 9.36192 16.1429H14C14.5523 16.1429 15 16.5906 15 17.1429C15 17.6952 14.5523 18.1429 14 18.1429H8C7.44772 18.1429 7 17.6952 7 17.1429H8C7 17.1429 7 17.1417 7 17.1417L7 17.1404L7.00001 17.1378L7.00005 17.1322L7.00024 17.1195C7.00042 17.1104 7.00072 17.1 7.00118 17.0884C7.0021 17.065 7.00371 17.0366 7.0064 17.0034C7.0118 16.9369 7.02157 16.8512 7.03909 16.7479C7.07418 16.5412 7.14011 16.2656 7.26316 15.936C7.51037 15.2738 7.98145 14.4115 8.86894 13.4606C9.13195 13.1788 9.39743 12.9349 9.66034 12.7241C9.95168 12.4905 10.2705 12.2606 10.5673 12.0466C10.6424 11.9924 10.716 11.9393 10.7874 11.8875C11.1566 11.6193 11.4866 11.3698 11.7694 11.1105C12.3337 10.5931 12.5927 10.1447 12.5998 9.63378L12.6 9.59735C12.5987 8.71048 11.9505 7.85718 10.8 7.85718Z" fill="#212121"/>
<path d="M4.38268 6.07615C4.75636 6.23093 5 6.59557 5 7.00003V17C5 17.5523 4.55228 18 4 18C3.44772 18 3 17.5523 3 17V9.41424L1.70711 10.7071C1.31658 11.0977 0.683417 11.0977 0.292893 10.7071C-0.0976311 10.3166 -0.0976311 9.68345 0.292893 9.29292L3.29289 6.29292C3.57889 6.00692 4.00901 5.92137 4.38268 6.07615Z" fill="#212121"/>
<path d="M17.1699 6.25006C16.6176 6.25006 16.1699 6.69778 16.1699 7.25006C16.1699 7.80235 16.6176 8.25006 17.1699 8.25006H20.5451L18.1384 10.5966C17.8472 10.8805 17.7569 11.3126 17.9102 11.6894C18.0635 12.0662 18.4297 12.3126 18.8365 12.3126H20.158C20.6389 12.3126 21.0961 12.4929 21.437 12.8081C21.7609 13.2044 21.889 13.4838 21.9448 13.6618C22.0009 13.8407 22.0032 13.9705 22.0032 14.1563C22.0032 15.1509 21.1691 16.0001 20.0865 16.0001C19.6856 16.0001 19.239 15.8827 18.8494 15.6701C18.4554 15.455 18.1904 15.1824 18.066 14.9313C17.8209 14.4363 17.221 14.2338 16.7261 14.4789C16.2312 14.724 16.0287 15.3239 16.2738 15.8189C16.6252 16.5285 17.2367 17.0684 17.8912 17.4256C18.5502 17.7853 19.3239 18.0001 20.0865 18.0001C22.2256 18.0001 24.0032 16.3029 24.0032 14.1563L24.0032 14.1467C24.0032 13.9247 24.0033 13.5421 23.8532 13.0635C23.7026 12.5832 23.4212 12.0635 22.9375 11.4842C22.9156 11.458 22.8924 11.4329 22.8679 11.4091C22.3888 10.9419 21.7987 10.6123 21.1607 10.4431L23.7013 7.96607C23.9926 7.6821 24.0828 7.25002 23.9295 6.87324C23.7762 6.49645 23.41 6.25006 23.0032 6.25006H17.1699Z" fill="#212121"/>
</g>
<defs>
<clipPath id="clip0_9197_16412">
<rect width="24" height="24" fill="white"/>
</clipPath>
</defs>
</svg>
