<?xml version="1.0" encoding="UTF-8" standalone="no"?>
<!-- Created with Inkscape (http://www.inkscape.org/) -->

<svg
   width="72.013214"
   height="71.978867"
   viewBox="0 0 72.013214 71.978867"
   version="1.1"
   id="svg1"
   xmlns="http://www.w3.org/2000/svg"
   xmlns:svg="http://www.w3.org/2000/svg">
  <defs
     id="defs1" />
  <g
     id="layer1"
     transform="translate(0.006609,-0.01057)">
    <g
       id="g4148"
       transform="translate(39.656846,-48.325289)">
      <path
         style="fill:#860626;fill-opacity:1;fill-rule:evenodd;stroke:none"
         d="M 31.896136,100.62916 25.80998,95.830572 c -0.226813,-0.188921 -0.491429,-0.302273 -0.793847,-0.302273 h -13.15517 c -0.869451,0 -1.549891,0.642331 -1.549891,1.398014 v 21.990397 c 0,0.75568 0.68044,1.39801 1.549891,1.39801 h 18.976711 c 0.831649,0 1.512089,-0.64233 1.512089,-1.39801 v -17.38073 c 0,-0.34005 -0.151209,-0.68011 -0.453627,-0.90682 z M 29.854817,117.9721 H 12.84382 V 97.908702 h 10.92484 v 3.627278 c 0,0.64233 0.529231,1.17131 1.247473,1.17131 h 4.838684 z"
         id="path1-8" />
      <path
         style="fill:#860626;fill-opacity:1;fill-rule:evenodd;stroke:none"
         d="m 27.964706,114.19368 c 0,0.64233 -0.567033,1.17131 -1.247473,1.17131 H 15.527778 c -0.68044,0 -1.247473,-0.52898 -1.247473,-1.17131 0,-0.64233 0.567033,-1.17131 1.247473,-1.17131 h 11.189455 c 0.68044,0 1.247473,0.52898 1.247473,1.17131 z"
         id="path2-8" />
      <path
         style="fill:#860626;fill-opacity:1;fill-rule:evenodd;stroke:none"
         d="m -27.680153,101.53598 c 0,0.64233 -0.567034,1.17131 -1.247473,1.17131 h -5.519124 c -0.68044,0 -1.247473,-0.52898 -1.247473,-1.17131 0,-0.64233 0.567033,-1.17131 1.247473,-1.17131 h 5.519124 c 0.680439,0 1.247473,0.52898 1.247473,1.17131 z"
         id="path3-2" />
      <path
         style="fill:#860626;fill-opacity:1;fill-rule:evenodd;stroke:none"
         d="M 7.060082,101.23371 C 7.022282,101.007 6.871071,100.7803 6.682059,100.62916 L 0.595903,95.830572 C 0.36909,95.641651 0.066672,95.528299 -0.235746,95.528299 h -13.15517 c -0.831649,0 -1.512089,0.642331 -1.512089,1.398014 v 21.990397 c 0,0.75568 0.68044,1.39801 1.512089,1.39801 H 5.585795 c 0.831649,0 1.549891,-0.64233 1.549891,-1.39801 v -17.683 z M 4.602938,117.9721 H -12.408059 V 97.908702 h 10.92484 v 3.627278 c 0,0.64233 0.567033,1.17131 1.247473,1.17131 h 4.838684 z"
         id="path4-4" />
      <path
         style="fill:#860626;fill-opacity:1;fill-rule:evenodd;stroke:none"
         d="m 2.712827,107.88372 c 0,0.64234 -0.567033,1.17132 -1.247473,1.17132 H -9.686299 c -0.718242,0 -1.285276,-0.52898 -1.285276,-1.17132 0,-0.68011 0.567034,-1.20909 1.285276,-1.20909 H 1.465354 c 0.68044,0 1.247473,0.52898 1.247473,1.20909 z"
         id="path5-5" />
      <path
         style="fill:#860626;fill-opacity:1;fill-rule:evenodd;stroke:none"
         d="m 2.712827,114.19368 c 0,0.64233 -0.567033,1.17131 -1.247473,1.17131 H -9.686299 c -0.718242,0 -1.285276,-0.52898 -1.285276,-1.17131 0,-0.64233 0.567034,-1.17131 1.285276,-1.17131 H 1.465354 c 0.68044,0 1.247473,0.52898 1.247473,1.17131 z"
         id="path6-5" />
      <path
         style="fill:#860626;fill-opacity:1;fill-rule:evenodd;stroke:none"
         d="m -2.919703,101.53598 c 0,0.64233 -0.567033,1.17131 -1.285275,1.17131 h -5.481321 c -0.718242,0 -1.285276,-0.52898 -1.285276,-1.17131 0,-0.64233 0.567034,-1.17131 1.285276,-1.17131 h 5.481321 c 0.718242,0 1.285275,0.52898 1.285275,1.17131 z"
         id="path7-1" />
      <path
         style="fill:#860626;fill-opacity:1;fill-rule:evenodd;stroke:none"
         d="m -18.078391,100.62916 -6.086156,-4.798588 c -0.226814,-0.188921 -0.529231,-0.302273 -0.831649,-0.302273 h -13.117369 c -0.86945,0 -1.54989,0.642331 -1.54989,1.398014 v 21.990397 c 0,0.75568 0.68044,1.39801 1.54989,1.39801 h 18.976712 c 0.831649,0 1.512089,-0.64233 1.512089,-1.39801 v -17.38073 c 0,-0.34005 -0.151209,-0.68011 -0.453627,-0.90682 z m -2.079122,17.34294 H -37.168509 V 97.908702 h 10.92484 v 3.627278 c 0,0.64233 0.567033,1.17131 1.285275,1.17131 h 4.800881 z"
         id="path8-7" />
      <path
         style="fill:#860626;fill-opacity:1;fill-rule:evenodd;stroke:none"
         d="m -22.009821,114.19368 c 0,0.64233 -0.567033,1.17131 -1.285275,1.17131 H -34.44675 c -0.68044,0 -1.247473,-0.52898 -1.247473,-1.17131 0,-0.64233 0.567033,-1.17131 1.247473,-1.17131 h 11.151654 c 0.718242,0 1.285275,0.52898 1.285275,1.17131 z"
         id="path9-1" />
      <path
         style="fill:#860626;fill-opacity:1;fill-rule:evenodd;stroke:none"
         d="m -22.009821,107.88372 c 0,0.64234 -0.567033,1.17132 -1.285275,1.17132 H -34.44675 c -0.68044,0 -1.247473,-0.52898 -1.247473,-1.17132 0,-0.68011 0.567033,-1.20909 1.247473,-1.20909 h 11.151654 c 0.718242,0 1.285275,0.52898 1.285275,1.20909 z"
         id="path10-1" />
      <path
         style="fill:#860626;fill-opacity:1;fill-rule:evenodd;stroke:none"
         d="m 0.36909,90.691924 c 0,0.340058 -0.151209,0.642331 -0.378022,0.869036 l -3.024178,2.796029 c -0.226813,0.226705 -0.529231,0.340058 -0.869451,0.340058 -0.340219,0 -0.642637,-0.113353 -0.86945,-0.340058 L -7.796189,91.56096 c -0.491428,-0.45341 -0.491428,-1.209094 0,-1.662504 0.264616,-0.226705 0.567034,-0.377842 0.907254,-0.377842 0.340219,0 0.642637,0.151137 0.86945,0.377842 l 0.869451,0.755684 v -3.513929 c 0,-0.642331 0.567034,-1.171309 1.247473,-1.171309 0.68044,0 1.247474,0.528978 1.247474,1.171309 v 3.513929 l 0.831648,-0.755684 c 0.264616,-0.226705 0.567033,-0.377842 0.907253,-0.377842 0.34022,0 0.68044,0.151137 0.907254,0.377842 0.226813,0.188921 0.378022,0.491195 0.378022,0.793468 z"
         id="path11-5" />
      <path
         style="fill:#860626;fill-opacity:1;fill-rule:evenodd;stroke:none"
         d="m -24.391361,90.691924 c 0,0.340058 -0.113406,0.642331 -0.378022,0.869036 l -2.986375,2.796029 c -0.226813,0.226705 -0.567033,0.340058 -0.907253,0.340058 -0.34022,0 -0.642638,-0.113353 -0.869451,-0.340058 l -2.986375,-2.796029 c -0.226813,-0.226705 -0.378022,-0.528978 -0.378022,-0.869036 0,-0.302273 0.151209,-0.604547 0.378022,-0.831252 0.226814,-0.188921 0.567033,-0.340058 0.907253,-0.340058 0.34022,0 0.642638,0.151137 0.869451,0.340058 l 0.831649,0.793468 V 68.701532 c 0,-1.700288 1.474286,-3.060519 3.288793,-3.060519 h 0.453626 c 0.68044,0 1.247473,0.528979 1.247473,1.209094 0,0.642331 -0.567033,1.17131 -1.247473,1.17131 h -0.453626 c -0.415825,0 -0.756045,0.302273 -0.756045,0.680115 V 90.65414 l 0.831649,-0.793468 c 0.226813,-0.188921 0.567033,-0.340058 0.907253,-0.340058 0.302418,0 0.642638,0.151137 0.869451,0.340058 0.226813,0.226705 0.378022,0.528979 0.378022,0.831252 z"
         id="path12-2" />
      <path
         style="fill:#860626;fill-opacity:1;fill-rule:evenodd;stroke:none"
         d="m 25.583167,90.691924 c 0,0.340058 -0.113407,0.642331 -0.378023,0.869036 l -2.986374,2.796029 c -0.226814,0.226705 -0.529231,0.340058 -0.869451,0.340058 -0.34022,0 -0.68044,-0.113353 -0.907254,-0.340058 L 17.455691,91.56096 c -0.226814,-0.226705 -0.378023,-0.528978 -0.378023,-0.869036 0,-0.302273 0.151209,-0.604547 0.378023,-0.831252 0.226813,-0.188921 0.567033,-0.340058 0.907253,-0.340058 0.34022,0 0.642637,0.151137 0.869451,0.340058 l 0.831648,0.793468 V 68.701532 c 0,-0.377842 -0.302417,-0.680115 -0.718242,-0.680115 h -0.945055 c -0.718242,0 -1.247473,-0.528979 -1.247473,-1.17131 0,-0.680115 0.529231,-1.209094 1.247473,-1.209094 h 0.945055 c 1.776704,0 3.250991,1.360231 3.250991,3.060519 V 90.65414 l 0.831648,-0.793468 c 0.226814,-0.188921 0.567034,-0.340058 0.907254,-0.340058 0.340219,0 0.642637,0.151137 0.86945,0.340058 0.264616,0.226705 0.378023,0.528979 0.378023,0.831252 z"
         id="path13-7" />
      <path
         style="fill:#860626;fill-opacity:1;fill-rule:evenodd;stroke:none"
         d="M 13.940085,62.8072 C 13.335249,62.73163 12.84382,62.35379 12.617007,61.787027 12.390194,61.069128 12.049974,60.351228 11.671952,59.633329 11.369534,59.10435 11.445138,58.537588 11.823161,58.084178 12.541403,57.215141 12.5036,56.006048 11.671952,55.250364 L 8.57217,52.340982 C 8.156346,51.925356 7.589313,51.736435 6.984477,51.736435 c -0.529231,0 -1.02066,0.151137 -1.436484,0.453411 -0.264615,0.226705 -0.604835,0.340057 -0.945055,0.340057 -0.264616,0 -0.491429,-0.03778 -0.718242,-0.151137 C 3.128651,52.038709 2.372607,51.736435 1.578761,51.471946 1.011727,51.283025 0.595903,50.829615 0.520299,50.262852 0.444694,49.167111 -0.538163,48.335859 -1.710032,48.335859 h -4.385057 c -1.134066,0 -2.079122,0.793468 -2.230331,1.889209 -0.0756,0.566763 -0.453626,1.020173 -1.058462,1.209094 -0.793846,0.226705 -1.587693,0.528979 -2.343737,0.90682 -0.226813,0.113353 -0.453626,0.151137 -0.718242,0.151137 -0.34022,0 -0.642638,-0.113353 -0.945055,-0.302273 -0.378022,-0.302274 -0.907253,-0.453411 -1.398682,-0.453411 -0.604836,0 -1.171869,0.188921 -1.587693,0.604547 l -3.099782,2.909382 c -0.793846,0.755684 -0.869451,1.964777 -0.189011,2.796029 0.415824,0.45341 0.491429,1.020173 0.189011,1.549152 -0.378022,0.717899 -0.718242,1.473583 -0.982857,2.191482 -0.189011,0.566763 -0.642638,0.944605 -1.285276,1.020173 -1.134066,0.113352 -2.003517,1.020173 -2.003517,2.07813 v 4.118475 c 0,1.057957 0.869451,1.964778 2.003517,2.07813 0.642638,0.07557 1.096265,0.415626 1.285276,0.982389 0.264615,0.755683 0.604835,1.511367 0.982857,2.191482 0.302418,0.566763 0.226813,1.095741 -0.189011,1.586936 -0.68044,0.831252 -0.604835,2.040345 0.189011,2.796029 l 3.099782,2.909382 c 0.415824,0.377841 0.982857,0.604546 1.587693,0.604546 0.491429,0 1.02066,-0.151136 1.398682,-0.45341 0.302417,-0.226705 0.604835,-0.340057 0.945055,-0.340057 0.264616,0 0.491429,0.07557 0.718242,0.188921 0.756044,0.340057 1.549891,0.680115 2.343737,0.90682 0.604836,0.188921 0.982858,0.604547 1.058462,1.209094 0.151209,1.057957 1.096265,1.851424 2.230331,1.851424 h 4.385057 c 1.134066,0 2.116924,-0.793467 2.230331,-1.851424 0.0756,-0.604547 0.453626,-1.020173 1.058462,-1.209094 0.793846,-0.226705 1.587693,-0.566763 2.343737,-0.90682 0.226813,-0.113353 0.491429,-0.188921 0.718242,-0.188921 0.34022,0 0.642638,0.113352 0.945055,0.340057 0.415825,0.302274 0.907253,0.45341 1.398682,0.45341 0.604836,0 1.171869,-0.226705 1.587693,-0.604546 l 3.099782,-2.909382 c 0.831648,-0.755684 0.907253,-1.964777 0.189011,-2.796029 -0.378022,-0.453411 -0.415825,-1.020173 -0.151209,-1.549152 0.378022,-0.680115 0.68044,-1.435799 0.982858,-2.229266 0.189011,-0.566763 0.642637,-0.906821 1.247473,-0.982389 1.171868,-0.151137 2.003517,-1.020173 2.003517,-2.07813 V 64.88533 c 0,-1.095741 -0.869451,-2.002562 -2.003517,-2.07813 z m -0.529231,5.9699 c -1.474287,0.264489 -2.646155,1.209094 -3.137584,2.569324 -0.226813,0.642331 -0.491429,1.284662 -0.831649,1.889209 -0.68044,1.284662 -0.567033,2.758245 0.302418,3.891771 l -2.797364,2.569324 c -0.68044,-0.45341 -1.474286,-0.680115 -2.305935,-0.680115 -0.642638,0 -1.247473,0.151136 -1.852309,0.415626 -0.642637,0.302273 -1.285275,0.566762 -2.003517,0.793467 -1.436484,0.453411 -2.457144,1.549152 -2.721759,2.947166 h -3.931431 c -0.264615,-1.398014 -1.285275,-2.493755 -2.721759,-2.947166 -0.68044,-0.226705 -1.36088,-0.491194 -2.003517,-0.793467 -0.567034,-0.26449 -1.209671,-0.415626 -1.814507,-0.415626 -0.831648,0 -1.663297,0.226705 -2.343737,0.680115 l -2.759562,-2.569324 c 0.831649,-1.17131 0.982858,-2.644893 0.264616,-3.929555 -0.302418,-0.604547 -0.604836,-1.209094 -0.793847,-1.851425 -0.491428,-1.36023 -1.701099,-2.342619 -3.175386,-2.569324 v -3.665065 c 1.474287,-0.264489 2.683958,-1.209094 3.175386,-2.569324 0.189011,-0.642331 0.491429,-1.284662 0.793847,-1.889209 0.718242,-1.284662 0.567033,-2.758245 -0.264616,-3.891771 l 2.759562,-2.607108 c 0.68044,0.45341 1.474286,0.680115 2.305935,0.680115 0.642638,0 1.285275,-0.113352 1.852309,-0.415626 0.642637,-0.264489 1.323077,-0.566762 2.003517,-0.755683 1.436484,-0.453411 2.457144,-1.586936 2.721759,-2.947166 h 3.931431 c 0.226813,1.398014 1.247473,2.569324 2.721759,3.022734 0.68044,0.188921 1.323078,0.45341 1.965715,0.755683 0.567033,0.26449 1.209671,0.377842 1.852309,0.377842 0.831648,0 1.663297,-0.226705 2.343737,-0.717899 l 2.797364,2.607108 c -0.907253,1.133526 -1.02066,2.644893 -0.34022,3.929555 0.34022,0.604547 0.604835,1.209094 0.831649,1.851425 0.491428,1.36023 1.701099,2.304835 3.175386,2.569324 z"
         id="path14-6" />
      <path
         style="fill:#860626;fill-opacity:1;fill-rule:evenodd;stroke:none"
         d="m 22.294374,101.53598 c 0,0.64233 -0.529231,1.17131 -1.247473,1.17131 h -5.519123 c -0.68044,0 -1.247473,-0.52898 -1.247473,-1.17131 0,-0.64233 0.567033,-1.17131 1.247473,-1.17131 h 5.519123 c 0.718242,0 1.247473,0.52898 1.247473,1.17131 z"
         id="path15-1" />
      <path
         style="fill:#860626;fill-opacity:1;fill-rule:evenodd;stroke:none"
         d="m 27.964706,107.88372 c 0,0.64234 -0.567033,1.17132 -1.247473,1.17132 H 15.527778 c -0.68044,0 -1.247473,-0.52898 -1.247473,-1.17132 0,-0.68011 0.567033,-1.20909 1.247473,-1.20909 h 11.189455 c 0.68044,0 1.247473,0.52898 1.247473,1.20909 z"
         id="path16-4" />
      <path
         style="fill:#860626;fill-opacity:1;fill-rule:evenodd;stroke:none"
         d="m 5.32118,58.310883 c -2.457144,-2.304835 -5.745937,-3.589497 -9.223741,-3.589497 -3.477803,0 -6.728794,1.284662 -9.22374,3.589497 -5.065497,4.760806 -5.065497,12.506563 0,17.267369 2.494946,2.304835 5.745937,3.551713 9.22374,3.551713 3.477804,0 6.766597,-1.246878 9.223741,-3.551713 5.103299,-4.760806 5.103299,-12.506563 0,-17.267369 z M -4.885418,71.195288 h 2.003517 c 2.38154,0 4.536266,1.549151 5.141101,3.740633 -1.776704,1.209094 -3.893628,1.851425 -6.161761,1.851425 -2.23033,0 -4.347254,-0.642331 -6.16176,-1.851425 0.642637,-2.191482 2.759561,-3.740633 5.178903,-3.740633 z m -2.003517,-5.516491 c 0,-1.549151 1.360879,-2.796029 2.986374,-2.796029 1.663298,0 2.986375,1.246878 2.986375,2.796029 0,1.549152 -1.323077,2.79603 -2.986375,2.79603 -1.625495,0 -2.986374,-1.284662 -2.986374,-2.79603 z m 6.8422,3.665066 c 1.058462,-0.982389 1.663298,-2.267051 1.663298,-3.665066 0,-2.871597 -2.457144,-5.176432 -5.519124,-5.176432 -3.024177,0 -5.481321,2.304835 -5.481321,5.176432 0,1.398015 0.604836,2.682677 1.663298,3.665066 -1.927913,0.680115 -3.477804,2.07813 -4.347255,3.816202 -3.364397,-3.891771 -3.099781,-9.597182 0.718242,-13.186679 2.003518,-1.851424 4.649673,-2.871597 7.447036,-2.871597 2.835167,0 5.481322,1.020173 7.447037,2.871597 3.818023,3.589497 4.120441,9.294908 0.718242,13.186679 -0.869451,-1.738072 -2.419342,-3.136087 -4.309453,-3.816202 z"
         id="path17-2" />
    </g>
  </g>
</svg>
