<?xml version="1.0" encoding="UTF-8" standalone="no"?>
<!-- Created with Inkscape (http://www.inkscape.org/) -->

<svg
   width="72"
   height="72"
   viewBox="0 0 72 72"
   version="1.1"
   id="svg1"
   xmlns="http://www.w3.org/2000/svg"
   xmlns:svg="http://www.w3.org/2000/svg">
  <defs
     id="defs1" />
  <g
     id="layer1">
    <path
       style="fill:#860626;fill-opacity:1;fill-rule:evenodd;stroke:none"
       d="M 65.050174,44.176936 V 9.302143 c 0,-1.246878 -0.49143,-2.418187 -1.36088,-3.287223 C 62.819844,5.145884 61.64797,4.654689 60.400497,4.654689 H 58.094562 V 3.48338 c 0,-0.906821 -0.378022,-1.775857 -1.02066,-2.455972 -0.68044,-0.642331 -1.54989,-1.020173 -2.494946,-1.020173 -0.907253,0 -1.776704,0.377842 -2.457144,1.020173 -0.642637,0.642331 -1.02066,1.549151 -1.02066,2.455972 V 4.654689 H 13.941576 V 3.48338 c 0,-0.906821 -0.378022,-1.775857 -1.02066,-2.455972 -0.642638,-0.642331 -1.549891,-1.020173 -2.457144,-1.020173 -0.945055,0 -1.814506,0.377842 -2.494946,1.020173 C 7.326188,1.669739 6.948166,2.576559 6.948166,3.48338 V 4.654689 H 4.642231 c -1.209671,0 -2.419342,0.491195 -3.288793,1.360231 -0.869451,0.869036 -1.360879,2.040345 -1.360879,3.287223 v 44.094133 c 0,1.24688 0.491428,2.41819 1.360879,3.28723 0.869451,0.86903 2.079122,1.36023 3.288793,1.36023 h 37.235181 c 0.189011,2.56932 1.02066,5.02529 2.457144,7.17899 1.398682,2.1537 3.364397,3.89177 5.63253,5.06308 2.305935,1.2091 4.838683,1.77586 7.409234,1.70029 2.570551,-0.0756 5.065497,-0.83125 7.295824,-2.1537 2.19253,-1.32244 4.04484,-3.17387 5.33012,-5.40314 1.28527,-2.22926 1.96571,-4.72302 2.00351,-7.29234 0.0378,-2.56933 -0.56703,-5.13865 -1.8145,-7.36792 -1.20967,-2.26705 -2.98638,-4.19404 -5.1411,-5.59206 z M 53.44489,3.48338 c 0,-0.302274 0.113406,-0.566763 0.34022,-0.793468 0.226813,-0.226705 0.491428,-0.340058 0.831648,-0.340058 0.302418,0 0.567034,0.113353 0.793847,0.340058 0.226813,0.188921 0.34022,0.491194 0.34022,0.793468 v 4.647454 c 0,0.302273 -0.113407,0.604547 -0.34022,0.831252 -0.189011,0.226705 -0.491429,0.340057 -0.793847,0.340057 -0.34022,0 -0.604835,-0.113352 -0.831648,-0.340057 C 53.558296,8.735381 53.44489,8.433107 53.44489,8.130834 Z m -44.152987,0 c 0,-0.302274 0.113407,-0.566763 0.34022,-0.793468 0.226814,-0.226705 0.529231,-0.340058 0.831649,-0.340058 0.302418,0 0.604836,0.113353 0.831649,0.340058 0.226813,0.188921 0.34022,0.491194 0.34022,0.793468 v 4.647454 c 0,0.302273 -0.113407,0.604547 -0.34022,0.831252 -0.226813,0.226705 -0.529231,0.340057 -0.831649,0.340057 -0.302418,0 -0.604835,-0.113352 -0.831649,-0.340057 C 9.40531,8.735381 9.291903,8.433107 9.291903,8.130834 Z M 4.642231,6.959524 h 2.343737 v 1.17131 c 0,0.944604 0.378022,1.81364 1.02066,2.455971 0.642638,0.642332 1.512089,1.020173 2.457144,1.020173 0.945055,0 1.814506,-0.377841 2.457144,-1.020173 0.68044,-0.642331 1.02066,-1.511367 1.02066,-2.455971 v -1.17131 h 37.197379 v 1.17131 c 0,0.944604 0.34022,1.81364 1.020659,2.455971 0.642638,0.642332 1.512089,1.020173 2.457144,1.020173 0.907254,0 1.814507,-0.377841 2.457144,-1.020173 0.642638,-0.642331 1.02066,-1.511367 1.02066,-2.455971 v -1.17131 h 2.343737 c 0.604836,0 1.209671,0.26449 1.625496,0.680116 0.453626,0.45341 0.680439,1.020172 0.680439,1.662503 v 6.952289 H 2.336296 V 9.302143 c 0,-0.642331 0.226813,-1.209093 0.68044,-1.662503 C 3.43256,7.224014 4.037396,6.959524 4.642231,6.959524 Z M 2.336296,53.396276 V 18.597051 h 60.407938 v 24.370795 c -1.852308,-0.79347 -3.818023,-1.17131 -5.783738,-1.17131 -2.003518,0 -3.931431,0.37784 -5.783739,1.13353 -1.852309,0.75568 -3.515606,1.85142 -4.914288,3.24944 -1.398682,1.39801 -2.494946,3.06051 -3.288793,4.91194 H 41.83961 v -4.64745 h 2.305935 v -2.34262 h -3.477804 c -0.302417,0 -0.604835,0.15113 -0.831648,0.34005 -0.226814,0.22671 -0.34022,0.52898 -0.34022,0.83126 v 6.95229 c 0,0.34005 0.113406,0.60454 0.34022,0.83125 0.226813,0.2267 0.529231,0.34005 0.831648,0.34005 h 1.587693 c -0.189011,0.75569 -0.302417,1.54916 -0.378022,2.34262 H 4.642231 c -0.604835,0 -1.209671,-0.26449 -1.625495,-0.68011 -0.453627,-0.45341 -0.68044,-1.02018 -0.68044,-1.66251 z m 47.63079,14.16907 v -0.2267 c 0,-1.85143 0.718242,-3.62729 2.04132,-4.91195 1.285275,-1.32244 3.061979,-2.04034 4.914287,-2.04034 1.852309,0 3.629013,0.7179 4.914288,2.04034 1.323073,1.28466 2.041323,3.06052 2.041323,4.91195 v 0.2267 c -2.041323,1.36023 -4.460664,2.07813 -6.955611,2.07813 -2.457143,0 -4.876485,-0.7179 -6.955607,-2.07813 z m 3.477804,-12.99776 c 0,-0.68011 0.189011,-1.36023 0.567033,-1.92699 0.378022,-0.60455 0.945055,-1.02017 1.587693,-1.28466 0.642638,-0.26449 1.323077,-0.34006 2.003517,-0.22671 0.68044,0.15114 1.285276,0.4912 1.776704,0.98239 0.491429,0.45341 0.831649,1.09574 0.945056,1.77586 0.151209,0.68011 0.0756,1.36023 -0.189011,2.00256 -0.264616,0.64233 -0.718242,1.17131 -1.285276,1.54915 -0.567033,0.37784 -1.247473,0.60455 -1.927913,0.60455 -0.945055,0 -1.814506,-0.37784 -2.457143,-1.02017 -0.68044,-0.64234 -1.058462,-1.54916 -1.058462,-2.45598 z m 12.625944,11.2219 c -0.26462,-1.51136 -0.86946,-2.90938 -1.77671,-4.11847 -0.94505,-1.20909 -2.154725,-2.1537 -3.515605,-2.79603 0.869451,-0.75568 1.512089,-1.77586 1.776704,-2.94717 0.302421,-1.13352 0.226811,-2.34261 -0.189011,-3.43836 -0.415824,-1.09574 -1.171868,-2.04034 -2.154726,-2.72046 -0.945055,-0.68011 -2.116924,-1.02017 -3.288793,-1.02017 -1.171868,0 -2.343737,0.34006 -3.288792,1.02017 -0.982858,0.68012 -1.738902,1.62472 -2.154726,2.72046 -0.415825,1.09574 -0.453627,2.30484 -0.189011,3.43836 0.302417,1.17131 0.907253,2.19149 1.776704,2.94717 -1.36088,0.64233 -2.570551,1.58694 -3.477804,2.79603 -0.945055,1.20909 -1.549891,2.60711 -1.814506,4.11847 -1.738902,-1.81364 -2.910771,-4.08069 -3.4022,-6.53666 -0.453626,-2.49375 -0.189011,-5.02529 0.793847,-7.36791 0.982857,-2.30484 2.608353,-4.26962 4.687474,-5.66763 2.116924,-1.39801 4.574068,-2.11591 7.069014,-2.11591 2.494947,0 4.952091,0.75568 7.069011,2.11591 2.07913,1.39801 3.70462,3.36279 4.68748,5.66763 0.98286,2.34262 1.24747,4.87416 0.79384,7.36791 -0.45362,2.45597 -1.66329,4.72302 -3.40219,6.53666 z"
       id="path1-0" />
    <path
       style="fill:#860626;fill-opacity:1;fill-rule:evenodd;stroke:none"
       d="M 12.769707,20.901886 H 5.8141 c -0.302418,0 -0.604836,0.113353 -0.831649,0.340058 -0.189011,0.226705 -0.34022,0.528978 -0.34022,0.831252 v 6.952289 c 0,0.302273 0.151209,0.604547 0.34022,0.831252 0.226813,0.226705 0.529231,0.340057 0.831649,0.340057 h 6.955607 c 0.34022,0 0.604836,-0.113352 0.831649,-0.340057 0.226813,-0.226705 0.34022,-0.528979 0.34022,-0.831252 v -6.952289 c 0,-0.302274 -0.113407,-0.604547 -0.34022,-0.831252 -0.189011,-0.226705 -0.491429,-0.340058 -0.831649,-0.340058 z m -2.797364,2.342619 -2.986375,2.984951 v -2.984951 z m -1.360879,4.60967 3.024177,-2.98495 v 2.98495 z"
       id="path2-0" />
    <path
       style="fill:#860626;fill-opacity:1;fill-rule:evenodd;stroke:none"
       d="M 24.374987,20.901886 H 17.41938 c -0.302418,0 -0.604836,0.113353 -0.831649,0.340058 -0.226813,0.226705 -0.34022,0.528978 -0.34022,0.831252 v 6.952289 c 0,0.302273 0.151209,0.604547 0.34022,0.831252 0.226813,0.226705 0.529231,0.340057 0.831649,0.340057 h 6.955607 c 0.34022,0 0.604835,-0.113352 0.831649,-0.340057 0.226813,-0.226705 0.34022,-0.528979 0.34022,-0.831252 v -6.952289 c 0,-0.302274 -0.113407,-0.604547 -0.34022,-0.831252 -0.189011,-0.226705 -0.491429,-0.340058 -0.831649,-0.340058 z m -2.797364,2.342619 -2.986375,2.984951 v -2.984951 z m -1.36088,4.60967 3.024178,-2.98495 v 2.98495 z"
       id="path3-6" />
    <path
       style="fill:#860626;fill-opacity:1;fill-rule:evenodd;stroke:none"
       d="m 36.018069,20.901886 h -6.955607 c -0.34022,0 -0.604836,0.113353 -0.831649,0.340058 -0.226813,0.226705 -0.34022,0.528978 -0.34022,0.831252 v 6.952289 c 0,0.302273 0.113407,0.604547 0.34022,0.831252 0.226813,0.226705 0.491429,0.340057 0.831649,0.340057 h 6.955607 c 0.302418,0 0.604835,-0.113352 0.831649,-0.340057 0.226813,-0.226705 0.34022,-0.528979 0.34022,-0.831252 v -6.952289 c 0,-0.302274 -0.113407,-0.604547 -0.34022,-0.831252 -0.226814,-0.226705 -0.529231,-0.340058 -0.831649,-0.340058 z m -2.797364,2.342619 -3.024177,2.984951 v -2.984951 z m -1.36088,4.60967 2.986375,-2.98495 v 2.98495 z"
       id="path4-1" />
    <path
       style="fill:#860626;fill-opacity:1;fill-rule:evenodd;stroke:none"
       d="m 40.667741,30.196794 h 6.955608 c 0.302417,0 0.604835,-0.113352 0.831648,-0.340057 0.226814,-0.226705 0.34022,-0.528979 0.34022,-0.831252 v -6.952289 c 0,-0.340058 -0.113406,-0.604547 -0.34022,-0.831252 -0.226813,-0.226705 -0.529231,-0.340058 -0.831648,-0.340058 h -6.955608 c -0.302417,0 -0.604835,0.113353 -0.831648,0.340058 -0.226814,0.226705 -0.34022,0.491194 -0.34022,0.831252 v 6.952289 c 0,0.302273 0.113406,0.604547 0.34022,0.831252 0.226813,0.226705 0.529231,0.340057 0.831648,0.340057 z m 1.171869,-6.952289 h 4.61187 v 4.60967 h -4.61187 z"
       id="path5-3" />
    <path
       style="fill:#860626;fill-opacity:1;fill-rule:evenodd;stroke:none"
       d="m 52.273021,30.196794 h 6.955608 c 0.302417,0 0.604835,-0.113352 0.831648,-0.340057 0.226814,-0.226705 0.34022,-0.528979 0.34022,-0.831252 v -6.952289 c 0,-0.340058 -0.113406,-0.604547 -0.34022,-0.831252 -0.226813,-0.226705 -0.529231,-0.340058 -0.831648,-0.340058 h -6.955608 c -0.302418,0 -0.604835,0.113353 -0.831649,0.340058 -0.226813,0.226705 -0.34022,0.491194 -0.34022,0.831252 v 6.952289 c 0,0.302273 0.113407,0.604547 0.34022,0.831252 0.226814,0.226705 0.529231,0.340057 0.831649,0.340057 z m 1.171869,-6.952289 h 4.649672 v 4.60967 H 53.44489 Z"
       id="path6-8" />
    <path
       style="fill:#860626;fill-opacity:1;fill-rule:evenodd;stroke:none"
       d="M 12.769707,32.501626 H 5.8141 c -0.302418,0 -0.604836,0.15114 -0.831649,0.34006 -0.189011,0.22671 -0.34022,0.52898 -0.34022,0.83125 v 6.95229 c 0,0.34006 0.151209,0.60455 0.34022,0.83125 0.226813,0.22671 0.529231,0.34006 0.831649,0.34006 h 6.955607 c 0.34022,0 0.604836,-0.11335 0.831649,-0.34006 0.226813,-0.18892 0.34022,-0.49119 0.34022,-0.83125 v -6.95229 c 0,-0.30227 -0.113407,-0.60454 -0.34022,-0.83125 -0.189011,-0.18892 -0.491429,-0.34006 -0.831649,-0.34006 z m -2.797364,2.34262 -2.986375,2.98495 v -2.98495 z m -1.360879,4.64746 3.024177,-3.02274 v 3.02274 z"
       id="path7-9" />
    <path
       style="fill:#860626;fill-opacity:1;fill-rule:evenodd;stroke:none"
       d="M 24.374987,32.501626 H 17.41938 c -0.302418,0 -0.604836,0.15114 -0.831649,0.34006 -0.189011,0.22671 -0.34022,0.52898 -0.34022,0.83125 v 6.95229 c 0,0.34006 0.151209,0.60455 0.34022,0.83125 0.226813,0.22671 0.529231,0.34006 0.831649,0.34006 h 6.955607 c 0.34022,0 0.604835,-0.11335 0.831649,-0.34006 0.226813,-0.18892 0.34022,-0.49119 0.34022,-0.83125 v -6.95229 c 0,-0.30227 -0.113407,-0.60454 -0.34022,-0.83125 -0.189011,-0.18892 -0.491429,-0.34006 -0.831649,-0.34006 z m -1.134066,6.99008 h -4.649673 v -4.64746 h 4.649673 z"
       id="path8-3" />
    <path
       style="fill:#860626;fill-opacity:1;fill-rule:evenodd;stroke:none"
       d="m 36.018069,32.501626 h -6.955607 c -0.34022,0 -0.604836,0.15114 -0.831649,0.34006 -0.226813,0.22671 -0.34022,0.52898 -0.34022,0.83125 v 6.95229 c 0,0.34006 0.113407,0.60455 0.34022,0.83125 0.226813,0.22671 0.491429,0.34006 0.831649,0.34006 h 6.955607 c 0.302418,0 0.604835,-0.11335 0.831649,-0.34006 0.226813,-0.18892 0.34022,-0.49119 0.34022,-0.83125 v -6.95229 c 0,-0.30227 -0.113407,-0.60454 -0.34022,-0.83125 -0.226814,-0.18892 -0.529231,-0.34006 -0.831649,-0.34006 z m -1.171869,6.99008 h -4.649672 v -4.64746 H 34.8462 Z"
       id="path9-4" />
    <path
       style="fill:#860626;fill-opacity:1;fill-rule:evenodd;stroke:none"
       d="m 40.667741,41.796536 h 6.955608 c 0.302417,0 0.604835,-0.11335 0.831648,-0.34006 0.226814,-0.2267 0.34022,-0.52898 0.34022,-0.83125 v -6.95229 c 0,-0.30227 -0.113406,-0.60454 -0.34022,-0.83125 -0.226813,-0.2267 -0.529231,-0.34006 -0.831648,-0.34006 h -6.955608 c -0.302417,0 -0.604835,0.11336 -0.831648,0.34006 -0.226814,0.22671 -0.34022,0.52898 -0.34022,0.83125 v 6.95229 c 0,0.30227 0.113406,0.60455 0.34022,0.83125 0.226813,0.22671 0.529231,0.34006 0.831648,0.34006 z m 2.797364,-2.30483 2.986375,-3.02274 v 3.02274 z m 1.36088,-4.64746 -2.986375,2.98495 v -2.98495 z"
       id="path10-4" />
    <path
       style="fill:#860626;fill-opacity:1;fill-rule:evenodd;stroke:none"
       d="m 53.44489,34.844246 h 4.649672 v 5.78098 h 2.305935 v -6.95229 c 0,-0.30227 -0.113406,-0.60454 -0.34022,-0.83125 -0.226813,-0.2267 -0.529231,-0.34006 -0.831648,-0.34006 h -6.955608 c -0.302418,0 -0.604835,0.11336 -0.831649,0.34006 -0.226813,0.22671 -0.34022,0.52898 -0.34022,0.83125 v 6.95229 h 2.305936 v -5.78098 z"
       id="path11-6" />
    <path
       style="fill:#860626;fill-opacity:1;fill-rule:evenodd;stroke:none"
       d="M 12.769707,44.139156 H 5.8141 c -0.302418,0 -0.604836,0.11335 -0.831649,0.34006 -0.189011,0.18892 -0.34022,0.49119 -0.34022,0.79347 v 6.99007 c 0,0.30227 0.151209,0.60455 0.34022,0.83125 0.226813,0.18892 0.529231,0.34006 0.831649,0.34006 h 6.955607 c 0.34022,0 0.604836,-0.15114 0.831649,-0.34006 0.226813,-0.2267 0.34022,-0.52898 0.34022,-0.83125 v -6.99007 c 0,-0.30228 -0.113407,-0.56677 -0.34022,-0.79347 -0.189011,-0.22671 -0.491429,-0.34006 -0.831649,-0.34006 z m -1.134066,6.95229 H 6.985968 v -4.64745 h 4.649673 z"
       id="path12-0" />
    <path
       style="fill:#860626;fill-opacity:1;fill-rule:evenodd;stroke:none"
       d="M 24.374987,44.139156 H 17.41938 c -0.302418,0 -0.604836,0.11335 -0.831649,0.34006 -0.189011,0.18892 -0.34022,0.49119 -0.34022,0.79347 v 6.99007 c 0,0.30227 0.151209,0.60455 0.34022,0.83125 0.226813,0.18892 0.529231,0.34006 0.831649,0.34006 h 6.955607 c 0.34022,0 0.604835,-0.15114 0.831649,-0.34006 0.226813,-0.2267 0.34022,-0.52898 0.34022,-0.83125 v -6.99007 c 0,-0.30228 -0.113407,-0.56677 -0.34022,-0.79347 -0.189011,-0.22671 -0.491429,-0.34006 -0.831649,-0.34006 z m -2.797364,2.30484 -2.986375,2.98495 v -2.98495 z m -1.36088,4.64745 3.024178,-3.02274 v 3.02274 z"
       id="path13-6" />
    <path
       style="fill:#860626;fill-opacity:1;fill-rule:evenodd;stroke:none"
       d="m 36.018069,44.139156 h -6.955607 c -0.34022,0 -0.604836,0.11335 -0.831649,0.34006 -0.226813,0.18892 -0.34022,0.49119 -0.34022,0.79347 v 6.99007 c 0,0.30227 0.113407,0.60455 0.34022,0.83125 0.226813,0.18892 0.491429,0.34006 0.831649,0.34006 h 6.955607 c 0.302418,0 0.604835,-0.15114 0.831649,-0.34006 0.226813,-0.2267 0.34022,-0.52898 0.34022,-0.83125 v -6.99007 c 0,-0.30228 -0.113407,-0.56677 -0.34022,-0.79347 -0.226814,-0.22671 -0.529231,-0.34006 -0.831649,-0.34006 z m -1.171869,6.95229 h -4.649672 v -4.64745 H 34.8462 Z"
       id="path14-6" />
  </g>
</svg>
