<?xml version="1.0" encoding="UTF-8" standalone="no"?>
<!-- Created with Inkscape (http://www.inkscape.org/) -->

<svg
   width="72"
   height="72"
   viewBox="0 0 72 72"
   version="1.1"
   id="svg1"
   xmlns="http://www.w3.org/2000/svg"
   xmlns:svg="http://www.w3.org/2000/svg">
  <defs
     id="defs1" />
  <g
     id="layer1">
    <path
       style="fill:#860626;fill-opacity:1;fill-rule:evenodd;stroke:none"
       d="m 64.351662,59.709573 h -3.4778 c -1.13407,0 -2.04132,0.90682 -2.04132,2.040345 v 1.209094 c 0,1.133525 0.90725,2.07813 2.04132,2.07813 h 3.4778 c 1.13407,0 2.07912,-0.944605 2.07912,-2.07813 v -1.209094 c 0,-1.133525 -0.94505,-2.040345 -2.07912,-2.040345 z m -0.18901,3.060518 h -3.09978 v -0.831252 h 3.09978 z"
       id="path1-0" />
    <path
       style="fill:#860626;fill-opacity:1;fill-rule:evenodd;stroke:none"
       d="m 55.883962,59.709573 h -3.4778 c -1.134067,0 -2.079122,0.90682 -2.079122,2.040345 v 1.209094 c 0,1.133525 0.945055,2.07813 2.079122,2.07813 h 3.4778 c 1.13407,0 2.04132,-0.944605 2.04132,-2.07813 v -1.209094 c 0,-1.133525 -0.90725,-2.040345 -2.04132,-2.040345 z m -0.22681,3.060518 h -3.061979 v -0.831252 h 3.061979 z"
       id="path2-7" />
    <path
       style="fill:#860626;fill-opacity:1;fill-rule:evenodd;stroke:none"
       d="m 47.378467,59.709573 h -3.477804 c -1.134066,0 -2.041319,0.90682 -2.041319,2.040345 v 1.209094 c 0,1.133525 0.907253,2.07813 2.041319,2.07813 h 3.477804 c 1.134066,0 2.04132,-0.944605 2.04132,-2.07813 v -1.209094 c 0,-1.133525 -0.907254,-2.040345 -2.04132,-2.040345 z m -0.189011,3.060518 h -3.099782 v -0.831252 h 3.099782 z"
       id="path3-1" />
    <path
       style="fill:#860626;fill-opacity:1;fill-rule:evenodd;stroke:none"
       d="m 64.351662,53.17291 h -3.4778 c -1.13407,0 -2.04132,0.944604 -2.04132,2.078129 v 1.209094 c 0,1.133525 0.90725,2.040346 2.04132,2.040346 h 3.4778 c 1.13407,0 2.07912,-0.906821 2.07912,-2.040346 v -1.209094 c 0,-1.133525 -0.94505,-2.078129 -2.07912,-2.078129 z m -0.18901,3.098302 h -3.09978 V 55.43996 h 3.09978 z"
       id="path4-7" />
    <path
       style="fill:#860626;fill-opacity:1;fill-rule:evenodd;stroke:none"
       d="m 55.883962,53.17291 h -3.4778 c -1.134067,0 -2.079122,0.944604 -2.079122,2.078129 v 1.209094 c 0,1.133525 0.945055,2.040346 2.079122,2.040346 h 3.4778 c 1.13407,0 2.04132,-0.906821 2.04132,-2.040346 v -1.209094 c 0,-1.133525 -0.90725,-2.078129 -2.04132,-2.078129 z m -0.22681,3.098302 H 52.595173 V 55.43996 h 3.061979 z"
       id="path5-7" />
    <path
       style="fill:#860626;fill-opacity:1;fill-rule:evenodd;stroke:none"
       d="m 47.378467,53.17291 h -3.477804 c -1.134066,0 -2.041319,0.944604 -2.041319,2.078129 v 1.209094 c 0,1.133525 0.907253,2.040346 2.041319,2.040346 h 3.477804 c 1.134066,0 2.04132,-0.906821 2.04132,-2.040346 v -1.209094 c 0,-1.133525 -0.907254,-2.078129 -2.04132,-2.078129 z m -0.189011,3.098302 H 44.089674 V 55.43996 h 3.099782 z"
       id="path6-7" />
    <path
       style="fill:#860626;fill-opacity:1;fill-rule:evenodd;stroke:none"
       d="m 64.351662,46.674031 h -3.4778 c -1.13407,0 -2.04132,0.90682 -2.04132,2.040345 v 1.209094 c 0,1.133526 0.90725,2.07813 2.04132,2.07813 h 3.4778 c 1.13407,0 2.07912,-0.944604 2.07912,-2.07813 v -1.209094 c 0,-1.133525 -0.94505,-2.040345 -2.07912,-2.040345 z m -0.18901,3.060518 h -3.09978 v -0.793467 h 3.09978 z"
       id="path7-7" />
    <path
       style="fill:#860626;fill-opacity:1;fill-rule:evenodd;stroke:none"
       d="m 55.883962,46.674031 h -3.4778 c -1.134067,0 -2.079122,0.90682 -2.079122,2.040345 v 1.209094 c 0,1.133526 0.945055,2.07813 2.079122,2.07813 h 3.4778 c 1.13407,0 2.04132,-0.944604 2.04132,-2.07813 v -1.209094 c 0,-1.133525 -0.90725,-2.040345 -2.04132,-2.040345 z m -0.22681,3.060518 h -3.061979 v -0.793467 h 3.061979 z"
       id="path8-3" />
    <path
       style="fill:#860626;fill-opacity:1;fill-rule:evenodd;stroke:none"
       d="m 47.378467,46.674031 h -3.477804 c -1.134066,0 -2.041319,0.90682 -2.041319,2.040345 v 1.209094 c 0,1.133526 0.907253,2.07813 2.041319,2.07813 h 3.477804 c 1.134066,0 2.04132,-0.944604 2.04132,-2.07813 v -1.209094 c 0,-1.133525 -0.907254,-2.040345 -2.04132,-2.040345 z m -0.189011,3.060518 h -3.099782 v -0.793467 h 3.099782 z"
       id="path9-3" />
    <path
       style="fill:#860626;fill-opacity:1;fill-rule:evenodd;stroke:none"
       d="M 65.712542,30.955812 H 46.471214 V 9.758888 c 0,-0.604547 -0.226813,-1.17131 -0.68044,-1.586936 L 39.477804,1.861995 C 39.06198,1.408584 38.494947,1.181879 37.890111,1.181879 H 3.37669 c -1.247473,0 -2.268133,1.020173 -2.268133,2.267051 v 53.577966 c 0,1.246878 1.02066,2.229266 2.268133,2.229266 h 34.021992 v 6.385527 c 0,2.871597 2.305936,5.176432 5.141102,5.176432 h 23.172758 c 2.83517,0 5.1789,-2.304835 5.1789,-5.176432 V 36.094461 c 0,-2.833814 -2.34373,-5.138649 -5.1789,-5.138649 z M 42.615388,8.171952 H 39.477804 V 5.035866 Z m 26.007924,57.469737 c 0,1.624719 -1.32308,2.947166 -2.91077,2.947166 H 42.539784 c -1.587693,0 -2.910771,-1.322447 -2.910771,-2.947166 V 36.094461 c 0,-1.586936 1.323078,-2.909382 2.910771,-2.909382 h 23.172758 c 1.58769,0 2.91077,1.322446 2.91077,2.909382 z M 3.37669,57.026896 V 3.44893 h 33.870784 v 5.289785 c 0,0.90682 0.756044,1.662504 1.663297,1.662504 h 5.29231 v 20.554593 h -1.663297 c -2.835166,0 -5.141102,2.304835 -5.141102,5.138649 v 1.36023 H 8.215373 c -0.604835,0 -1.096264,0.491194 -1.096264,1.133525 0,0.604547 0.491429,1.095742 1.096264,1.095742 h 29.183309 v 4.382964 H 8.215373 c -0.604835,0 -1.096264,0.528979 -1.096264,1.133526 0,0.604547 0.491429,1.133525 1.096264,1.133525 h 29.183309 v 4.382965 H 8.215373 c -0.604835,0 -1.096264,0.491194 -1.096264,1.095741 0,0.642331 0.491429,1.133525 1.096264,1.133525 h 29.183309 v 4.080692 z"
       id="path10-5" />
    <path
       style="fill:#860626;fill-opacity:1;fill-rule:evenodd;stroke:none"
       d="m 9.53845,23.512329 1.738902,0.680115 c 0.264616,0.944605 0.642638,1.813641 1.134067,2.682677 l -0.756044,1.738072 c -0.189012,0.415626 -0.113407,0.906821 0.226813,1.246878 l 2.646155,2.644893 c 0.34022,0.340057 0.831649,0.415626 1.247473,0.226705 l 1.738902,-0.755684 c 0.831648,0.45341 1.738902,0.831252 2.683957,1.095741 l 0.68044,1.775857 c 0.151209,0.415626 0.567033,0.717899 1.02066,0.717899 h 3.780221 c 0.453627,0 0.869451,-0.302273 1.02066,-0.717899 l 0.68044,-1.775857 c 0.945055,-0.264489 1.852308,-0.642331 2.683957,-1.095741 l 1.738902,0.755684 c 0.415824,0.188921 0.907253,0.113352 1.247473,-0.226705 l 2.646155,-2.644893 c 0.34022,-0.340057 0.415824,-0.831252 0.226813,-1.246878 l -0.756044,-1.738072 c 0.491429,-0.869036 0.869451,-1.738072 1.134066,-2.682677 l 1.738902,-0.680115 c 0.453627,-0.151137 0.718242,-0.566763 0.718242,-1.057957 v -3.740634 c 0,-0.45341 -0.264615,-0.869036 -0.718242,-1.057957 l -1.738902,-0.680115 c -0.264615,-0.90682 -0.642637,-1.81364 -1.134066,-2.682677 l 0.756044,-1.700288 c 0.189011,-0.45341 0.113407,-0.944604 -0.226813,-1.284662 L 33.051428,8.663147 C 32.711208,8.360873 32.219779,8.247521 31.803955,8.436442 L 30.065053,9.192125 C 29.233404,8.738715 28.326151,8.360873 27.381096,8.096384 l -0.68044,-1.775856 c -0.151209,-0.415626 -0.567033,-0.7179 -1.02066,-0.7179 h -3.780221 c -0.453627,0 -0.869451,0.302274 -1.02066,0.7179 l -0.68044,1.775856 C 19.25362,8.360873 18.346366,8.738715 17.514718,9.192125 L 15.775816,8.436442 C 15.359992,8.247521 14.868563,8.360872 14.528343,8.663147 l -2.646155,2.644892 c -0.34022,0.340058 -0.415825,0.831252 -0.226813,1.284662 l 0.756044,1.700288 c -0.491429,0.869037 -0.869451,1.775857 -1.134067,2.682677 L 9.53845,17.655781 c -0.453626,0.188921 -0.718242,0.604547 -0.718242,1.057957 v 3.740634 c 0,0.491194 0.264616,0.90682 0.718242,1.057957 z m 1.512089,-4.042907 1.587693,-0.604547 c 0.34022,-0.113352 0.604836,-0.415626 0.68044,-0.755683 0.264615,-1.133526 0.718242,-2.191483 1.285275,-3.136087 0.226814,-0.340058 0.226814,-0.7179 0.0756,-1.057957 l -0.68044,-1.549152 1.549891,-1.549151 1.54989,0.680115 c 0.34022,0.151137 0.756045,0.113353 1.058462,-0.07557 0.982858,-0.604547 2.04132,-1.020173 3.137584,-1.284662 0.34022,-0.07557 0.642638,-0.340058 0.793847,-0.680115 l 0.60484,-1.586934 h 2.192529 l 0.604835,1.586936 c 0.151209,0.340057 0.415824,0.604546 0.793846,0.680115 1.096265,0.264489 2.154727,0.680115 3.137584,1.284662 0.302418,0.188921 0.718242,0.226705 1.058462,0.07557 l 1.512089,-0.680115 1.587693,1.549151 -0.68044,1.549152 c -0.151209,0.340057 -0.151209,0.717899 0.0378,1.057957 0.604836,0.944604 1.058462,2.002561 1.323078,3.136087 0.0756,0.340057 0.34022,0.642331 0.68044,0.755683 l 1.587693,0.604547 v 2.229267 l -1.587693,0.604546 c -0.34022,0.113353 -0.604836,0.415626 -0.68044,0.793468 -0.264616,1.095741 -0.718242,2.153698 -1.323078,3.136087 -0.189011,0.302273 -0.189011,0.680115 -0.0378,1.020173 l 0.68044,1.549151 -1.587693,1.549151 -1.512089,-0.680115 c -0.34022,-0.151136 -0.756044,-0.113352 -1.058462,0.07557 -0.982857,0.604546 -2.041319,1.020172 -3.137584,1.284662 -0.378022,0.113352 -0.642637,0.377842 -0.793846,0.717899 L 24.88615,33.298434 H 22.693621 L 22.088786,31.74928 c -0.151209,-0.340057 -0.453627,-0.604547 -0.793847,-0.717899 -1.096264,-0.26449 -2.154726,-0.680116 -3.137584,-1.284662 -0.302417,-0.188921 -0.718242,-0.226705 -1.058462,-0.07557 l -1.54989,0.680115 -1.549891,-1.549151 0.68044,-1.549151 c 0.151209,-0.340058 0.151209,-0.7179 -0.0756,-1.020173 -0.567033,-0.982389 -1.02066,-2.040346 -1.285275,-3.136087 -0.0756,-0.377842 -0.34022,-0.680115 -0.68044,-0.793468 l -1.587693,-0.604546 z"
       id="path11-9" />
    <path
       style="fill:#860626;fill-opacity:1;fill-rule:evenodd;stroke:none"
       d="M 64.351662,36.736792 H 43.900663 c -1.134066,0 -2.041319,0.944604 -2.041319,2.07813 v 3.627281 c 0,1.133525 0.907253,2.040345 2.041319,2.040345 h 20.450999 c 1.13407,0 2.07912,-0.90682 2.07912,-2.040345 v -3.627281 c 0,-1.133526 -0.94505,-2.07813 -2.07912,-2.07813 z m -0.18901,5.51649 H 44.089674 v -3.24944 h 20.072978 z"
       id="path12-9" />
    <path
       style="fill:#860626;fill-opacity:1;fill-rule:nonzero;stroke:none"
       d="m 16.040431,23.739034 v -9.105987 c 0,-0.340058 0.226814,-0.566763 0.567034,-0.566763 h 3.780221 c 1.096264,0 1.890111,0.07557 2.38154,0.26449 0.491428,0.188921 0.907253,0.528978 1.20967,0.982388 0.302418,0.45341 0.453627,1.020173 0.453627,1.62472 0,0.755684 -0.226813,1.398015 -0.68044,1.889209 -0.264615,0.302273 -0.567033,0.491194 -0.982857,0.680115 -0.151209,0.07557 -0.302418,0.226705 -0.302418,0.415626 -0.0378,0.188921 0,0.377842 0.151209,0.491194 0.0756,0.07557 0.151209,0.151137 0.226813,0.226706 0.264615,0.302273 0.68044,0.869036 1.171869,1.662503 l 0.680439,1.133526 c 0.113407,0.188921 0.113407,0.377842 0.0378,0.566762 -0.113407,0.188921 -0.302418,0.302274 -0.491429,0.302274 H 23.07164 c -0.189011,0 -0.34022,-0.113353 -0.453626,-0.264489 L 21.294939,22.07653 c -0.529231,-0.793467 -0.907253,-1.322446 -1.096264,-1.511367 -0.189011,-0.226705 -0.415824,-0.340057 -0.604835,-0.415626 -0.226814,-0.07557 -0.529231,-0.113352 -0.907254,-0.113352 -0.151208,0 -0.302417,0.03778 -0.415824,0.151136 -0.113407,0.113353 -0.151209,0.26449 -0.151209,0.415626 v 3.136087 c 0,0.302274 -0.264615,0.566763 -0.567033,0.566763 h -0.945055 c -0.34022,0 -0.567034,-0.264489 -0.567034,-0.566763 z m 2.646155,-5.365353 h 0.945056 c 0.982857,0 1.625495,-0.03778 1.852308,-0.113353 0.264616,-0.07557 0.453627,-0.226705 0.604836,-0.415626 0.113406,-0.226705 0.189011,-0.491194 0.189011,-0.793467 0,-0.340058 -0.0756,-0.604547 -0.264616,-0.831252 -0.189011,-0.226705 -0.453626,-0.340058 -0.793846,-0.415626 -0.151209,0 -0.642638,0 -1.512089,0 h -1.02066 c -0.34022,0 -0.567033,0.226705 -0.567033,0.566762 v 1.435799 c 0,0.340058 0.226813,0.566763 0.567033,0.566763 z m 7.862861,-1.511367 h 0.718242 c 0.302418,0 0.567033,0.264489 0.567033,0.566762 v 0.528979 c 0.226814,-0.377842 0.567033,-0.680115 0.945056,-0.90682 0.415824,-0.226706 0.869451,-0.340058 1.360879,-0.340058 0.869451,0 1.587693,0.340058 2.192529,1.020173 0.604835,0.680115 0.907253,1.624719 0.907253,2.833813 0,1.246878 -0.302418,2.191483 -0.907253,2.871598 -0.604836,0.717899 -1.323078,1.057957 -2.192529,1.057957 -0.415824,0 -0.793846,-0.07557 -1.134066,-0.264489 -0.0378,-0.03778 -0.113407,-0.03778 -0.189011,-0.07557 -0.189011,-0.113352 -0.378022,-0.113352 -0.567033,-0.03778 -0.189011,0.113353 -0.302418,0.302273 -0.302418,0.491194 v 1.926993 c 0,0.340058 -0.226813,0.566763 -0.567033,0.566763 h -0.831649 c -0.302418,0 -0.567033,-0.226705 -0.567033,-0.566763 v -9.105987 c 0,-0.302273 0.264615,-0.566762 0.567033,-0.566762 z m 1.398682,3.627281 c 0,0.831252 0.151209,1.435799 0.491429,1.851425 0.302417,0.377841 0.718242,0.604546 1.209671,0.604546 0.453626,0 0.831648,-0.18892 1.134066,-0.566762 0.302418,-0.377842 0.453627,-0.982389 0.453627,-1.813641 0,-0.793468 -0.151209,-1.36023 -0.491429,-1.738072 -0.302418,-0.377842 -0.68044,-0.566763 -1.134067,-0.566763 -0.491428,0 -0.907253,0.188921 -1.209671,0.566763 -0.302417,0.377842 -0.453626,0.90682 -0.453626,1.662504 z"
       id="path13-8" />
  </g>
</svg>
