<?xml version="1.0" encoding="UTF-8" standalone="no"?>
<!-- Created with Inkscape (http://www.inkscape.org/) -->

<svg
   width="72"
   height="72"
   viewBox="0 0 72 72"
   version="1.1"
   id="svg1"
   xmlns="http://www.w3.org/2000/svg"
   xmlns:svg="http://www.w3.org/2000/svg">
  <defs
     id="defs1" />
  <g
     id="layer1">
    <path
       style="fill:#860626;fill-opacity:1;fill-rule:evenodd;stroke:none"
       d="m 68.648694,34.431957 c -0.15121,-0.642331 -0.34022,-1.284662 -0.56703,-1.926993 -2.26813,-6.045469 -8.08967,-10.12616 -14.478248,-10.12616 -0.226813,0 -0.453627,0 -0.68044,0.03778 v -3.702849 c 2.041318,-0.793468 4.120438,-1.62472 6.199568,-2.493756 1.02066,-0.415626 2.26813,-1.246878 2.64615,-2.418188 0.22681,-0.642331 0.11341,-1.36023 -0.26461,-2.002561 -0.64264,-1.095737 -1.77671,-1.6625 -2.83517,-2.078126 C 52.204734,7.15178 45.778358,4.544671 39.389783,1.937563 L 38.293519,1.521937 C 37.386266,1.144095 36.327804,0.879606 35.193738,0.690685 34.286484,0.577333 33.379231,0.501764 32.434176,0.501764 c -0.567033,0 -1.171869,0.03778 -1.738902,0.07557 -1.02066,0.07557 -2.003517,0.264489 -2.872968,0.528978 -0.529231,0.113353 -1.134067,0.340058 -1.814507,0.604547 L 5.821417,9.872242 c -0.756044,0.264489 -1.738902,0.831252 -2.38154,1.700288 -0.453626,0.642331 -0.604835,1.473583 -0.378022,2.191482 0.415825,1.398015 1.965715,2.191483 2.608353,2.455972 2.079122,0.831252 4.120441,1.662504 6.237366,2.493756 v 14.622477 c 0,0.415626 0.302417,0.90682 0.945055,1.549151 1.663297,1.511367 4.044837,2.758247 7.069014,3.551717 2.457144,0.68011 5.141101,1.13352 8.20308,1.32244 1.436485,0.11335 2.872969,0.15114 4.309453,0.15114 1.965715,0 3.93143,-0.0756 5.859343,-0.26449 0.0756,0.45341 0.113407,0.83125 0.189011,1.24688 -4.460661,0 -8.959125,0 -13.49539,0 -4.536266,0 -9.412752,0 -14.175831,0 -1.852308,0 -3.288792,1.02017 -3.780221,2.72046 -0.113407,0.34006 -0.189011,0.7179 -0.189011,1.05796 0,2.15369 0,4.34518 0,6.57444 0,0.64233 0.0378,1.09574 0.151209,1.4358 0.453626,1.6625 1.927913,2.79603 3.629012,2.79603 h 46.988156 c 0.71824,0 1.13406,-0.60455 1.13406,-1.17131 0,-0.56676 -0.37802,-1.13352 -1.13406,-1.13352 0,0 -0.45363,0 -0.68044,0 h -0.34022 v -0.0756 c 5.1033,-1.05796 9.29934,-4.49632 11.26506,-9.25713 1.24747,-3.02273 1.51209,-6.1966 0.79384,-9.408257 z M 6.955483,14.29299 C 5.821417,13.83958 5.329988,13.386169 5.254384,13.159464 c 0,-0.03778 -0.0378,-0.113352 0.0756,-0.264489 0.264616,-0.340058 0.718242,-0.642331 1.398682,-0.90682 6.917805,-2.79603 13.835611,-5.592059 20.753416,-8.350304 0.604835,-0.264489 1.398682,-0.45341 2.268133,-0.604547 0.831648,-0.151136 1.738902,-0.226705 2.646155,-0.226705 0.491428,0 1.058462,0.03778 1.587693,0.07557 1.285275,0.113353 2.57055,0.415626 3.742419,0.869036 5.178903,2.115914 10.395609,4.231828 15.650117,6.309958 l 4.611875,1.851425 c 0.52923,0.226705 1.09626,0.491195 1.51209,0.944605 0.1134,0.151137 0.1134,0.226705 0.1134,0.264489 -0.0756,0.302274 -0.68044,0.755684 -1.47428,1.095741 -5.745943,2.304835 -11.454077,4.60967 -17.162212,6.914505 l -3.742419,1.511367 c -0.491429,0.188921 -1.02066,0.340058 -1.663297,0.45341 -1.058462,0.188921 -2.116924,0.302274 -3.137584,0.302274 -1.134067,0 -2.268133,-0.151137 -3.402199,-0.377842 -0.529231,-0.113353 -1.02066,-0.264489 -1.512089,-0.45341 -1.7011,-0.680115 -3.440001,-1.398015 -5.178903,-2.07813 l 10.622422,-6.385526 c 0.453626,-0.264489 0.642638,-0.7179 0.567033,-1.246878 -0.0378,-0.264489 -0.189011,-0.491194 -0.415824,-0.680115 -0.226814,-0.151137 -0.453627,-0.226705 -0.68044,-0.226705 -0.226813,0 -0.415824,0.07557 -0.642638,0.18892 -3.288792,1.964778 -6.501981,3.891771 -9.639564,5.78098 l -2.457144,1.473583 C 15.347571,17.655784 11.113723,15.955496 6.955479,14.292992 Z m 13.230775,14.206851 c 0.529231,0.264489 1.02066,0.944604 0.831649,1.511367 -0.0756,0.264489 -0.189011,0.528979 -0.415824,0.831252 0,0 -1.02066,1.435799 -1.436484,2.002562 -0.68044,-0.869037 -1.02066,-1.851425 -1.058462,-2.984951 -0.0378,-0.491194 0.189011,-0.793467 0.378022,-1.020172 0.264615,-0.302274 0.68044,-0.453411 1.096264,-0.453411 0.226813,0 0.415824,0.03778 0.604835,0.113353 z m 18.069459,8.879284 c -1.927913,0.15113 -3.855826,0.26449 -5.821541,0.26449 -1.209671,0 -2.419342,-0.0378 -3.666815,-0.11336 -3.402199,-0.18892 -6.350772,-0.68011 -8.959125,-1.51136 -2.494946,-0.75569 -4.347254,-1.775859 -5.63253,-3.173873 V 19.658343 l 4.271651,1.700288 v 4.911943 c -1.625496,0.528979 -2.683958,2.040346 -2.646155,3.740634 0.0756,1.435799 0.529231,2.796029 1.398682,4.005123 0.529231,0.755684 1.20967,1.171314 2.003517,1.171314 0.113407,0 0.264615,0 0.378022,-0.03778 0.68044,-0.113352 1.209671,-0.491194 1.625495,-1.095741 0.34022,-0.566762 0.718242,-1.171309 1.247473,-1.889209 0.831649,-1.133525 1.058462,-2.26705 0.718242,-3.362792 -0.415824,-1.246878 -1.247473,-2.115914 -2.457144,-2.53154 v -3.967338 c 1.927913,0.793467 3.893629,1.549151 5.859344,2.342619 0.756044,0.302273 1.587693,0.528978 2.532748,0.680115 1.058462,0.188921 2.192528,0.302273 3.326595,0.302273 0.793846,0 1.625495,-0.03778 2.457144,-0.151136 1.247473,-0.151137 2.457144,-0.453411 3.59121,-0.906821 4.044837,-1.624719 8.089674,-3.287223 12.172313,-4.911943 v 3.022734 c -3.704617,0.793468 -6.804398,2.682677 -9.148136,5.667627 -2.003517,2.569324 -3.213188,5.856548 -3.25099,9.030412 z m -26.348143,15.83157 h -1.209671 c -0.869451,0 -1.587693,-0.7179 -1.587693,-1.58694 v -6.80115 c 0,-0.90682 0.718242,-1.58693 1.587693,-1.58693 h 1.209671 z m 2.268132,0 v -9.97502 h 24.949462 c 0.226813,0.56676 0.453626,1.13352 0.756044,1.6625 -3.440001,0.0378 -6.842201,0.0378 -10.282202,0.0378 -3.629013,0 -7.258025,0 -10.887038,-0.0378 -0.453626,0 -0.756044,0.18892 -0.907253,0.37784 -0.189011,0.22671 -0.302418,0.4912 -0.302418,0.79347 0,0.56676 0.378022,1.13352 1.134067,1.13352 h 22.643526 c 0.453627,0.60455 0.945055,1.17131 1.512089,1.70029 H 22.454391 c -0.529231,0 -0.718242,0.11335 -0.793846,0.15114 -0.302418,0.15114 -0.491429,0.45341 -0.567033,0.79347 -0.0378,0.30227 0.0378,0.64233 0.226813,0.90682 0.226813,0.30227 0.567033,0.45341 0.982857,0.45341 h 23.361769 c 0.0756,0 0.226813,0.0756 0.34022,0.15113 l 0.151209,0.11336 c 1.625495,0.86903 3.364397,1.47358 5.141101,1.73807 z m 39.465508,-2.11591 c -7.258021,0 -13.155166,-5.89434 -13.155166,-13.18668 0,-7.254566 5.897145,-13.186682 13.155166,-13.186682 7.22023,0 13.11737,5.932116 13.11737,13.186682 0,7.29234 -5.89714,13.18668 -13.11737,13.18668 z"
       id="path1-6" />
    <path
       style="fill:#860626;fill-opacity:1;fill-rule:evenodd;stroke:none"
       d="m 60.634624,60.729745 c 0,-1.51137 -0.83165,-2.83381 -2.23033,-3.47614 -0.41582,-0.22671 -0.94505,-0.30228 -1.58769,-0.30228 H 4.082515 c -0.529231,0 -0.945055,0.30228 -1.058462,0.83126 -0.151209,0.52897 0.07561,1.05795 0.529231,1.28466 0.226813,0.11335 0.415825,0.15113 0.756044,0.15113 H 5.70801 v 9.97503 c -0.491428,0 -0.982857,0 -1.512088,0 -0.793847,0 -1.209671,0.56676 -1.209671,1.13352 0,0.56676 0.415824,1.17131 1.171869,1.17131 h 52.356064 c 0.49143,0 0.90726,-0.0378 1.24748,-0.11335 1.70109,-0.37784 2.87296,-1.92699 2.87296,-3.70285 0,-2.3804 0,-4.68524 0,-6.95229 z m -2.26813,6.9145 c 0,0.86904 -0.68044,1.54916 -1.51209,1.54916 h -1.24747 v -9.97503 h 1.24747 c 0.83165,0 1.51209,0.7179 1.51209,1.58694 z m -11.45407,-2.11591 c -0.226813,-0.41563 -0.68044,-0.68011 -1.134066,-0.68011 -6.237366,0 -12.512533,0 -18.787701,0 -6.31297,0 -19.014514,0 -19.014514,0 v -1.66251 h 0.0378 c 9.790774,0 19.543745,0 29.296717,0 h 12.096708 c 0.756044,0 1.171869,-0.56676 1.171869,-1.13352 0,-0.56677 -0.415825,-1.13353 -1.171869,-1.13353 -13.873413,0 -27.709023,0 -41.431227,-0.0378 v -1.66251 h 45.324855 v 9.93724 H 7.976143 v -2.00256 h 37.915621 c 0.34022,0 0.68044,-0.15114 0.907253,-0.45341 0.226814,-0.34006 0.302418,-0.79347 0.113407,-1.17131 z"
       id="path2-6" />
    <path
       style="fill:#860626;fill-opacity:1;fill-rule:nonzero;stroke:none"
       d="m 45.362533,41.951005 v -9.521609 c 0,-0.340058 0.264616,-0.604547 0.604836,-0.604547 h 3.969232 c 1.134067,0 1.965715,0.113352 2.494946,0.302273 0.529231,0.188921 0.907253,0.528979 1.247477,1.020173 0.30241,0.491194 0.45362,1.057957 0.45362,1.700288 0,0.793472 -0.22681,1.473582 -0.718239,1.964782 -0.226813,0.30227 -0.567033,0.52897 -0.982858,0.71789 -0.189011,0.0756 -0.302417,0.22671 -0.34022,0.41563 -0.0378,0.22671 0,0.41563 0.151209,0.56676 0.07561,0.0756 0.151209,0.11336 0.226813,0.18892 0.302418,0.34006 0.718243,0.90683 1.247475,1.73808 l 0.71824,1.20909 c 0.11341,0.18892 0.11341,0.37784 0,0.60455 -0.0756,0.18892 -0.26462,0.30227 -0.49143,0.30227 h -1.209669 c -0.189011,0 -0.378022,-0.11335 -0.491429,-0.26449 l -1.36088,-2.07813 c -0.567033,-0.83125 -0.945055,-1.36023 -1.171868,-1.58693 -0.189011,-0.18892 -0.415825,-0.34006 -0.642638,-0.41563 -0.189011,-0.0756 -0.491429,-0.11335 -0.907253,-0.15114 -0.189011,0 -0.34022,0.0756 -0.453627,0.18892 -0.113406,0.11336 -0.151208,0.26449 -0.151208,0.41563 v 3.28722 c 0,0.34006 -0.264616,0.60455 -0.604836,0.60455 h -0.982857 c -0.34022,0 -0.604836,-0.26449 -0.604836,-0.60455 z m 2.759562,-5.59206 h 1.02066 c 1.020659,0 1.663297,-0.0378 1.927913,-0.11335 0.264615,-0.11335 0.491428,-0.26449 0.604835,-0.45341 0.151209,-0.2267 0.226813,-0.49119 0.226813,-0.831249 0,-0.340058 -0.0756,-0.642332 -0.302417,-0.869037 -0.189012,-0.226705 -0.453627,-0.340057 -0.793847,-0.415626 -0.189011,0 -0.718242,-0.03778 -1.587693,-0.03778 h -1.096264 c -0.302418,0 -0.567033,0.26449 -0.567033,0.604547 v 1.549155 c 0,0.30227 0.264615,0.56676 0.567033,0.56676 z m 8.240879,-1.58693 h 0.75605 c 0.30242,0 0.56703,0.264489 0.56703,0.60455 v 0.52897 c 0.26462,-0.37784 0.60484,-0.68011 1.02066,-0.944599 0.41583,-0.226706 0.90725,-0.340058 1.39868,-0.340058 0.90726,0 1.6633,0.340058 2.30594,1.057957 0.64264,0.7179 0.94505,1.70029 0.94505,2.94717 0,1.32244 -0.30241,2.30483 -0.94505,3.02273 -0.64264,0.7179 -1.39868,1.09574 -2.30594,1.09574 -0.41582,0 -0.83165,-0.0756 -1.17187,-0.26449 -0.0756,-0.0378 -0.1134,-0.0756 -0.18901,-0.11335 -0.18901,-0.11335 -0.41582,-0.11335 -0.60483,0 -0.18901,0.11335 -0.30242,0.30227 -0.30242,0.52898 v 2.00256 c 0,0.34006 -0.26462,0.60455 -0.60484,0.60455 h -0.86945 c -0.30241,0 -0.56703,-0.26449 -0.56703,-0.60455 v -9.52161 c 0,-0.340061 0.26462,-0.60455 0.56703,-0.60455 z m 1.43649,3.77842 c 0,0.86903 0.18901,1.51136 0.52923,1.92699 0.34022,0.41563 0.75604,0.64233 1.24747,0.64233 0.49143,0 0.86945,-0.18892 1.20967,-0.60454 0.30242,-0.37785 0.45363,-0.98239 0.45363,-1.85143 0,-0.83125 -0.15121,-1.4358 -0.49143,-1.85142 -0.30242,-0.37785 -0.71824,-0.56677 -1.20967,-0.56677 -0.49143,0 -0.90725,0.18892 -1.24747,0.56677 -0.30242,0.37784 -0.49143,0.98238 -0.49143,1.73807 z"
       id="path3-0" />
  </g>
</svg>
