<?xml version="1.0" encoding="UTF-8" standalone="no"?>
<!-- Created with Inkscape (http://www.inkscape.org/) -->

<svg
   width="72"
   height="72"
   viewBox="0 0 72 72"
   version="1.1"
   id="svg1"
   xmlns="http://www.w3.org/2000/svg"
   xmlns:svg="http://www.w3.org/2000/svg">
  <defs
     id="defs1" />
  <g
     id="layer1">
    <path
       style="fill:#860626;fill-opacity:1;fill-rule:evenodd;stroke:none"
       d="m 61.576046,71.989431 c -1.965715,0 -3.780222,-1.24688 -4.460661,-3.06052 l -3.175386,-8.23695 -0.151209,-0.15114 H 31.031857 l -0.189011,0.15114 -3.137584,8.23695 c -0.718242,1.81364 -2.494946,3.06052 -4.460661,3.06052 -0.604836,0 -1.171869,-0.11335 -1.7011,-0.34006 -1.209671,-0.45341 -2.116924,-1.32244 -2.646155,-2.49375 -0.529231,-1.13353 -0.567033,-2.45597 -0.113407,-3.62728 l 1.814507,-4.79859 -0.151209,-0.26449 c -1.852309,-0.22671 -3.515606,-1.05796 -4.838684,-2.38041 L 0.147448,42.668908 2.491185,40.288505 c 1.436484,-1.435799 3.364397,-2.229266 5.367914,-2.229266 2.04132,0 3.969233,0.793467 5.405717,2.229266 l 9.261542,9.257126 0.113407,0.0378 h 5.103299 l 0.189011,-0.22671 -5.519123,-19.761123 -0.264616,-0.151136 -3.326595,0.90682 -2.721759,-3.627281 -0.378022,0.113352 -0.529231,4.496318 -9.412752,2.53154 -4.989892,-6.6878 -0.0378,-0.188921 C -0.759806,21.471984 -0.003761,15.691005 2.869207,10.741277 5.704373,5.79155 10.354045,2.239837 15.873169,0.766254 17.725477,0.27506 19.615588,0.01057 21.467896,0.01057 c 9.677367,0 18.182866,6.536663 20.715614,15.869356 l 0.0756,0.264489 -0.982857,8.199167 -9.412752,2.53154 -2.721759,-3.627282 -0.378022,0.113353 -0.529231,4.496317 -3.326595,0.869036 -0.113407,0.26449 5.708135,20.479025 0.189011,0.15114 h 34.400015 c 3.818023,0 6.917805,3.0983 6.917805,6.87672 v 4.0429 h -7.598245 l -0.189011,0.30228 1.776704,4.68524 c 0.453626,1.20909 0.415824,2.49375 -0.07561,3.66506 -0.529231,1.13353 -1.474286,2.04035 -2.683957,2.49376 -0.529231,0.18892 -1.096264,0.30227 -1.701099,0.30227 z m -4.95209,-11.18412 2.759561,7.25457 c 0.34022,0.86903 1.209671,1.47358 2.192529,1.47358 0.264615,0 0.567033,-0.0378 0.831649,-0.15114 0.567033,-0.18892 1.020659,-0.64233 1.285275,-1.20909 0.264615,-0.56676 0.264615,-1.2091 0.0378,-1.77586 l -2.154726,-5.70541 -0.189011,-0.15114 h -4.574068 z m -33.379355,-0.11335 -2.192529,5.70541 c -0.226813,0.56676 -0.189011,1.2091 0.0756,1.77586 0.226813,0.56676 0.718242,1.02017 1.285275,1.20909 0.264615,0.11335 0.529231,0.15114 0.831649,0.15114 0.945055,0 1.814506,-0.56676 2.154726,-1.47358 l 2.797364,-7.25457 -0.189011,-0.26449 H 23.433612 Z M 7.896901,40.51521 c -2.23033,0 -3.515605,1.322446 -4.007034,1.851425 -0.0756,0.07557 -0.113407,0.113352 -0.151209,0.151137 v 0.302273 l 13.608797,13.564516 c 1.096264,1.13353 2.570551,1.73808 4.158244,1.73808 h 47.857603 l 0.226813,-0.18892 v -1.4358 c 0,-2.45597 -2.003517,-4.45854 -4.460661,-4.45854 H 21.581303 L 11.525914,42.026577 C 10.580859,41.044189 9.257781,40.51521 7.896901,40.51521 Z m -3.629012,-13.186678 -0.113407,0.302273 2.532749,3.362792 0.226813,0.07557 5.934948,-1.624719 0.151208,-0.151137 0.491429,-4.15626 -0.226813,-0.226705 -8.959125,2.418188 z m 13.041764,-3.513929 -0.113407,0.302274 2.532749,3.362791 0.189011,0.07557 5.97275,-1.586936 0.151208,-0.188921 0.491429,-4.156259 -0.264615,-0.226705 z M 11.79053,5.07365 C 4.910527,9.116558 1.281514,17.126803 2.793603,24.985913 l 0.226813,0.151136 9.56396,-2.569324 0.151209,-0.264489 C 12.13075,19.847264 10.316243,11.270256 12.092947,5.300355 Z m 18.523085,15.227024 -0.113407,0.302274 2.532748,3.362792 0.226814,0.07557 5.934947,-1.586935 0.151209,-0.188921 0.491429,-4.15626 -0.226813,-0.226705 z M 17.08284,3.033305 c -0.189011,0 -0.378023,0.03778 -0.567034,0.07557 -2.646155,0.717899 -3.855825,8.50144 -1.436484,18.552032 l 0.264616,0.151137 11.60528,-3.136087 0.151208,-0.226705 C 25.474931,13.083896 20.900863,3.033305 17.08284,3.033305 Z M 21.467896,2.8066 c 4.536266,4.231828 7.258026,12.544347 7.976268,15.000319 l 0.264615,0.151136 9.56396,-2.569324 0.151209,-0.264489 C 36.739991,7.567406 29.595373,2.504326 21.581303,2.428758 Z"
       id="path1-1" />
    <path
       style="fill:#860626;fill-opacity:1;fill-rule:evenodd;stroke:none"
       d="m 59.42132,19.469423 c -3.780222,0 -6.880003,-3.098303 -6.880003,-6.876721 0,-3.816202 3.099781,-6.914505 6.880003,-6.914505 3.818023,0 6.917805,3.098303 6.917805,6.914505 0,3.778418 -3.099782,6.876721 -6.917805,6.876721 z m 0,-11.373038 c -2.457144,0 -4.460662,2.002561 -4.460662,4.458533 0,2.455971 2.003518,4.458533 4.460662,4.458533 2.457144,0 4.460661,-2.002562 4.460661,-4.458533 0,-2.455972 -2.003517,-4.458533 -4.460661,-4.458533 z"
       id="path2-2" />
    <path
       style="fill:#860626;fill-opacity:1;fill-rule:evenodd;stroke:none"
       d="m 60.668793,0.01057 h -2.457144 v 2.418188 h 2.457144 z"
       id="path3-5" />
    <path
       style="fill:#860626;fill-opacity:1;fill-rule:evenodd;stroke:none"
       d="m 67.473191,2.844384 -1.738902,1.700288 1.738902,1.738072 1.7011,-1.738072 z"
       id="path4-0" />
    <path
       style="fill:#860626;fill-opacity:1;fill-rule:evenodd;stroke:none"
       d="m 72.009457,11.345824 h -2.419342 v 2.455972 h 2.419342 z"
       id="path5-9" />
    <path
       style="fill:#860626;fill-opacity:1;fill-rule:evenodd;stroke:none"
       d="m 67.473191,18.864876 -1.738902,1.700288 1.738902,1.738072 1.7011,-1.738072 z"
       id="path6-4" />
    <path
       style="fill:#860626;fill-opacity:1;fill-rule:evenodd;stroke:none"
       d="m 60.668793,22.681078 h -2.457144 v 2.455971 h 2.457144 z"
       id="path7-7" />
    <path
       style="fill:#860626;fill-opacity:1;fill-rule:evenodd;stroke:none"
       d="m 51.40725,18.864876 -1.738902,1.700288 1.738902,1.738072 1.7011,-1.738072 z"
       id="path8-8" />
    <path
       style="fill:#860626;fill-opacity:1;fill-rule:evenodd;stroke:none"
       d="m 49.290326,11.345824 h -2.419342 v 2.455972 h 2.419342 z"
       id="path9-3" />
    <path
       style="fill:#860626;fill-opacity:1;fill-rule:evenodd;stroke:none"
       d="M 51.40725,2.844384 49.706151,4.544672 51.40725,6.282744 53.146152,4.544672 Z"
       id="path10-5" />
  </g>
</svg>
