<?xml version="1.0" encoding="UTF-8" standalone="no"?>
<!-- Created with Inkscape (http://www.inkscape.org/) -->

<svg
   width="72"
   height="72"
   viewBox="0 0 72 72"
   version="1.1"
   id="svg1"
   xmlns="http://www.w3.org/2000/svg"
   xmlns:svg="http://www.w3.org/2000/svg">
  <defs
     id="defs1" />
  <g
     id="layer1">
    <path
       style="fill:#860626;fill-opacity:1;fill-rule:evenodd;stroke:none"
       d="m 13.035153,49.640086 c -0.604835,0 -1.096264,-0.49119 -1.096264,-1.13352 v -4.15626 c 0,-0.60455 0.491429,-1.13353 1.096264,-1.13353 h 37.575404 c 0.60483,0 1.09626,0.4912 1.09626,1.13353 v 4.15626 c 0,0.60455 -0.49143,1.13352 -1.09626,1.13352 z m 36.479134,-2.22926 v -1.96478 H 14.131418 v 1.96478 z"
       id="path1-1" />
    <path
       style="fill:#860626;fill-opacity:1;fill-rule:evenodd;stroke:none"
       d="m 17.306804,10.080054 c 0.415824,-0.642331 1.02066,-1.133525 1.738902,-1.435799 0.491428,-0.188921 0.982857,-0.302273 1.474286,-0.302273 0.264615,0 0.529231,0.03778 0.793846,0.113352 0.642638,-0.45341 1.36088,-0.680115 2.154727,-0.680115 0.793846,0 1.512088,0.226705 2.154726,0.680115 0.264615,-0.07557 0.529231,-0.113352 0.793846,-0.113352 0.529231,0 1.02066,0.113352 1.474287,0.302273 0.718242,0.302274 1.323077,0.793468 1.738902,1.435799 0.756044,0.151137 1.436484,0.528978 2.003517,1.057957 0.529231,0.566763 0.907253,1.246878 1.058462,2.002561 0.642638,0.415626 1.134066,1.020173 1.436484,1.738073 0.302418,0.717899 0.34022,1.473583 0.189011,2.229266 0.453627,0.642331 0.718242,1.398015 0.718242,2.191483 0,0.793467 -0.264615,1.511367 -0.68044,2.153698 0.151209,0.755683 0.07561,1.549151 -0.189011,2.267051 -0.302417,0.717899 -0.831648,1.322446 -1.474286,1.738072 -0.151209,0.755683 -0.491429,1.435799 -1.058462,2.002561 -0.604835,0.604547 -1.398682,0.982389 -2.230331,1.057957 0.604836,2.455972 1.814507,4.685238 3.591211,6.461095 0.302417,0.264488 0.415824,0.680118 0.264615,1.095738 -0.113406,0.37785 -0.415824,0.68012 -0.831649,0.75569 l -2.948572,0.60454 -0.604836,2.94717 c -0.0756,0.41563 -0.378022,0.7179 -0.756044,0.86904 -0.113407,0 -0.226813,0.0378 -0.34022,0.0378 v 0 c -0.264615,0 -0.567033,-0.11336 -0.756044,-0.34006 -2.986375,-2.98495 -4.649673,-6.952291 -4.649673,-11.221903 0,-0.528978 0.415825,-1.020173 0.945056,-1.095741 h 0.151209 c 5.178903,0 9.337147,-4.15626 9.337147,-9.332692 0,-5.176433 -4.158244,-9.332693 -9.337147,-9.332693 -5.178904,0 -9.337147,4.15626 -9.337147,9.332693 0,3.627281 2.079122,6.801152 5.103299,8.350303 l -0.302418,0.45341 c -0.226813,0.302274 -0.567033,0.491195 -0.907253,0.491195 l -0.0378,-0.03779 c -0.982858,0 -1.965716,-0.377841 -2.683958,-1.095741 -0.529233,-0.566753 -0.907255,-1.246869 -1.058464,-2.002552 -0.642637,-0.415626 -1.134066,-1.020173 -1.436484,-1.738072 -0.302417,-0.7179 -0.378022,-1.511368 -0.189011,-2.267051 -0.453626,-0.642331 -0.68044,-1.360231 -0.68044,-2.153698 0,-0.793468 0.226814,-1.511368 0.642638,-2.153699 -0.151209,-0.755683 -0.0756,-1.549151 0.226813,-2.26705 0.302418,-0.7179 0.793847,-1.322447 1.436484,-1.738073 0.302418,-1.549151 1.512089,-2.758245 3.06198,-3.060518 z m 7.295827,20.592377 c 0.189011,2.569325 1.058462,4.987515 2.570551,7.065645 l 0.264615,-1.47359 c 0.113407,-0.45341 0.453627,-0.79346 0.869451,-0.86903 l 1.814506,-0.377844 c -1.171868,-1.473583 -2.041319,-3.136087 -2.608352,-4.949727 -0.34022,0.113352 -0.718242,0.188921 -1.134067,0.188921 -0.264615,0 -0.491429,-0.03778 -0.756044,-0.07557 -0.302418,0.226705 -0.68044,0.377842 -1.02066,0.491195 z"
       id="path2-6" />
    <path
       style="fill:#860626;fill-opacity:1;fill-rule:evenodd;stroke:none"
       d="m 23.468565,26.667309 c -4.044837,0 -7.371432,-3.325008 -7.371432,-7.367915 0,-4.042908 3.326595,-7.367915 7.371432,-7.367915 1.965715,0 3.818023,0.755683 5.216705,2.153698 1.398682,1.398015 2.154726,3.249439 2.154726,5.214217 0,4.080691 -3.288792,7.367915 -7.371431,7.367915 z m 0,-12.506564 c -2.835166,0 -5.141101,2.304835 -5.141101,5.138649 0,2.833813 2.305935,5.138648 5.141101,5.138648 2.835166,0 5.141101,-2.304835 5.141101,-5.138648 0,-1.360231 -0.529231,-2.682677 -1.512089,-3.627282 -0.982857,-0.982388 -2.268133,-1.511367 -3.629012,-1.511367 z"
       id="path3-4" />
    <path
       style="fill:#860626;fill-opacity:1;fill-rule:evenodd;stroke:none"
       d="m 19.159112,41.289786 c -0.113406,0 -0.226813,-0.0378 -0.34022,-0.0756 -0.378022,-0.11335 -0.68044,-0.45341 -0.756044,-0.83125 l -0.604835,-2.94717 -2.948573,-0.60454 c -0.415825,-0.0756 -0.718242,-0.37784 -0.831649,-0.79347 -0.151209,-0.37784 -0.0378,-0.79347 0.264616,-1.095742 1.852308,-1.851425 3.137583,-4.15626 3.666814,-6.725584 0.0756,-0.415626 0.378023,-0.7179 0.756045,-0.831252 0.0756,-0.03778 0.189011,-0.03778 0.34022,-0.03778 1.398682,0.831252 3.024177,1.284662 4.763079,1.284662 h 0.151209 c 0.529231,0.07557 0.945055,0.528978 0.945055,1.095741 0,4.269612 -1.625495,8.236955 -4.649672,11.221905 -0.189012,0.2267 -0.491429,0.34005 -0.756045,0.34005 z m -0.529231,-5.89433 c 0.453627,0.0756 0.793847,0.41562 0.869451,0.86903 l 0.302418,1.47359 c 1.474286,-2.07813 2.343737,-4.49632 2.532748,-7.065645 -0.378022,-0.113352 -0.718242,-0.302273 -1.02066,-0.491194 -0.264615,0.03778 -0.529231,0.07557 -0.793846,0.07557 -0.378022,0 -0.756044,-0.07557 -1.096264,-0.188921 -0.604836,1.81364 -1.474287,3.476144 -2.608353,4.949727 z"
       id="path4-0" />
    <path
       style="fill:#860626;fill-opacity:1;fill-rule:evenodd;stroke:none"
       d="m 38.098022,18.317005 c -0.604836,0 -1.134067,-0.491194 -1.134067,-1.095741 V 8.87096 c 0,-0.604547 0.491429,-1.095741 1.134067,-1.095741 h 12.512535 c 0.60483,0 1.09626,0.491194 1.09626,1.095741 v 8.350304 c 0,0.604547 -0.49143,1.095741 -1.09626,1.095741 z M 49.514287,16.125523 V 9.966701 H 39.194286 v 6.158822 z"
       id="path5-6" />
    <path
       style="fill:#860626;fill-opacity:1;fill-rule:evenodd;stroke:none"
       d="m 38.098022,22.511049 c -0.604836,0 -1.134067,-0.528979 -1.134067,-1.133526 0,-0.604546 0.491429,-1.095741 1.134067,-1.095741 h 12.512535 c 0.60483,0 1.09626,0.491195 1.09626,1.095741 0,0.604547 -0.49143,1.133526 -1.09626,1.133526 z"
       id="path6-1" />
    <path
       style="fill:#860626;fill-opacity:1;fill-rule:evenodd;stroke:none"
       d="m 38.098022,26.667309 c -0.604836,0 -1.134067,-0.491195 -1.134067,-1.095742 0,-0.642331 0.491429,-1.133525 1.134067,-1.133525 h 8.354285 c 0.60484,0 1.09627,0.491194 1.09627,1.133525 0,0.604547 -0.49143,1.095742 -1.09627,1.095742 z"
       id="path7-8" />
    <path
       style="fill:#860626;fill-opacity:1;fill-rule:evenodd;stroke:none"
       d="m 15.114275,70.496956 c -5.216705,0 -9.450553,-4.26961 -9.450553,-9.44605 V 2.598787 c 0,-0.604547 0.491428,-1.095742 1.096264,-1.095742 h 50.125741 c 0.60483,0 1.09626,0.491195 1.09626,1.095742 v 58.452119 c 0,0.60455 -0.49143,1.09575 -1.09626,1.09575 h -32.3587 c -0.567034,4.64745 -4.574068,8.31252 -9.337147,8.3503 z m -7.220223,-9.44605 c 0,3.92956 3.213189,7.179 7.182421,7.21678 4.044837,0 7.295827,-3.24944 7.295827,-7.21678 0,-0.60454 0.491429,-1.13352 1.096265,-1.13352 h 0.113406 32.169686 V 3.732312 H 7.894052 Z"
       id="path8-9" />
    <path
       style="fill:#860626;fill-opacity:1;fill-rule:evenodd;stroke:none"
       d="m 15.114275,70.459176 c -0.604835,0 -1.096264,-0.4912 -1.096264,-1.09575 0,-0.60454 0.491429,-1.09574 1.096264,-1.09574 4.007035,0 7.258025,-3.24944 7.258025,-7.25456 0,-0.60455 0.491429,-1.09574 1.096265,-1.09574 h 41.771442 c 0.60484,0 1.09627,0.49119 1.09627,1.09574 0,5.21422 -4.23385,9.44605 -9.45056,9.44605 z m 41.771452,-2.19149 c 3.5534,0 6.61538,-2.64489 7.14461,-6.12103 h -39.50331 c -0.302418,2.3804 -1.512089,4.57188 -3.326595,6.12103 z"
       id="path9-8" />
    <path
       style="fill:#860626;fill-opacity:1;fill-rule:evenodd;stroke:none"
       d="m 13.035153,53.796346 c -0.604835,0 -1.096264,-0.49119 -1.096264,-1.09574 0,-0.64233 0.491429,-1.13352 1.096264,-1.13352 h 20.866823 c 0.604835,0 1.134066,0.49119 1.134066,1.13352 0,0.60455 -0.491429,1.09574 -1.134066,1.09574 z"
       id="path10-4" />
    <path
       style="fill:#860626;fill-opacity:1;fill-rule:evenodd;stroke:none"
       d="m 13.035153,57.952606 c -0.604835,0 -1.096264,-0.49119 -1.096264,-1.09574 0,-0.60454 0.491429,-1.09574 1.096264,-1.09574 h 37.575404 c 0.60483,0 1.09626,0.4912 1.09626,1.09574 0,0.60455 -0.49143,1.09574 -1.09626,1.09574 z"
       id="path11-1" />
  </g>
</svg>
