<?xml version="1.0" encoding="UTF-8" standalone="no"?>
<!-- Created with Inkscape (http://www.inkscape.org/) -->

<svg
   width="72"
   height="72"
   viewBox="0 0 72 72"
   version="1.1"
   id="svg1"
   xmlns="http://www.w3.org/2000/svg"
   xmlns:svg="http://www.w3.org/2000/svg">
  <defs
     id="defs1" />
  <g
     id="layer1">
    <path
       style="fill:#860626;fill-opacity:1;fill-rule:evenodd;stroke:none"
       d="m 51.176879,42.196409 v 0.793468 c -0.756044,0.340057 -1.474286,0.755683 -2.154726,1.246877 l -0.68044,-0.415626 c -0.604836,-0.264489 -1.247473,-0.302273 -1.852309,-0.113352 -0.604835,0.188921 -1.096264,0.642331 -1.360879,1.209094 l -1.436485,2.418187 c -0.340219,0.566763 -0.453626,1.209094 -0.340219,1.813641 0.151208,0.642331 0.529231,1.171309 1.058462,1.511367 l 0.680439,0.415626 c -0.113406,0.831252 -0.113406,1.662504 0,2.493756 l -0.680439,0.377841 c -0.567034,0.377842 -0.907254,0.906821 -1.058462,1.549152 -0.113407,0.604547 0,1.246878 0.340219,1.775856 l 1.436485,2.455972 c 0.264615,0.566762 0.793846,0.982388 1.398682,1.209094 0.604835,0.18892 1.247473,0.151136 1.814506,-0.151137 l 0.68044,-0.415626 c 0.68044,0.528978 1.398682,0.944604 2.192528,1.284662 v 0.793468 c 0.0378,0.604547 0.302418,1.209093 0.793847,1.624719 0.453626,0.415626 1.096264,0.642331 1.738901,0.604547 h 2.797364 c 0.642638,0.03778 1.247473,-0.188921 1.738902,-0.604547 0.453627,-0.415626 0.756044,-1.020172 0.793847,-1.624719 v -0.793468 c 0.756044,-0.340058 1.474286,-0.755684 2.154726,-1.284662 l 0.718242,0.415626 c 0.567033,0.302273 1.209671,0.340057 1.814506,0.113352 0.604836,-0.188921 1.096264,-0.604547 1.398682,-1.171309 l 1.398682,-2.455972 v 0 c 0.34022,-0.528978 0.453627,-1.171309 0.34022,-1.81364 -0.113407,-0.604547 -0.491429,-1.133526 -1.02066,-1.511368 l -0.718242,-0.377841 c 0.113407,-0.831252 0.113407,-1.662504 0,-2.493756 l 0.718242,-0.415626 c 0.529231,-0.340058 0.907253,-0.90682 1.02066,-1.511367 0.113407,-0.642331 0,-1.284662 -0.34022,-1.813641 L 65.163698,44.91687 c -0.302418,-0.566763 -0.793846,-1.020173 -1.398682,-1.209094 -0.604835,-0.188921 -1.285275,-0.151137 -1.852308,0.151137 l -0.68044,0.377841 c -0.68044,-0.491194 -1.398682,-0.90682 -2.154726,-1.246877 v -0.793468 c -0.0378,-0.642331 -0.34022,-1.246878 -0.831649,-1.662504 -0.453627,-0.415626 -1.096264,-0.642331 -1.7011,-0.604547 h -2.835166 c -0.604835,-0.03778 -1.247473,0.188921 -1.701099,0.604547 -0.491429,0.45341 -0.793847,1.020173 -0.831649,1.662504 z m 5.63253,0 v 1.586935 c 0,0.226705 0.0756,0.45341 0.226813,0.642331 0.151209,0.188921 0.34022,0.340058 0.567033,0.415626 1.02066,0.340058 1.965715,0.869036 2.759562,1.586936 0.189011,0.188921 0.415824,0.264489 0.642638,0.302273 0.226813,0.03778 0.453626,-0.03778 0.680439,-0.151136 L 62.97117,45.82369 c 0.0756,0.03778 0.189011,0.113353 0.226813,0.226705 l 1.398682,2.418187 c 0.113407,0.151137 0.113407,0.26449 0.151209,0.26449 l -1.36088,0.793468 c -0.226813,0.113352 -0.378022,0.264489 -0.453626,0.491194 -0.113407,0.226705 -0.151209,0.45341 -0.0756,0.680115 0.189011,1.057957 0.189011,2.153698 0,3.211655 -0.0756,0.226705 -0.0378,0.491195 0.0378,0.7179 0.113407,0.188921 0.264616,0.377841 0.491429,0.491194 l 1.285275,0.717899 c 0.0378,0.113353 0,0.226705 -0.0756,0.340058 l -1.398682,2.418187 c -0.0756,0.151137 -0.189011,0.226706 -0.151209,0.26449 l -1.36088,-0.793468 c -0.226813,-0.113353 -0.453626,-0.188921 -0.680439,-0.151137 -0.226814,0 -0.453627,0.113353 -0.642638,0.264489 -0.793847,0.7179 -1.738902,1.284663 -2.759562,1.62472 -0.226813,0.07557 -0.415824,0.226705 -0.567033,0.415626 -0.151209,0.188921 -0.226813,0.415626 -0.226813,0.642331 l 0.0378,1.473583 c -0.0756,0.07557 -0.189011,0.113353 -0.302418,0.113353 h -2.835166 c -0.0756,0 -0.151209,-0.03778 -0.226813,-0.03778 -0.0378,0 -0.0378,0 -0.0378,0 v -1.549152 c 0,-0.226705 -0.07561,-0.45341 -0.226814,-0.642331 -0.113406,-0.226705 -0.340219,-0.340057 -0.529231,-0.415626 -1.058462,-0.340057 -2.003517,-0.90682 -2.797363,-1.62472 -0.151209,-0.151136 -0.378023,-0.264489 -0.642638,-0.264489 -0.226813,-0.03778 -0.453627,0 -0.68044,0.113353 l -1.247473,0.793468 c -0.113414,-0.03779 -0.22682,-0.113357 -0.264622,-0.22671 l -1.398682,-2.418187 c -0.07561,-0.151137 -0.07561,-0.264489 -0.113407,-0.264489 l 1.323077,-0.793468 c 0.226814,-0.113353 0.378023,-0.302273 0.491429,-0.528979 0.0756,-0.18892 0.113407,-0.45341 0.0756,-0.680115 -0.226814,-1.057957 -0.226814,-2.153698 0,-3.211655 0.0378,-0.226705 0,-0.45341 -0.0756,-0.680115 -0.113406,-0.226705 -0.264615,-0.377842 -0.491429,-0.528979 l -1.285275,-0.717899 c 0,-0.113353 0,-0.226705 0.07561,-0.302274 l 1.398682,-2.418187 c 0.0756,-0.188921 0.226813,-0.226705 0.151208,-0.264489 l 1.36088,0.793468 c 0.226813,0.113352 0.453627,0.151136 0.68044,0.151136 0.264615,-0.03778 0.491429,-0.113352 0.642638,-0.302273 0.793846,-0.7179 1.738901,-1.246878 2.797363,-1.586936 0.189012,-0.07557 0.415825,-0.226705 0.529231,-0.415626 0.151209,-0.188921 0.226814,-0.415626 0.226814,-0.680115 l -0.0378,-1.473583 c 0.113406,-0.07557 0.189011,-0.113352 0.302417,-0.07557 H 56.5448 c 0.151209,0 0.264616,0.07557 0.264616,0 z"
       id="path1-9" />
    <path
       style="fill:#860626;fill-opacity:1;fill-rule:evenodd;stroke:none"
       d="m 49.513581,52.322569 c 0,1.095741 0.34022,2.191482 0.945056,3.098302 0.604835,0.944605 1.474286,1.662504 2.532748,2.07813 1.02066,0.45341 2.154726,0.528979 3.250991,0.340058 1.096264,-0.226705 2.079121,-0.755684 2.872968,-1.549151 0.793846,-0.793468 1.323077,-1.775857 1.549891,-2.871598 0.189011,-1.095741 0.0756,-2.229267 -0.34022,-3.249439 -0.415825,-1.020173 -1.134067,-1.926994 -2.079122,-2.53154 -0.907253,-0.604547 -2.003517,-0.944605 -3.099782,-0.944605 -1.512088,0 -2.948572,0.604547 -4.007034,1.662504 -1.02066,1.057957 -1.625496,2.455972 -1.625496,3.967339 z m 5.63253,-3.400576 c 0.642638,0 1.323078,0.226705 1.852309,0.604547 0.567033,0.340057 0.982857,0.869036 1.247473,1.511367 0.264615,0.604547 0.34022,1.284662 0.189011,1.926993 -0.113407,0.680115 -0.453627,1.246878 -0.907253,1.738072 -0.491429,0.45341 -1.096264,0.793468 -1.738902,0.90682 -0.642638,0.151137 -1.323077,0.07557 -1.965715,-0.188921 -0.604836,-0.226705 -1.134067,-0.680115 -1.512089,-1.246877 -0.34022,-0.528979 -0.567033,-1.209094 -0.567033,-1.851425 0,-0.906821 0.378022,-1.775857 0.982858,-2.380404 0.642637,-0.642331 1.512088,-1.020172 2.419341,-1.020172 z"
       id="path2-6" />
    <path
       style="fill:#860626;fill-opacity:1;fill-rule:evenodd;stroke:none"
       d="m 3.3570778,53.456094 h 1.1340664 v 1.095741 c 0,0.906821 0.3780222,1.775857 0.9828576,2.380404 0.6426376,0.642331 1.5120886,1.020172 2.3815395,1.020172 H 39.231379 c 0.945056,2.607109 2.532749,4.987512 4.574068,6.876721 2.079122,1.851425 4.61187,3.211655 7.33363,3.853986 2.683957,0.680115 5.556925,0.642331 8.240882,-0.03778 2.72176,-0.717899 5.216706,-2.07813 7.258026,-4.005123 2.041319,-1.889209 3.59121,-4.269612 4.498463,-6.914505 0.869451,-2.644892 1.096264,-5.478706 0.642638,-8.236951 -0.491429,-2.758245 -1.625496,-5.365353 -3.364397,-7.556835 -1.738902,-2.229267 -3.969233,-3.967339 -6.539783,-5.06308 V 15.218505 c 0,-0.90682 -0.34022,-1.775856 -0.982858,-2.418187 -0.642638,-0.604547 -1.474286,-0.982389 -2.38154,-0.982389 h -1.134066 v -1.133525 c 0,-0.869037 -0.34022,-1.738073 -0.982858,-2.380404 C 55.750947,7.699453 54.919298,7.321612 54.012045,7.321612 h -1.7011 V 5.092345 c 0,-0.604547 -0.226813,-1.171309 -0.642637,-1.586935 -0.415825,-0.453411 -1.02066,-0.680116 -1.587693,-0.680116 h -2.268133 c -0.604836,0 -1.171869,0.226705 -1.587693,0.680116 -0.415825,0.415626 -0.642638,0.982388 -0.642638,1.586935 V 7.321612 H 42.179952 V 5.092345 c 0,-0.604547 -0.226813,-1.171309 -0.642638,-1.586935 C 41.12149,3.051999 40.554457,2.825294 39.949621,2.825294 h -2.268133 c -0.604835,0 -1.171868,0.226705 -1.587693,0.680116 -0.415824,0.415626 -0.642637,0.982388 -0.642637,1.586935 v 2.229267 h -3.4022 V 5.092345 c 0,-0.604547 -0.226813,-1.171309 -0.642637,-1.586935 C 30.990496,3.051999 30.423463,2.825294 29.818628,2.825294 h -2.268133 c -0.567033,0 -1.171869,0.226705 -1.587693,0.680116 -0.415824,0.415626 -0.642638,0.982388 -0.642638,1.586935 V 7.321612 H 21.955767 V 5.092345 c 0,-0.604547 -0.264615,-1.171309 -0.68044,-1.586935 C 20.859503,3.051999 20.29247,2.825294 19.687634,2.825294 h -2.268132 c -0.567034,0 -1.134067,0.226705 -1.587693,0.680116 -0.415825,0.415626 -0.642638,0.982388 -0.642638,1.586935 V 7.321612 H 11.824774 V 5.092345 c 0,-0.604547 -0.264616,-1.171309 -0.68044,-1.586935 C 10.72851,3.051999 10.161476,2.825294 9.5566409,2.825294 H 7.3263103 c -0.6048354,0 -1.1718687,0.226705 -1.6254952,0.680116 C 5.2849907,3.921036 5.0581774,4.487798 5.0581774,5.092345 V 7.321612 H 3.3570778 C 2.4876269,7.321612 1.6181759,7.699453 0.9755383,8.304 0.370703,8.946331 -0.007319,9.815367 -0.007319,10.684404 v 39.371114 c 0,0.90682 0.378022,1.775856 0.9828573,2.380403 0.6426376,0.642331 1.5120886,1.020173 2.3815395,1.020173 z M 69.775568,52.322569 c 0,2.871597 -0.869451,5.705411 -2.494946,8.123598 -1.587693,2.380403 -3.893628,4.269612 -6.539783,5.365354 -2.683957,1.133525 -5.63253,1.398014 -8.467696,0.831252 -2.835166,-0.566763 -5.443519,-1.926994 -7.484838,-4.005123 -2.04132,-2.040346 -3.440002,-4.647454 -4.007035,-7.481268 -0.567033,-2.833813 -0.264616,-5.780979 0.831649,-8.425872 1.096264,-2.682676 2.986375,-4.949727 5.405716,-6.574447 2.38154,-1.586935 5.216706,-2.455971 8.127476,-2.455971 3.855826,0 7.598245,1.549151 10.320005,4.269612 2.759562,2.758245 4.27165,6.461094 4.309452,10.352865 z M 58.510508,14.08498 c 0.302418,0 0.567034,0.113352 0.793847,0.302273 0.226813,0.226705 0.34022,0.528979 0.34022,0.831252 v 20.856867 c -2.192529,-0.642331 -4.498464,-0.793468 -6.766596,-0.45341 v -2.418188 c 0,-0.604547 -0.226814,-1.171309 -0.642638,-1.586935 -0.453627,-0.415626 -1.02066,-0.680116 -1.587693,-0.680116 h -3.402199 c -0.604836,0 -1.171869,0.26449 -1.587693,0.680116 -0.415825,0.415626 -0.642638,0.982388 -0.642638,1.586935 V 34.3373 c 0,0.264489 0.113407,0.566762 0.302418,0.793467 0.226813,0.188921 0.529231,0.302274 0.793846,0.302274 0.302418,0 0.604836,-0.113353 0.831649,-0.302274 0.189011,-0.226705 0.302418,-0.528978 0.302418,-0.793467 v -1.133526 h 3.402199 v 2.871598 c -2.646155,0.717899 -5.027695,2.07813 -6.99341,3.929554 -2.003517,1.851425 -3.515606,4.118476 -4.422859,6.6878 h -2.116924 v -3.362792 h 1.474287 c 0.302417,0 0.567033,-0.113352 0.793846,-0.340057 0.189011,-0.226706 0.34022,-0.491195 0.34022,-0.793468 0,-0.302274 -0.151209,-0.604547 -0.34022,-0.793468 -0.226813,-0.226705 -0.491429,-0.340058 -0.793846,-0.340058 h -1.474287 c -0.567033,0 -1.171868,0.226706 -1.587693,0.680116 -0.415824,0.415626 -0.642637,0.982388 -0.642637,1.586935 v 3.362792 c 0,0.604547 0.226813,1.17131 0.642637,1.586936 0.415825,0.415626 1.02066,0.642331 1.587693,0.642331 h 1.474287 c -0.453627,2.229266 -0.453627,4.534101 0,6.763368 H 7.8555413 c -0.2646155,0 -0.5670332,-0.113353 -0.7938465,-0.340058 C 6.8726837,55.156382 6.7592771,54.854109 6.7592771,54.551835 V 53.456094 H 34.884125 c 0.302417,0 0.567033,-0.151137 0.793846,-0.340057 0.189011,-0.226706 0.34022,-0.491195 0.34022,-0.793468 0,-0.302274 -0.151209,-0.604547 -0.34022,-0.793468 -0.226813,-0.226705 -0.491429,-0.340058 -0.793846,-0.340058 H 3.3570778 c -0.2646155,0 -0.5670332,-0.113352 -0.7938465,-0.340057 C 2.3742202,50.660065 2.2608136,50.357791 2.2608136,50.055518 V 18.581297 H 55.146111 v 13.526736 c 0,0.302273 0.113407,0.566763 0.302418,0.793468 0.226813,0.226705 0.491429,0.340057 0.793847,0.340057 0.302417,0 0.604835,-0.113352 0.793846,-0.340057 0.226813,-0.226705 0.34022,-0.491195 0.34022,-0.793468 V 14.08498 Z M 47.812482,5.092345 h 2.268133 v 6.725584 h -2.268133 z m -10.130994,0 h 2.268133 v 6.725584 h -2.268133 z m -10.130993,0 h 2.268133 v 6.725584 h -2.268133 z m -10.130993,0 h 2.268132 v 6.725584 h -2.268132 z m -10.0931917,0 h 2.2303306 v 6.725584 H 7.3263103 Z M 3.3570778,9.588662 h 1.7010996 v 2.229267 c 0,0.604547 0.2268133,1.171309 0.6426377,1.586935 0.4536265,0.415626 1.0206598,0.680116 1.6254952,0.680116 h 2.2303306 c 0.6048351,0 1.1718691,-0.26449 1.5876931,-0.680116 0.415824,-0.415626 0.68044,-0.982388 0.68044,-1.586935 V 9.588662 h 3.364397 v 2.229267 c 0,0.604547 0.226813,1.171309 0.642638,1.586935 0.453626,0.415626 1.020659,0.680116 1.587693,0.680116 h 2.268132 c 0.604836,0 1.171869,-0.26449 1.587693,-0.680116 0.415825,-0.415626 0.68044,-0.982388 0.68044,-1.586935 V 9.588662 h 3.364397 v 2.229267 c 0,0.604547 0.226814,1.171309 0.642638,1.586935 0.415824,0.415626 1.02066,0.680116 1.587693,0.680116 h 2.268133 c 0.604835,0 1.171868,-0.26449 1.587693,-0.680116 0.415824,-0.415626 0.642637,-0.982388 0.642637,-1.586935 V 9.588662 h 3.4022 v 2.229267 c 0,0.604547 0.226813,1.171309 0.642637,1.586935 0.415825,0.415626 0.982858,0.680116 1.587693,0.680116 h 2.268133 c 0.604836,0 1.171869,-0.26449 1.587693,-0.680116 0.415825,-0.415626 0.642638,-0.982388 0.642638,-1.586935 V 9.588662 h 3.402199 v 2.229267 c 0,0.604547 0.226813,1.171309 0.642638,1.586935 0.415824,0.415626 0.982857,0.680116 1.587693,0.680116 h 2.268133 c 0.567033,0 1.171868,-0.26449 1.587693,-0.680116 0.415824,-0.415626 0.642637,-0.982388 0.642637,-1.586935 V 9.588662 h 1.7011 c 0.302418,0 0.567033,0.113353 0.793846,0.302274 0.189012,0.226705 0.34022,0.528978 0.34022,0.793468 v 5.629842 H 2.2608136 v -5.629842 c 0,-0.26449 0.1134066,-0.566763 0.3024177,-0.793468 0.2268133,-0.188921 0.529231,-0.302274 0.7938465,-0.302274 z"
       id="path3-8" />
    <path
       style="fill:#860626;fill-opacity:1;fill-rule:evenodd;stroke:none"
       d="M 10.123674,30.936723 H 6.7592771 c -0.6048355,0 -1.1718687,0.26449 -1.587693,0.680116 -0.4536266,0.415626 -0.6804399,0.982388 -0.6804399,1.586935 v 3.362792 c 0,0.604547 0.2268133,1.17131 0.6804399,1.586936 0.4158243,0.415626 0.9828575,0.680115 1.587693,0.680115 h 3.3643969 c 0.604836,0 1.171869,-0.264489 1.587693,-0.680115 0.415825,-0.415626 0.68044,-0.982389 0.68044,-1.586936 v -3.362792 c 0,-0.604547 -0.264615,-1.171309 -0.68044,-1.586935 -0.415824,-0.415626 -0.982857,-0.680116 -1.587693,-0.680116 z m -3.3643969,5.629843 v -3.362792 h 3.3643969 v 3.362792 z"
       id="path4-3" />
    <path
       style="fill:#860626;fill-opacity:1;fill-rule:evenodd;stroke:none"
       d="M 10.123674,41.062883 H 6.7592771 c -0.6048355,0 -1.1718687,0.226706 -1.587693,0.680116 -0.4536266,0.415626 -0.6804399,0.982388 -0.6804399,1.586935 v 3.362792 c 0,0.604547 0.2268133,1.17131 0.6804399,1.586936 0.4158243,0.415626 0.9828575,0.642331 1.587693,0.642331 h 3.3643969 c 0.604836,0 1.171869,-0.226705 1.587693,-0.642331 0.415825,-0.415626 0.68044,-0.982389 0.68044,-1.586936 v -3.362792 c 0,-0.604547 -0.264615,-1.171309 -0.68044,-1.586935 -0.415824,-0.45341 -0.982857,-0.680116 -1.587693,-0.680116 z m -3.3643969,5.629843 v -3.362792 h 3.3643969 v 3.362792 z"
       id="path5-4" />
    <path
       style="fill:#860626;fill-opacity:1;fill-rule:evenodd;stroke:none"
       d="m 20.254668,30.936723 h -3.364397 c -0.604836,0 -1.171869,0.26449 -1.625496,0.680116 -0.415824,0.415626 -0.642637,0.982388 -0.642637,1.586935 v 3.362792 c 0,0.604547 0.226813,1.17131 0.642637,1.586936 0.453627,0.415626 1.02066,0.680115 1.625496,0.680115 h 3.364397 c 0.604835,0 1.171868,-0.264489 1.587693,-0.680115 0.415824,-0.415626 0.642637,-0.982389 0.642637,-1.586936 v -3.362792 c 0,-0.604547 -0.226813,-1.171309 -0.642637,-1.586935 -0.415825,-0.415626 -0.982858,-0.680116 -1.587693,-0.680116 z m -3.364397,5.629843 v -3.362792 h 3.364397 v 3.362792 z"
       id="path6-8" />
    <path
       style="fill:#860626;fill-opacity:1;fill-rule:evenodd;stroke:none"
       d="m 20.254668,41.062883 h -3.364397 c -0.604836,0 -1.171869,0.226706 -1.625496,0.680116 -0.415824,0.415626 -0.642637,0.982388 -0.642637,1.586935 v 3.362792 c 0,0.604547 0.226813,1.17131 0.642637,1.586936 0.453627,0.415626 1.02066,0.642331 1.625496,0.642331 h 3.364397 c 0.604835,0 1.171868,-0.226705 1.587693,-0.642331 0.415824,-0.415626 0.642637,-0.982389 0.642637,-1.586936 v -3.362792 c 0,-0.604547 -0.226813,-1.171309 -0.642637,-1.586935 -0.415825,-0.45341 -0.982858,-0.680116 -1.587693,-0.680116 z m -3.364397,5.629843 v -3.362792 h 3.364397 v 3.362792 z"
       id="path7-4" />
    <path
       style="fill:#860626;fill-opacity:1;fill-rule:evenodd;stroke:none"
       d="m 30.385661,30.936723 h -3.402199 c -0.567033,0 -1.134067,0.26449 -1.587693,0.680116 -0.415825,0.415626 -0.642638,0.982388 -0.642638,1.586935 v 3.362792 c 0,0.604547 0.226813,1.17131 0.642638,1.586936 0.453626,0.415626 1.02066,0.680115 1.587693,0.680115 h 3.402199 c 0.604835,0 1.171869,-0.264489 1.587693,-0.680115 0.415824,-0.415626 0.642638,-0.982389 0.642638,-1.586936 v -3.362792 c 0,-0.604547 -0.226814,-1.171309 -0.642638,-1.586935 -0.415824,-0.415626 -0.982858,-0.680116 -1.587693,-0.680116 z m -3.402199,5.629843 v -3.362792 h 3.402199 v 3.362792 z"
       id="path8-9" />
    <path
       style="fill:#860626;fill-opacity:1;fill-rule:evenodd;stroke:none"
       d="m 30.385661,41.062883 h -3.402199 c -0.567033,0 -1.134067,0.226706 -1.587693,0.680116 -0.415825,0.415626 -0.642638,0.982388 -0.642638,1.586935 v 3.362792 c 0,0.604547 0.226813,1.17131 0.642638,1.586936 0.453626,0.415626 1.02066,0.642331 1.587693,0.642331 h 3.402199 c 0.604835,0 1.171869,-0.226705 1.587693,-0.642331 0.415824,-0.415626 0.642638,-0.982389 0.642638,-1.586936 v -3.362792 c 0,-0.604547 -0.226814,-1.171309 -0.642638,-1.586935 -0.415824,-0.45341 -0.982858,-0.680116 -1.587693,-0.680116 z m -3.402199,5.629843 v -3.362792 h 3.402199 v 3.362792 z"
       id="path9-9" />
    <path
       style="fill:#860626;fill-opacity:1;fill-rule:evenodd;stroke:none"
       d="m 30.385661,20.810564 h -3.402199 c -0.567033,0 -1.134067,0.264489 -1.587693,0.680115 -0.415825,0.415626 -0.642638,0.982388 -0.642638,1.586935 v 3.362792 c 0,0.604547 0.226813,1.17131 0.642638,1.586936 0.453626,0.415626 1.02066,0.680115 1.587693,0.680115 h 3.402199 c 0.604835,0 1.171869,-0.264489 1.587693,-0.680115 0.415824,-0.415626 0.642638,-0.982389 0.642638,-1.586936 v -3.362792 c 0,-0.604547 -0.226814,-1.171309 -0.642638,-1.586935 -0.415824,-0.415626 -0.982858,-0.680115 -1.587693,-0.680115 z m -3.402199,5.629842 v -3.362792 h 3.402199 v 3.362792 z"
       id="path10-2" />
    <path
       style="fill:#860626;fill-opacity:1;fill-rule:evenodd;stroke:none"
       d="m 40.516654,30.936723 h -3.402199 c -0.567033,0 -1.171868,0.26449 -1.587693,0.680116 -0.415824,0.415626 -0.642637,0.982388 -0.642637,1.586935 v 3.362792 c 0,0.604547 0.226813,1.17131 0.642637,1.586936 0.415825,0.415626 1.02066,0.680115 1.587693,0.680115 h 3.402199 c 0.567034,0 1.171869,-0.264489 1.587693,-0.680115 0.415825,-0.415626 0.642638,-0.982389 0.642638,-1.586936 v -3.362792 c 0,-0.604547 -0.226813,-1.171309 -0.642638,-1.586935 -0.415824,-0.415626 -1.020659,-0.680116 -1.587693,-0.680116 z m -3.402199,5.629843 v -3.362792 h 3.402199 v 3.362792 z"
       id="path11-5" />
    <path
       style="fill:#860626;fill-opacity:1;fill-rule:evenodd;stroke:none"
       d="m 40.516654,20.810564 h -3.402199 c -0.567033,0 -1.171868,0.264489 -1.587693,0.680115 -0.415824,0.415626 -0.642637,0.982388 -0.642637,1.586935 v 3.362792 c 0,0.604547 0.226813,1.17131 0.642637,1.586936 0.415825,0.415626 1.02066,0.680115 1.587693,0.680115 h 3.402199 c 0.567034,0 1.171869,-0.264489 1.587693,-0.680115 0.415825,-0.415626 0.642638,-0.982389 0.642638,-1.586936 v -3.362792 c 0,-0.604547 -0.226813,-1.171309 -0.642638,-1.586935 -0.415824,-0.415626 -1.020659,-0.680115 -1.587693,-0.680115 z m -3.402199,5.629842 v -3.362792 h 3.402199 v 3.362792 z"
       id="path12-5" />
    <path
       style="fill:#860626;fill-opacity:1;fill-rule:evenodd;stroke:none"
       d="m 50.647648,20.810564 h -3.402199 c -0.604836,0 -1.171869,0.264489 -1.587693,0.680115 -0.415825,0.415626 -0.642638,0.982388 -0.642638,1.586935 v 3.362792 c 0,0.604547 0.226813,1.17131 0.642638,1.586936 0.415824,0.415626 0.982857,0.680115 1.587693,0.680115 h 3.402199 c 0.567033,0 1.134066,-0.264489 1.587693,-0.680115 0.415824,-0.415626 0.642638,-0.982389 0.642638,-1.586936 v -3.362792 c 0,-0.604547 -0.226814,-1.171309 -0.642638,-1.586935 -0.453627,-0.415626 -1.02066,-0.680115 -1.587693,-0.680115 z m -3.402199,5.629842 v -3.362792 h 3.402199 v 3.362792 z"
       id="path13-3" />
  </g>
</svg>
