<?xml version="1.0" encoding="UTF-8" standalone="no"?>
<!-- Created with Inkscape (http://www.inkscape.org/) -->

<svg
   width="72"
   height="72"
   viewBox="0 0 72 72"
   version="1.1"
   id="svg1"
   xmlns="http://www.w3.org/2000/svg"
   xmlns:svg="http://www.w3.org/2000/svg">
  <defs
     id="defs1" />
  <g
     id="layer1">
    <path
       style="fill:#860626;fill-opacity:1;fill-rule:evenodd;stroke:none"
       d="M 68.698915,50.301312 V 37.870317 c 0,-1.62472 -0.642637,-3.211656 -1.814506,-4.382965 -1.171868,-1.17131 -2.759561,-1.813641 -4.385057,-1.813641 H 51.612315 c -0.982858,0 -1.965716,0.226705 -2.872969,0.680116 -0.869451,0.491194 -1.625495,1.133525 -2.192528,1.964777 -0.567033,-0.831252 -1.36088,-1.473583 -2.230331,-1.964777 -0.907253,-0.453411 -1.89011,-0.680116 -2.872968,-0.680116 H 30.594283 c -1.020659,0 -2.003517,0.226705 -2.872968,0.680116 -0.907253,0.491194 -1.663297,1.133525 -2.23033,1.964777 -0.567034,-0.831252 -1.36088,-1.473583 -2.230331,-1.964777 -0.869451,-0.453411 -1.890111,-0.680116 -2.872968,-0.680116 H 9.5384503 c -1.6632975,0 -3.2509905,0.642331 -4.4228591,1.813641 -1.1340664,1.171309 -1.8145063,2.758245 -1.8145063,4.382965 v 12.430995 c 0,0.302273 0.1134067,0.566762 0.3402199,0.793467 0.1890111,0.226705 0.4914288,0.340058 0.7938465,0.340058 H 23.789885 c -0.0378,0.113352 -0.0756,0.264489 -0.113407,0.415626 l -2.797364,0.264489 c -0.264615,0.03778 -0.529231,0.188921 -0.718242,0.377842 -0.189011,0.226705 -0.264615,0.491194 -0.264615,0.755683 v 5.252001 c 0,0.26449 0.0756,0.528979 0.264615,0.755684 0.189011,0.188921 0.453627,0.340058 0.718242,0.377842 l 2.797364,0.264489 c 0.189011,0.642331 0.453627,1.246878 0.756045,1.851425 l -1.776705,2.153698 c -0.151208,0.226705 -0.264615,0.491194 -0.226813,0.793468 0,0.264489 0.113407,0.528978 0.302418,0.717899 l 3.742419,3.70285 c 0.189011,0.226705 0.453627,0.340057 0.718242,0.340057 0.302418,0 0.567033,-0.07557 0.756044,-0.264489 l 2.192529,-1.738072 c 0.567033,0.302273 1.209671,0.566762 1.814506,0.755683 l 0.302418,2.758245 c 0.0378,0.302274 0.151209,0.566763 0.378022,0.7179 0.189011,0.188921 0.453627,0.302273 0.756044,0.302273 h 5.254508 c 0.264616,0 0.529231,-0.113352 0.756044,-0.302273 0.189011,-0.151137 0.34022,-0.415626 0.34022,-0.7179 l 0.302418,-2.758245 c 0.642638,-0.188921 1.247473,-0.45341 1.852309,-0.755683 l 2.154726,1.738072 c 0.226813,0.188921 0.491429,0.264489 0.756044,0.264489 0.302418,0 0.567033,-0.151137 0.756044,-0.340057 l 3.704617,-3.70285 c 0.189011,-0.188921 0.302418,-0.45341 0.34022,-0.717899 0,-0.302274 -0.0756,-0.566763 -0.264615,-0.793468 L 47.60528,61.749918 c 0.302418,-0.604547 0.529231,-1.209094 0.756044,-1.851425 l 2.759562,-0.264489 c 0.264615,-0.03778 0.529231,-0.188921 0.718242,-0.377842 0.189011,-0.226705 0.302418,-0.491194 0.302418,-0.755684 v -5.252001 c 0,-0.264489 -0.113407,-0.528978 -0.302418,-0.755683 -0.189011,-0.188921 -0.453627,-0.340058 -0.718242,-0.377842 l -2.759562,-0.264489 c -0.0378,-0.151137 -0.113406,-0.302274 -0.151209,-0.415626 h 19.392536 c 0.264616,0 0.567033,-0.113353 0.793847,-0.340058 0.189011,-0.226705 0.302417,-0.491194 0.302417,-0.793467 z M 30.594283,33.902978 h 10.849236 c 1.058462,0 2.04132,0.415626 2.797364,1.171309 0.756044,0.755684 1.171868,1.738073 1.171868,2.79603 v 4.609669 c -0.189011,-0.113352 -0.453626,-0.18892 -0.680439,-0.18892 -0.264616,0 -0.491429,0.113352 -0.68044,0.264489 l -2.154726,1.738072 C 41.29231,43.991354 40.687475,43.726864 40.044837,43.537943 l -0.302418,-2.758245 c 0,-0.302273 -0.151209,-0.566762 -0.34022,-0.717899 -0.226813,-0.188921 -0.491428,-0.302273 -0.756044,-0.302273 h -5.254508 c -0.302417,0 -0.567033,0.113352 -0.756044,0.302273 -0.226813,0.151137 -0.34022,0.415626 -0.378022,0.717899 l -0.302418,2.758245 c -0.604835,0.188921 -1.247473,0.453411 -1.814506,0.755684 l -2.192529,-1.738072 c -0.189011,-0.151137 -0.415824,-0.264489 -0.642637,-0.264489 -0.264616,0 -0.491429,0.07557 -0.68044,0.18892 v -4.609669 c 0,-1.057957 0.415824,-2.040346 1.134066,-2.79603 0.756045,-0.755683 1.776704,-1.171309 2.835166,-1.171309 z M 5.5692178,37.870317 c 0,-1.057957 0.4158243,-2.040346 1.1340664,-2.79603 0.7560443,-0.755683 1.7767041,-1.171309 2.8351661,-1.171309 H 20.387686 c 1.058462,0 2.079121,0.415626 2.797363,1.171309 0.756045,0.755684 1.171869,1.738073 1.171869,2.79603 v 6.838936 l -1.625495,1.62472 c -0.189011,0.188921 -0.302418,0.45341 -0.302418,0.717899 -0.0378,0.302274 0.0756,0.566763 0.226813,0.793468 l 1.096265,1.322446 h -2.494946 v -7.216778 c 0,-0.302273 -0.113407,-0.604547 -0.302418,-0.793468 -0.226813,-0.226705 -0.491429,-0.340057 -0.793847,-0.340057 -0.302417,0 -0.604835,0.113352 -0.793846,0.340057 -0.226813,0.188921 -0.34022,0.491195 -0.34022,0.793468 v 7.216778 H 10.89933 v -7.216778 c 0,-0.302273 -0.113407,-0.604547 -0.34022,-0.793468 -0.226813,-0.226705 -0.491429,-0.340057 -0.7938464,-0.340057 -0.3024178,0 -0.5670333,0.113352 -0.7938465,0.340057 -0.2268133,0.188921 -0.34022,0.491195 -0.34022,0.793468 v 7.216778 H 5.5692178 Z M 49.873413,54.26865 v 3.211655 l -2.494946,0.26449 c -0.226814,0.03778 -0.453627,0.113352 -0.642638,0.264489 -0.151209,0.151137 -0.264616,0.340058 -0.34022,0.566763 -0.226813,0.944604 -0.642638,1.889209 -1.134066,2.720461 -0.113407,0.18892 -0.151209,0.415626 -0.151209,0.642331 0.0378,0.226705 0.113406,0.45341 0.264615,0.642331 l 1.587693,1.964777 -2.268133,2.267051 -1.965715,-1.586936 c -0.189011,-0.151137 -0.415824,-0.226705 -0.642637,-0.226705 -0.226814,-0.03778 -0.453627,0 -0.642638,0.151137 -0.869451,0.491194 -1.776704,0.869036 -2.721759,1.095741 -0.226814,0.07557 -0.415825,0.188921 -0.567034,0.377842 -0.151209,0.151137 -0.264615,0.377842 -0.264615,0.604547 l -0.264616,2.53154 h -3.213188 l -0.264615,-2.53154 c -0.0378,-0.226705 -0.113407,-0.45341 -0.264616,-0.604547 -0.151209,-0.188921 -0.378022,-0.302274 -0.604835,-0.377842 -0.945056,-0.226705 -1.852309,-0.604547 -2.683958,-1.095741 -0.226813,-0.151137 -0.453626,-0.188921 -0.680439,-0.151137 -0.226814,0 -0.453627,0.07557 -0.604836,0.226705 l -1.965715,1.586936 -2.305935,-2.267051 1.625495,-1.964777 c 0.113407,-0.188921 0.226813,-0.415626 0.226813,-0.642331 0.0378,-0.226705 -0.0378,-0.453411 -0.151208,-0.642331 -0.491429,-0.831252 -0.869451,-1.775857 -1.134067,-2.720461 -0.0378,-0.226705 -0.151209,-0.415626 -0.34022,-0.566763 -0.189011,-0.151137 -0.378022,-0.226705 -0.604835,-0.264489 l -2.532749,-0.26449 V 54.26865 l 2.532749,-0.264489 c 0.226813,-0.03778 0.415824,-0.113352 0.604835,-0.264489 0.189011,-0.151137 0.302418,-0.340058 0.34022,-0.566763 0.264616,-0.944604 0.642638,-1.889209 1.134067,-2.720461 0.113406,-0.188921 0.189011,-0.415626 0.151208,-0.642331 0,-0.226705 -0.113406,-0.45341 -0.226813,-0.642331 l -1.625495,-1.964777 2.305935,-2.267051 1.965715,1.586936 c 0.151209,0.151136 0.378022,0.226705 0.604836,0.226705 0.226813,0.03778 0.453626,-0.03778 0.680439,-0.151137 0.831649,-0.491194 1.738902,-0.869036 2.683958,-1.095741 0.226813,-0.07557 0.453626,-0.188921 0.604835,-0.377842 0.151209,-0.151137 0.226813,-0.377842 0.264616,-0.604547 l 0.264615,-2.53154 h 3.213188 l 0.264616,2.53154 c 0,0.226705 0.113406,0.45341 0.264615,0.604547 0.151209,0.188921 0.34022,0.302273 0.567034,0.377842 0.945055,0.226705 1.852308,0.604547 2.721759,1.095741 0.189011,0.113353 0.415824,0.188921 0.642638,0.151137 0.226813,0 0.453626,-0.07557 0.642637,-0.226705 l 1.965715,-1.586936 2.268133,2.267051 -1.587693,1.964777 c -0.151209,0.188921 -0.226813,0.415626 -0.264615,0.642331 0,0.226705 0.0378,0.45341 0.151209,0.642331 0.491428,0.831252 0.907253,1.775857 1.134066,2.720461 0.0756,0.226705 0.189011,0.415626 0.34022,0.566763 0.189011,0.151137 0.415824,0.226705 0.642638,0.264489 z m 16.595172,-5.100864 h -3.099782 v -7.216778 c 0,-0.302273 -0.113406,-0.604547 -0.34022,-0.793468 -0.189011,-0.226705 -0.491428,-0.340057 -0.793846,-0.340057 -0.264616,0 -0.567033,0.113352 -0.793847,0.340057 -0.189011,0.188921 -0.302417,0.491195 -0.302417,0.793468 v 7.216778 h -8.127476 v -7.216778 c 0,-0.302273 -0.151209,-0.604547 -0.34022,-0.793468 -0.226814,-0.226705 -0.491429,-0.340057 -0.793847,-0.340057 -0.302418,0 -0.604835,0.113352 -0.793846,0.340057 -0.226814,0.188921 -0.34022,0.491195 -0.34022,0.793468 v 7.216778 h -2.494946 l 1.096264,-1.322446 c 0.189011,-0.226705 0.264615,-0.491194 0.264615,-0.793468 -0.0378,-0.264489 -0.151209,-0.528978 -0.34022,-0.717899 l -1.625495,-1.62472 v -6.838936 c 0,-1.057957 0.453627,-2.040346 1.171869,-2.79603 0.756044,-0.755683 1.776704,-1.171309 2.797364,-1.171309 h 10.887037 c 1.058462,0 2.04132,0.415626 2.797364,1.171309 0.756044,0.755684 1.171869,1.738073 1.171869,2.79603 z M 57.055833,17.089018 c -0.0378,0 -0.0756,0 -0.113406,0 -0.567033,-0.793468 -1.323078,-1.398014 -2.192529,-1.851425 -0.869451,-0.415625 -1.814506,-0.642331 -2.797363,-0.642331 H 41.103299 c -0.982858,0 -1.927913,0.226706 -2.797364,0.642331 -0.831649,0.453411 -1.587693,1.057957 -2.192528,1.851425 -0.0378,0 -0.07561,0 -0.113407,0 -0.0378,0 -0.0756,0 -0.113407,0 C 35.31956,16.29555 34.563516,15.691004 33.694065,15.237593 32.824614,14.821968 31.879559,14.595262 30.896701,14.595262 H 20.047466 c -0.945056,0 -1.927913,0.226706 -2.759562,0.642331 -0.869451,0.453411 -1.625495,1.057957 -2.192528,1.851425 -0.07561,0 -0.113407,0 -0.151209,0 -1.663298,0 -3.250991,0.604547 -4.498464,1.738072 -1.2474727,1.095742 -2.0035169,2.644893 -2.192528,4.269613 -0.1890111,1.662504 0.2646155,3.325007 1.2474731,4.685238 0.9828579,1.322446 2.4193419,2.267051 4.0826389,2.607108 1.625495,0.340058 3.326595,0.07557 4.763079,-0.755683 1.436484,-0.831252 2.494946,-2.191483 3.024177,-3.778418 0.491429,-1.586936 0.415825,-3.287224 -0.264615,-4.798591 -0.718242,-1.511367 -1.927913,-2.720461 -3.440002,-3.400576 0.68044,-0.528979 1.512089,-0.831252 2.38154,-0.831252 h 10.849235 c 0.869451,0.03778 1.738902,0.302273 2.419342,0.831252 -1.436484,0.604547 -2.570551,1.700288 -3.288793,3.060518 -0.718242,1.398015 -0.907253,2.947166 -0.604835,4.458534 0.302418,1.511367 1.134066,2.871597 2.343737,3.853986 1.209671,0.982388 2.683957,1.511367 4.233848,1.511367 1.549891,0 3.061979,-0.528979 4.233848,-1.511367 1.209671,-0.982389 2.04132,-2.342619 2.343737,-3.853986 0.34022,-1.511368 0.113407,-3.060519 -0.604835,-4.458534 -0.68044,-1.36023 -1.852309,-2.455971 -3.25099,-3.060518 0.680439,-0.528979 1.512088,-0.793468 2.381539,-0.831252 h 10.849236 c 0.86945,0.03778 1.701099,0.302273 2.419341,0.831252 -1.549891,0.680115 -2.759561,1.889209 -3.440001,3.400576 -0.68044,1.511367 -0.793847,3.211655 -0.264616,4.798591 0.491429,1.586935 1.587693,2.909382 3.024177,3.778418 1.436485,0.831252 3.137584,1.095741 4.763079,0.755683 1.625496,-0.340057 3.06198,-1.284662 4.044837,-2.607108 0.982858,-1.360231 1.436484,-3.022734 1.247473,-4.685238 -0.151208,-1.62472 -0.945055,-3.173871 -2.192528,-4.269613 -1.209671,-1.133525 -2.835166,-1.738072 -4.498464,-1.738072 z M 19.44263,23.814602 c 0,0.869036 -0.264615,1.738072 -0.756044,2.493756 -0.491429,0.717899 -1.209671,1.284662 -2.003517,1.62472 -0.831649,0.340057 -1.738902,0.45341 -2.608353,0.264489 -0.869451,-0.188921 -1.663297,-0.604547 -2.268133,-1.209094 -0.642638,-0.642331 -1.058462,-1.435799 -1.247473,-2.304835 -0.151209,-0.869036 -0.0756,-1.775856 0.264616,-2.569324 0.340219,-0.831252 0.907253,-1.549151 1.663297,-2.040346 0.718242,-0.491194 1.587693,-0.755683 2.457144,-0.755683 1.209671,0 2.343737,0.491194 3.175386,1.322446 0.831648,0.831252 1.323077,1.964777 1.323077,3.173871 z m 21.055834,0 c 0,0.869036 -0.264616,1.738072 -0.756045,2.493756 -0.491428,0.717899 -1.209671,1.284662 -2.003517,1.62472 -0.831649,0.340057 -1.738902,0.45341 -2.608353,0.264489 -0.869451,-0.188921 -1.663297,-0.604547 -2.305935,-1.209094 -0.604835,-0.642331 -1.02066,-1.435799 -1.209671,-2.304835 -0.189011,-0.869036 -0.0756,-1.775856 0.264616,-2.569324 0.34022,-0.831252 0.907253,-1.549151 1.625495,-2.040346 0.756044,-0.491194 1.625495,-0.755683 2.494946,-0.755683 1.209671,0 2.343737,0.491194 3.175386,1.322446 0.831649,0.831252 1.323078,1.964777 1.323078,3.173871 z m 16.557369,4.458533 c -0.86945,0 -1.738901,-0.264489 -2.494946,-0.755683 -0.718242,-0.491195 -1.285275,-1.17131 -1.625495,-2.002562 -0.34022,-0.793468 -0.453626,-1.700288 -0.264615,-2.569324 0.151208,-0.869036 0.604835,-1.662504 1.20967,-2.304835 0.642638,-0.604547 1.436485,-1.057957 2.305936,-1.209094 0.86945,-0.188921 1.776704,-0.113352 2.57055,0.226705 0.831649,0.340058 1.549891,0.944605 2.04132,1.662504 0.491428,0.755684 0.756044,1.586936 0.756044,2.493756 0,1.17131 -0.491429,2.304835 -1.323078,3.173871 -0.831648,0.831252 -1.965715,1.284662 -3.175386,1.284662 z M 18.76219,6.7361533 c 0,1.322447 0.378023,2.644893 1.134067,3.7406337 0.718242,1.095741 1.776704,1.964777 3.024177,2.493756 1.209671,0.491194 2.570551,0.642331 3.855826,0.377842 1.323077,-0.26449 2.532748,-0.906821 3.477804,-1.851425 0.945055,-0.944605 1.54989,-2.1536977 1.814506,-3.4383607 0.264615,-1.322446 0.151209,-2.644892 -0.378022,-3.89177 -0.491429,-1.246878 -1.36088,-2.267051 -2.457144,-3.0227343 -1.134067,-0.7178994 -2.419342,-1.1335253 -3.742419,-1.1335253 -1.776705,0 -3.515606,0.7178994 -4.763079,1.9647776 -1.247474,1.284662 -1.965716,2.98495 -1.965716,4.760806 z m 6.728795,-4.458533 c 0.86945,0 1.738901,0.264489 2.494946,0.755684 0.718242,0.491194 1.285275,1.171309 1.625495,2.002561 0.34022,0.793468 0.453626,1.700288 0.264615,2.569324 -0.189011,0.869036 -0.604835,1.662504 -1.20967,2.304835 -0.642638,0.6045467 -1.436485,1.0579567 -2.305936,1.2090937 -0.86945,0.188921 -1.776704,0.113353 -2.608352,-0.226705 -0.793847,-0.340058 -1.512089,-0.9446047 -2.003518,-1.6625037 -0.491428,-0.755684 -0.756044,-1.586936 -0.756044,-2.493756 0,-1.171309 0.491429,-2.304835 1.323078,-3.173871 0.831648,-0.831252 1.965715,-1.284662 3.175386,-1.284662 z M 46.546818,0.0105697 c -1.36088,0 -2.646155,0.4156259 -3.742419,1.1335253 -1.096265,0.7556833 -1.965715,1.7758563 -2.494946,3.0227343 -0.491429,1.246878 -0.642638,2.569324 -0.378023,3.891771 0.264616,1.284662 0.907254,2.4937547 1.852309,3.4383597 0.945055,0.944604 2.116924,1.586935 3.440001,1.851425 1.285276,0.264489 2.646155,0.113352 3.893628,-0.377842 1.209671,-0.528979 2.268133,-1.398015 3.024178,-2.493756 0.718242,-1.0957407 1.134066,-2.4181867 1.134066,-3.7406337 0,-1.775856 -0.718242,-3.476144 -2.003517,-4.760806 C 50.024622,0.7284691 48.323522,0.0105697 46.546818,0.0105697 Z m 0,11.2219013 c -0.907253,0 -1.776704,-0.26449 -2.494946,-0.755684 -0.756045,-0.4911937 -1.323078,-1.2090937 -1.663298,-2.0403457 -0.34022,-0.793468 -0.415824,-1.700288 -0.264615,-2.569324 0.189011,-0.869036 0.604835,-1.662504 1.247473,-2.304835 0.604835,-0.604547 1.436484,-1.057957 2.305935,-1.209093 0.869451,-0.188921 1.738902,-0.07557 2.570551,0.264489 0.831648,0.340057 1.512088,0.90682 2.003517,1.624719 0.491429,0.755684 0.756044,1.62472 0.756044,2.493756 0,1.209094 -0.453626,2.342619 -1.323077,3.173871 -0.831649,0.8312517 -1.965715,1.3224467 -3.137584,1.3224467 z M 36,49.281139 c -1.285275,0 -2.57055,0.377841 -3.666815,1.095741 -1.096264,0.717899 -1.927913,1.775856 -2.419341,2.98495 -0.529231,1.209094 -0.642638,2.53154 -0.378023,3.816202 0.226814,1.284662 0.869451,2.455972 1.776705,3.362792 0.945055,0.944604 2.116924,1.549151 3.402199,1.813641 1.285275,0.264489 2.608353,0.113352 3.818023,-0.377842 1.209671,-0.491195 2.230331,-1.360231 2.986375,-2.418188 0.718242,-1.095741 1.096265,-2.380403 1.096265,-3.702849 0,-1.738072 -0.68044,-3.400576 -1.927913,-4.647454 C 39.440002,49.961254 37.776704,49.281139 36,49.281139 Z m 0,10.957412 c -0.869451,0 -1.7011,-0.26449 -2.419342,-0.755684 -0.718242,-0.45341 -1.285275,-1.133525 -1.587693,-1.926993 -0.34022,-0.793468 -0.415824,-1.700288 -0.264615,-2.53154 0.151209,-0.831252 0.567033,-1.62472 1.209671,-2.229267 0.604835,-0.604547 1.360879,-1.020173 2.23033,-1.209093 0.831649,-0.151137 1.7011,-0.07557 2.494947,0.264489 0.793846,0.340057 1.512088,0.869036 1.965715,1.586935 0.491428,0.7179 0.756044,1.586936 0.756044,2.418188 0,1.171309 -0.491429,2.267051 -1.285275,3.098302 C 38.268133,59.78514 37.171869,60.238551 36,60.238551 Z"
       id="path1-2" />
  </g>
</svg>
