<?xml version="1.0" encoding="UTF-8" standalone="no"?>
<!-- Created with Inkscape (http://www.inkscape.org/) -->

<svg
   width="72"
   height="72"
   viewBox="0 0 72 72"
   version="1.1"
   id="svg1"
   xmlns="http://www.w3.org/2000/svg"
   xmlns:svg="http://www.w3.org/2000/svg">
  <defs
     id="defs1" />
  <g
     id="layer1">
    <path
       style="fill:#860626;fill-opacity:1;fill-rule:evenodd;stroke:none"
       d="m 53.940732,45.781379 c -4.649672,0 -8.467696,3.816202 -8.467696,8.463656 0,4.647454 3.818024,8.425872 8.467696,8.425872 4.649673,0 8.429894,-3.778418 8.429894,-8.425872 0,-4.647454 -3.780221,-8.463656 -8.429894,-8.463656 z m 0,14.660261 c -3.440001,0 -6.199563,-2.796029 -6.199563,-6.196605 0,-3.43836 2.759562,-6.196605 6.199563,-6.196605 3.4022,0 6.199564,2.758245 6.199564,6.196605 0,3.400576 -2.797364,6.196605 -6.199564,6.196605 z M 69.855465,51.108948 67.814145,50.31548 C 67.511727,49.219739 67.058101,48.199566 66.52887,47.217178 l 0.869451,-2.002562 c 0.189011,-0.415626 0.113406,-0.90682 -0.226814,-1.246878 l -2.948572,-2.947166 c -0.34022,-0.340057 -0.831649,-0.45341 -1.285276,-0.264489 l -1.965715,0.90682 c -0.982857,-0.566762 -2.041319,-0.982388 -3.099781,-1.284662 l -0.793847,-2.040345 c -0.151209,-0.415626 -0.567033,-0.7179 -1.058462,-0.7179 h -4.196046 c -0.453626,0 -0.869451,0.302274 -1.020659,0.7179 l -0.793847,2.040345 c -1.058462,0.302274 -2.079122,0.7179 -3.024177,1.246878 -3.402199,-3.022734 -7.447036,-5.100864 -11.794291,-6.121037 4.763079,-2.380403 8.051872,-7.292346 8.051872,-12.959973 0,-0.680115 -0.0378,-1.322446 -0.113407,-1.964777 0.151209,-0.188921 0.226813,-0.415626 0.226813,-0.7179 V 9.9997612 l 2.797364,-0.755683 v 7.7457568 l -1.701099,0.982388 c -0.34022,0.188921 -0.567034,0.566763 -0.567034,0.982389 v 6.87672 c 0,0.415626 0.264616,0.831252 0.642638,1.020173 0.378022,0.188921 0.831649,0.151137 1.171869,-0.113352 l 1.587693,-1.209094 1.587693,1.209094 c 0.189011,0.151136 0.415824,0.226705 0.68044,0.226705 0.151208,0 0.340219,-0.03778 0.491428,-0.113353 0.378022,-0.188921 0.642638,-0.604547 0.642638,-1.020173 v -6.87672 c 0,-0.415626 -0.226813,-0.793468 -0.567033,-0.982389 l -1.7011,-0.982388 V 8.6395312 l 0.34022,-0.07557 c 0.491429,-0.113353 0.831649,-0.566763 0.831649,-1.095741 0,-0.491194 -0.34022,-0.944605 -0.831649,-1.095741 L 29.066875,1.1582638 c -0.189011,-0.037784 -0.378022,-0.037784 -0.567033,0 L 8.8048885,6.3724802 c -0.4914288,0.151137 -0.8316487,0.604547 -0.8316487,1.095741 0,0.528979 0.3402199,0.982389 0.8316487,1.095742 l 5.4057165,1.435798 v 9.8616708 c 0,0.302274 0.07561,0.528979 0.264616,0.7179 -0.113407,0.642331 -0.151209,1.284662 -0.151209,1.964777 0,5.667627 3.288792,10.57957 8.051871,12.959973 -4.422859,1.057957 -8.581102,3.211655 -12.021104,6.309958 -5.0276942,4.571886 -8.2030802,10.730707 -8.9213223,17.456291 -0.037802,0.302273 0.075604,0.642331 0.3024177,0.869036 0.1890111,0.226705 0.4914288,0.377842 0.8316487,0.377842 H 40.936771 c 0.151209,0.264489 0.264615,0.491194 0.415824,0.755683 l -0.907253,1.964778 c -0.189011,0.45341 -0.07561,0.944604 0.264615,1.284662 l 2.948573,2.947166 c 0.34022,0.340057 0.831649,0.415626 1.247473,0.226705 l 2.003518,-0.869036 c 0.982857,0.528978 2.003517,0.982388 3.099781,1.284662 l 0.793847,2.002561 c 0.151208,0.45341 0.567033,0.755684 1.020659,0.755684 h 4.196046 c 0.491429,0 0.907253,-0.302274 1.058462,-0.755684 l 0.793847,-2.002561 c 1.058462,-0.302274 2.116924,-0.755684 3.099781,-1.284662 l 1.965715,0.869036 c 0.453627,0.188921 0.945056,0.113352 1.285276,-0.226705 l 2.948572,-2.947166 c 0.34022,-0.340058 0.415825,-0.831252 0.226814,-1.284662 L 66.52887,61.272892 c 0.529231,-0.982388 0.982857,-2.040345 1.285275,-3.098302 l 2.04132,-0.793468 c 0.415824,-0.151137 0.718242,-0.566763 0.718242,-1.057957 v -4.194044 c 0,-0.45341 -0.302418,-0.869036 -0.718242,-1.020173 z M 48.421609,19.596943 v 4.005123 l -0.453626,-0.377842 c -0.226814,-0.151137 -0.453627,-0.226705 -0.68044,-0.226705 -0.226814,0 -0.491429,0.07557 -0.68044,0.226705 l -0.453627,0.377842 v -4.005123 l 1.134067,-0.680115 z M 35.379845,37.846701 c 0.718242,0.188921 1.436484,0.415626 2.154726,0.680115 l -3.893628,6.990074 -3.25099,-3.816202 z m -6.577585,2.267051 -3.704617,-2.871598 c 1.209671,-0.151136 2.419342,-0.264489 3.666815,-0.264489 h 0.0378 v 0 c 1.247473,0 2.457144,0.113353 3.666815,0.264489 z M 13.492363,7.4682212 28.80226,3.4253142 44.074354,7.4682212 28.80226,11.548913 Z m 2.948573,3.1360868 12.058906,3.173871 c 0.113407,0.03778 0.189011,0.03778 0.302418,0.03778 0.0756,0 0.189011,0 0.264615,-0.03778 l 12.058907,-3.173871 v 8.350304 c -1.890111,0.340057 -3.477804,0.642331 -4.800881,0.90682 -7.522641,1.435799 -7.522641,1.435799 -15.083084,0 -1.323077,-0.264489 -2.91077,-0.566763 -4.800881,-0.90682 z m 0.151209,11.939801 c 0,-0.45341 0,-0.869036 0.0378,-1.284662 1.625495,0.302273 3.024177,0.566762 4.196046,0.793467 3.93143,0.755684 5.934947,1.133526 7.976267,1.133526 2.003517,0 4.007035,-0.377842 7.938465,-1.133526 1.171869,-0.226705 2.57055,-0.491194 4.196046,-0.793467 0.0378,0.415626 0.0756,0.831252 0.0756,1.284662 0,6.725584 -5.481321,12.20429 -12.210115,12.20429 v 0 h -0.0378 c -6.728794,0 -12.172313,-5.478706 -12.172313,-12.20429 z m 5.594727,15.302592 4.989893,3.853987 -3.213189,3.816202 -3.93143,-6.990074 c 0.718242,-0.264489 1.436484,-0.491194 2.154726,-0.680115 z M 3.8527984,58.250158 C 5.1758759,49.824286 10.581593,42.909781 17.953024,39.395853 l 4.838684,8.652577 c 0.189011,0.302273 0.491429,0.528978 0.869451,0.566762 0.0378,0 0.0756,0 0.113406,0 0.302418,0 0.642638,-0.151136 0.831649,-0.415626 l 4.196046,-4.911943 4.158243,4.911943 c 0.189012,0.26449 0.529231,0.415626 0.869451,0.415626 0,0 0.0378,0 0.07561,0 0.378022,-0.03778 0.718242,-0.264489 0.869451,-0.566762 l 4.838683,-8.614793 c 1.247473,0.566762 2.419342,1.246878 3.553408,2.040345 l -2.457144,2.493756 c -0.34022,0.340058 -0.453626,0.831252 -0.264615,1.246878 l 0.907253,2.002562 c -0.567033,0.982388 -0.982858,2.002561 -1.285275,3.098302 l -2.04132,0.793468 c -0.415824,0.151137 -0.718242,0.566763 -0.718242,1.020173 v 4.194044 c 0,0.491194 0.302418,0.90682 0.718242,1.057957 l 2.04132,0.793468 c 0,0.03778 0,0.03778 0.0378,0.07557 z m 64.4527756,-2.682677 -1.852309,0.7179 c -0.34022,0.113352 -0.604835,0.415626 -0.68044,0.793467 -0.302417,1.246878 -0.793846,2.418188 -1.474286,3.513929 -0.189011,0.340058 -0.226813,0.717899 -0.0756,1.057957 l 0.793846,1.813641 -1.852308,1.851424 -1.814507,-0.793467 c -0.34022,-0.151137 -0.718242,-0.113353 -1.058462,0.07557 -1.096264,0.680115 -2.268132,1.171309 -3.515606,1.473583 -0.378022,0.07557 -0.680439,0.340058 -0.793846,0.680115 l -0.718242,1.851425 H 52.617659 L 51.899417,66.7516 c -0.151209,-0.340057 -0.415825,-0.604547 -0.793847,-0.680115 -1.247473,-0.302274 -2.457144,-0.793468 -3.553408,-1.473583 -0.302418,-0.188921 -0.68044,-0.226705 -1.02066,-0.07557 l -1.814506,0.793467 -1.890111,-1.851424 0.793847,-1.813641 c 0.151209,-0.340058 0.151209,-0.717899 -0.0378,-1.057957 -0.68044,-1.095741 -1.171869,-2.267051 -1.474287,-3.513929 -0.113406,-0.377841 -0.34022,-0.680115 -0.718242,-0.793467 l -1.814506,-0.7179 v -2.644892 l 1.814506,-0.7179 c 0.378022,-0.151136 0.604836,-0.415626 0.718242,-0.793467 0.302418,-1.246878 0.793847,-2.455972 1.474287,-3.551713 0.189011,-0.302274 0.189011,-0.680116 0.0378,-1.020173 l -0.793847,-1.813641 1.890111,-1.889209 1.814506,0.793468 c 0.34022,0.151137 0.718242,0.151137 1.02066,-0.03778 1.096264,-0.680115 2.305935,-1.17131 3.553408,-1.473583 0.378022,-0.113353 0.642638,-0.340058 0.793847,-0.717899 l 0.718242,-1.813641 h 2.646155 l 0.718242,1.813641 c 0.113407,0.377841 0.415824,0.604546 0.793846,0.717899 1.247474,0.302273 2.419342,0.793468 3.515606,1.473583 0.34022,0.188921 0.718242,0.188921 1.058462,0.03778 l 1.814507,-0.793468 1.852308,1.889209 -0.793846,1.813641 c -0.151209,0.340057 -0.113407,0.717899 0.0756,1.020173 0.68044,1.095741 1.171869,2.304835 1.474286,3.551713 0.07561,0.377841 0.34022,0.642331 0.68044,0.793467 l 1.852309,0.7179 z"
       id="path1-3" />
  </g>
</svg>
