<?xml version="1.0" encoding="UTF-8" standalone="no"?>
<!-- Created with Inkscape (http://www.inkscape.org/) -->

<svg
   width="72"
   height="72"
   viewBox="0 0 72 72"
   version="1.1"
   id="svg1"
   xmlns="http://www.w3.org/2000/svg"
   xmlns:svg="http://www.w3.org/2000/svg">
  <defs
     id="defs1" />
  <g
     id="layer1">
    <path
       style="fill:#860626;fill-opacity:1;fill-rule:evenodd;stroke:none"
       d="m 67.319134,62.165544 c 0.302418,-0.340058 0.529231,-0.755684 0.756045,-1.17131 0.982857,-2.229266 0.68044,-5.214217 -0.642638,-6.6878 -0.945055,-1.095741 -2.116924,-1.586935 -3.629013,-1.586935 -1.512088,0 -2.683957,0.491194 -3.629012,1.586935 -1.323078,1.473583 -1.587693,4.458534 -0.604836,6.650016 0.189012,0.45341 0.415825,0.869036 0.718243,1.209094 -2.646155,0.831252 -4.536266,3.362792 -4.687475,6.347742 -0.151209,-2.98495 -2.04132,-5.51649 -4.687475,-6.347742 0.302418,-0.340058 0.567034,-0.755684 0.756045,-1.17131 0.982857,-2.229266 0.718242,-5.214217 -0.642638,-6.6878 -0.945055,-1.095741 -2.116924,-1.586935 -3.629013,-1.586935 -1.512088,0 -2.646155,0.491194 -3.629012,1.586935 -1.323078,1.473583 -1.587693,4.458534 -0.604836,6.6878 0.189012,0.415626 0.415825,0.831252 0.718243,1.17131 -2.608353,0.831252 -4.536266,3.362792 -4.649673,6.309958 -0.189011,-2.947166 -2.079122,-5.478706 -4.687474,-6.309958 0.264615,-0.340058 0.529231,-0.755684 0.718242,-1.17131 0.982857,-2.229266 0.718242,-5.214217 -0.604836,-6.6878 -0.982857,-1.095741 -2.116924,-1.586935 -3.629012,-1.586935 -1.512089,0 -2.683958,0.491194 -3.666815,1.586935 -1.323078,1.473583 -1.587693,4.458534 -0.604836,6.6878 0.189012,0.415626 0.453627,0.831252 0.756045,1.17131 -2.759562,0.869036 -4.687475,3.589497 -4.687475,6.725584 v 0.680115 c 0,1.322446 1.02066,2.418187 2.305935,2.418187 h 11.794291 c 1.171869,0 2.192529,-0.982388 2.305935,-2.191482 0.07561,1.209094 1.096264,2.191482 2.305935,2.191482 h 11.756489 c 1.209671,0 2.192528,-0.982388 2.305935,-2.191482 0.113407,1.209094 1.096264,2.191482 2.305935,2.191482 h 11.794291 c 1.285275,0 2.305935,-1.095741 2.305935,-2.418187 v -0.680115 c 0,-3.136087 -1.927913,-5.856548 -4.687475,-6.725584 z M 33.070328,60.011845 c -0.453626,0.944605 -1.096264,1.435799 -2.041319,1.435799 -0.982858,0 -1.625496,-0.491194 -2.04132,-1.435799 -0.68044,-1.473582 -0.453626,-3.400576 0.189011,-4.118475 0.491429,-0.566763 1.02066,-0.755684 1.852309,-0.755684 0.831648,0 1.323077,0.226705 1.814506,0.755684 0.642638,0.717899 0.869451,2.644893 0.226813,4.118475 z m -3.780221,4.307397 h 3.477804 c 2.23033,0 4.044836,2.040346 4.044836,4.571886 v 0.680115 H 25.207468 v -0.680115 c 0,-2.53154 1.852308,-4.571886 4.082639,-4.571886 z m 20.186382,-4.307397 c -0.453626,0.944605 -1.134066,1.435799 -2.079122,1.435799 -0.945055,0 -1.587693,-0.491194 -2.041319,-1.435799 -0.642638,-1.473582 -0.415824,-3.400576 0.226813,-4.118475 0.491429,-0.566763 0.982858,-0.755684 1.814506,-0.755684 0.831649,0 1.36088,0.226705 1.852309,0.755684 0.642638,0.717899 0.869451,2.644893 0.226813,4.118475 z m -3.818023,4.307397 h 3.477803 c 2.268133,0 4.082639,2.040346 4.082639,4.571886 v 0.680115 H 41.613629 v -0.680115 c 0,-2.53154 1.814506,-4.571886 4.044837,-4.571886 z m 20.186382,-4.307397 c -0.415824,0.944605 -1.096264,1.435799 -2.04132,1.435799 -0.945055,0 -1.625495,-0.491194 -2.041319,-1.435799 -0.642638,-1.473582 -0.415824,-3.400576 0.189011,-4.118475 0.491429,-0.566763 1.02066,-0.755684 1.852308,-0.755684 0.831649,0 1.36088,0.226705 1.852309,0.755684 0.604835,0.717899 0.831649,2.644893 0.189011,4.118475 z m -3.780221,4.307397 h 3.477803 c 2.230331,0 4.044837,2.040346 4.044837,4.571886 v 0.680115 H 58.01979 v -0.680115 c 0,-2.53154 1.814506,-4.571886 4.044837,-4.571886 z"
       id="path1-1" />
    <path
       style="fill:#860626;fill-opacity:1;fill-rule:evenodd;stroke:none"
       d="m 18.214058,15.313162 h -3.629013 c 2.570551,-0.90682 4.42286,-3.362792 4.42286,-6.2721737 0,-3.665065 -2.986375,-6.650015 -6.65319,-6.650015 -3.666815,0 -6.6531899,2.98495 -6.6531899,6.650015 0,2.9093817 1.8523085,5.3653537 4.4228589,6.2721737 H 6.4575694 c -3.5534082,0 -6.4641784,2.909382 -6.4641784,6.498879 v 8.917066 c 0,0.680115 0.529231,1.209094 1.2096706,1.209094 h 4.6496723 v 14.47134 c 0,0.680115 0.529231,1.209094 1.2096709,1.209094 H 18.25186 c 0.642638,0 1.209671,-0.528979 1.209671,-1.209094 v -14.47134 h 4.044837 c 0.642638,0 1.209671,-0.528979 1.209671,-1.209094 v -8.917066 c 0,-3.589497 -2.910771,-6.498879 -6.501981,-6.498879 z M 8.0830646,9.0409883 c 0,-2.342619 1.9279134,-4.231828 4.2716504,-4.231828 2.343737,0 4.233848,1.889209 4.233848,4.231828 0,2.3426187 -1.890111,4.2696117 -4.233848,4.2696117 -2.343737,0 -4.2716504,-1.926993 -4.2716504,-4.2696117 z M 11.447462,45.200447 H 8.2720757 V 31.938201 h 3.1753863 z m 5.594727,0 H 13.866803 V 31.938201 h 3.175386 z m 5.254508,-15.680434 h -2.835166 v -7.481267 c 0,-0.642331 -0.567033,-1.209094 -1.209671,-1.209094 -0.68044,0 -1.209671,0.566763 -1.209671,1.209094 v 7.481267 H 8.2720757 v -7.481267 c 0,-0.642331 -0.5670333,-1.209094 -1.2096709,-1.209094 -0.6804399,0 -1.2096709,0.566763 -1.2096709,1.209094 v 7.481267 H 2.4127324 v -7.707972 c 0,-2.267051 1.8145063,-4.080692 4.044837,-4.080692 H 18.214058 c 2.268133,0 4.082639,1.813641 4.082639,4.080692 z"
       id="path2-9" />
    <path
       style="fill:#860626;fill-opacity:1;fill-rule:evenodd;stroke:none"
       d="m 57.830779,15.955493 h -3.250991 c -0.68044,0 -1.209671,0.528978 -1.209671,1.209094 v 9.446044 c 0,0.680116 0.529231,1.209094 1.209671,1.209094 h 3.250991 c 0.642637,0 1.20967,-0.528978 1.20967,-1.209094 v -9.446044 c 0,-0.680116 -0.567033,-1.209094 -1.20967,-1.209094 z m -0.907254,9.748318 h -1.474286 v -7.632404 h 1.474286 z"
       id="path3-5" />
    <path
       style="fill:#860626;fill-opacity:1;fill-rule:evenodd;stroke:none"
       d="M 69.322652,30.615754 V 7.0762113 c 1.587693,-0.415626 2.683957,-1.813641 2.683957,-3.476145 0,-1.9647769 -1.625495,-3.5894966 -3.59121,-3.5894966 H 28.534063 c -1.965716,0 -3.591211,1.6247197 -3.591211,3.5894966 0,1.662504 1.134067,3.060519 2.72176,3.476145 V 30.615754 c -1.587693,0.377842 -2.72176,1.813641 -2.72176,3.476145 0,1.964777 1.625495,3.589497 3.591211,3.589497 h 18.749898 v 4.760806 l -4.95209,4.911944 c -0.453627,0.491194 -0.453627,1.246877 0,1.700288 0.226813,0.226705 0.529231,0.377841 0.869451,0.377841 0.34022,0 0.604835,-0.151136 0.831648,-0.377841 l 4.460662,-4.420749 4.422859,4.420749 c 0.226813,0.226705 0.529231,0.377841 0.869451,0.377841 0.302417,0 0.604835,-0.151136 0.831648,-0.377841 0.453627,-0.453411 0.453627,-1.209094 0,-1.700288 L 49.6655,42.442202 v -4.760806 h 18.749899 c 1.965715,0 3.59121,-1.62472 3.59121,-3.589497 0,-1.662504 -1.096264,-3.098303 -2.683957,-3.476145 z M 27.362194,3.6000663 c 0,-0.642331 0.529231,-1.171309 1.171869,-1.171309 h 39.881336 c 0.642637,0 1.171868,0.528978 1.171868,1.171309 0,0.642331 -0.529231,1.17131 -1.171868,1.17131 H 28.534063 c -0.642638,0 -1.171869,-0.528979 -1.171869,-1.17131 z M 66.90331,7.1895633 V 30.502402 H 30.046151 V 7.1895633 Z M 68.415399,35.263208 H 28.534063 c -0.642638,0 -1.171869,-0.528978 -1.171869,-1.171309 0,-0.642331 0.529231,-1.17131 1.171869,-1.17131 h 39.881336 c 0.642637,0 1.171868,0.528979 1.171868,1.17131 0,0.642331 -0.529231,1.171309 -1.171868,1.171309 z"
       id="path4-3" />
    <path
       style="fill:#860626;fill-opacity:1;fill-rule:evenodd;stroke:none"
       d="m 44.108575,17.429076 h -5.29231 v -5.252001 c 0,-0.491194 -0.34022,-0.90682 -0.831649,-0.90682 h -0.0756 c -3.893628,0 -7.069014,3.136087 -7.069014,7.065641 0,3.891771 3.175386,7.065642 7.069014,7.065642 3.93143,0 7.106816,-3.173871 7.106816,-7.065642 0,-0.491194 -0.415824,-0.90682 -0.907253,-0.90682 z m -6.199563,5.894332 c -2.72176,0 -4.95209,-2.229267 -4.95209,-4.987512 0,-2.304835 1.54989,-4.307396 3.780221,-4.836375 v 4.836375 c 0,0.642331 0.529231,1.209094 1.171869,1.209094 h 4.838683 c -0.529231,2.191482 -2.494946,3.778418 -4.838683,3.778418 z"
       id="path5-2" />
    <path
       style="fill:#860626;fill-opacity:1;fill-rule:evenodd;stroke:none"
       d="m 40.177145,9.0032043 c -0.491429,0 -0.869451,0.377842 -0.869451,0.869036 v 6.1966047 c 0,0.491195 0.378022,0.869037 0.869451,0.869037 h 6.199563 c 0.226813,0 0.453626,-0.07557 0.604835,-0.226706 0.189011,-0.18892 0.264616,-0.415626 0.264616,-0.642331 0,-3.89177 -3.137584,-7.0656407 -7.069014,-7.0656407 z m 1.20967,5.8565477 v -3.627281 c 1.776704,0.45341 3.175386,1.851424 3.629013,3.627281 z"
       id="path6-5" />
    <path
       style="fill:#860626;fill-opacity:1;fill-rule:evenodd;stroke:none"
       d="m 64.483968,12.592701 h -3.25099 c -0.68044,0 -1.209671,0.528978 -1.209671,1.171309 v 12.846621 c 0,0.680116 0.529231,1.209094 1.209671,1.209094 h 3.25099 c 0.642638,0 1.209671,-0.528978 1.209671,-1.209094 V 13.76401 c 0,-0.642331 -0.567033,-1.171309 -1.209671,-1.171309 z m -0.907253,13.11111 h -1.436484 v -11.03298 h 1.436484 z"
       id="path7-2" />
    <path
       style="fill:#860626;fill-opacity:1;fill-rule:evenodd;stroke:none"
       d="m 51.177589,19.318285 h -3.250991 c -0.642637,0 -1.20967,0.566762 -1.20967,1.209094 v 6.083252 c 0,0.680116 0.567033,1.209094 1.20967,1.209094 h 3.250991 c 0.68044,0 1.209671,-0.528978 1.209671,-1.209094 v -6.083252 c 0,-0.642332 -0.529231,-1.209094 -1.209671,-1.209094 z m -0.869451,6.385526 h -1.474286 v -4.269612 h 1.474286 z"
       id="path8-5" />
  </g>
</svg>
