<?xml version="1.0" encoding="UTF-8" standalone="no"?>
<!-- Created with Inkscape (http://www.inkscape.org/) -->

<svg
   width="72"
   height="72"
   viewBox="0 0 72 72"
   version="1.1"
   id="svg1"
   xmlns="http://www.w3.org/2000/svg"
   xmlns:svg="http://www.w3.org/2000/svg">
  <defs
     id="defs1" />
  <g
     id="layer1">
    <path
       style="fill:#860626;fill-opacity:1;fill-rule:evenodd;stroke:none"
       d="m 47.680888,71.970541 c -1.85231,-0.30228 -3.288796,-1.927 -3.288796,-3.85399 v -3.96734 c 0,-0.60455 0.491426,-1.09574 1.096266,-1.09574 0.60483,0 1.09626,0.49119 1.09626,1.09574 v 3.96734 c 0,0.90682 0.75605,1.70029 1.7011,1.70029 h 7.10682 c 0.90725,0 1.7011,-0.79347 1.7011,-1.70029 v -3.96734 c 0,-0.60455 0.49143,-1.09574 1.09626,-1.09574 0.60484,0 1.09627,0.49119 1.09627,1.09574 v 3.96734 c 0,1.92699 -1.43649,3.55171 -3.3266,3.85399 z"
       id="path1-3" />
    <path
       style="fill:#860626;fill-opacity:1;fill-rule:evenodd;stroke:none"
       d="m 16.078234,71.970541 c -1.852309,-0.30228 -3.288793,-1.927 -3.288793,-3.85399 v -3.96734 c 0,-0.60455 0.491429,-1.09574 1.096264,-1.09574 0.604836,0 1.096265,0.49119 1.096265,1.09574 v 3.96734 c 0,0.90682 0.756044,1.70029 1.701099,1.70029 h 7.069014 c 0.945056,0 1.738902,-0.79347 1.738902,-1.70029 v -3.96734 c 0,-0.60455 0.491429,-1.09574 1.096264,-1.09574 0.604836,0 1.096265,0.49119 1.096265,1.09574 v 3.96734 c 0,1.92699 -1.436485,3.55171 -3.326595,3.85399 z"
       id="path2-9" />
    <path
       style="fill:#860626;fill-opacity:1;fill-rule:evenodd;stroke:none"
       d="M 57.849678,65.244951 H 14.188123 c -2.948573,0 -5.330112,-2.3804 -5.330112,-5.28978 v -29.92507 c 0,-0.60455 0.491429,-1.09574 1.096264,-1.09574 0.604836,0 1.096264,0.49119 1.096264,1.09574 v 29.92507 c 0,1.70028 1.398682,3.0983 3.137584,3.0983 h 43.661555 c 1.7389,0 3.13759,-1.39802 3.13759,-3.0983 V 11.251362 c 0,-1.738073 -1.39869,-3.136087 -3.13759,-3.136087 H 14.188123 c -1.738902,0 -3.137584,1.398014 -3.137584,3.136087 v 13.866793 c 0,0.604547 -0.491428,1.095741 -1.096264,1.095741 -0.604835,0 -1.096264,-0.491194 -1.096264,-1.095741 V 11.251362 c 0,-2.947166 2.381539,-5.32757 5.330112,-5.32757 h 43.661555 c 2.94858,0 5.33012,2.380404 5.33012,5.32757 v 48.703809 c 0,2.94716 -2.38154,5.32757 -5.33012,5.32757 z"
       id="path3-3" />
    <path
       style="fill:#860626;fill-opacity:1;fill-rule:evenodd;stroke:none"
       d="m 53.162208,8.115275 c -0.60484,0 -1.09627,-0.491195 -1.09627,-1.095742 V 3.921231 c 0,-0.906821 -0.75604,-1.700288 -1.7011,-1.700288 H 21.710764 c -0.945056,0 -1.7011,0.793467 -1.7011,1.700288 v 3.098302 c 0,0.604547 -0.491429,1.095742 -1.096264,1.095742 -0.642638,0 -1.134067,-0.491195 -1.134067,-1.095742 V 3.921231 c 0,-2.153698 1.776705,-3.891771 3.931431,-3.891771 h 28.654074 c 2.15473,0 3.89363,1.775857 3.89363,3.891771 v 3.098302 c 0,0.604547 -0.49143,1.095742 -1.09626,1.095742 z"
       id="path4-9" />
    <path
       style="fill:#860626;fill-opacity:1;fill-rule:evenodd;stroke:none"
       d="M 56.450998,42.650011 H 15.586805 c -1.398682,0 -2.532748,-1.09574 -2.532748,-2.49375 V 16.84342 c 0,-1.398015 1.134066,-2.493756 2.532748,-2.493756 h 40.864193 c 1.39868,0 2.49495,1.095741 2.49495,2.493756 v 23.312841 c 0,1.36023 -1.09627,2.49375 -2.49495,2.49375 z M 15.586805,16.541147 c -0.189011,0 -0.302418,0.151136 -0.302418,0.302273 v 23.312841 c 0,0.18892 0.113407,0.30227 0.302418,0.30227 h 40.864193 c 0.18901,0 0.30242,-0.11335 0.30242,-0.30227 V 16.84342 c 0,-0.151137 -0.11341,-0.302273 -0.30242,-0.302273 z"
       id="path5-6" />
    <path
       style="fill:#860626;fill-opacity:1;fill-rule:evenodd;stroke:none"
       d="m 54.220668,11.251362 c 0,0.566762 -0.45363,1.020172 -1.05846,1.020172 -0.56704,0 -1.05846,-0.45341 -1.05846,-1.020172 0,-0.604547 0.49142,-1.057958 1.05846,-1.057958 0.60483,0 1.05846,0.453411 1.05846,1.057958 z"
       id="path6-7" />
    <path
       style="fill:#860626;fill-opacity:1;fill-rule:evenodd;stroke:none"
       d="m 19.93406,11.251362 c 0,0.566762 -0.453627,1.020172 -1.058462,1.020172 -0.567034,0 -1.02066,-0.45341 -1.02066,-1.020172 0,-0.604547 0.453626,-1.057958 1.02066,-1.057958 0.604835,0 1.058462,0.453411 1.058462,1.057958 z"
       id="path7-9" />
    <path
       style="fill:#860626;fill-opacity:1;fill-rule:evenodd;stroke:none"
       d="M 47.227258,12.347103 H 24.810545 c -0.604835,0 -1.096264,-0.491195 -1.096264,-1.095741 0,-0.642332 0.491429,-1.095742 1.096264,-1.095742 h 22.416713 c 0.60484,0 1.09626,0.45341 1.09626,1.095742 0,0.604546 -0.49142,1.095741 -1.09626,1.095741 z"
       id="path8-9" />
    <path
       style="fill:#860626;fill-opacity:1;fill-rule:evenodd;stroke:none"
       d="M 43.67385,58.519371 H 28.363953 c -0.756044,0 -1.474286,-0.45341 -1.776704,-1.17131 l -3.477803,-7.85911 c -0.264616,-0.56676 -0.189011,-1.28466 0.151209,-1.81364 0.378022,-0.56676 0.982857,-0.90682 1.625495,-0.90682 h 12.928357 c 0.604835,0 1.096264,0.49119 1.096264,1.09574 0,0.64233 -0.491429,1.09574 -1.096264,1.09574 H 25.301974 l 3.250991,7.36792 h 14.969676 l 3.250987,-7.36792 h -4.044833 c -0.604836,0 -1.096264,-0.45341 -1.096264,-1.09574 0,-0.60455 0.491428,-1.09574 1.096264,-1.09574 h 4.422863 c 0.68044,0 1.28527,0.34006 1.62549,0.90682 0.37802,0.52898 0.45363,1.20909 0.15121,1.81364 l -3.44,7.85911 c -0.30242,0.7179 -1.020661,1.17131 -1.776706,1.17131 z"
       id="path9-7" />
    <path
       style="fill:#860626;fill-opacity:1;fill-rule:evenodd;stroke:none"
       d="m 62.083528,58.519371 h -11.07605 c -0.49143,0 -0.90725,-0.22671 -1.17187,-0.60455 -0.26461,-0.41563 -0.30241,-0.90682 -0.1134,-1.32245 l 2.23033,-5.13864 c 0.30242,-0.79347 1.05846,-1.28466 1.89011,-1.28466 h 8.24088 c 0.60484,0 1.09626,0.49119 1.09626,1.13352 0,0.60455 -0.49142,1.09574 -1.09626,1.09574 h -8.16528 l -1.7011,3.92956 h 9.86638 c 0.60484,0 1.09626,0.49119 1.09626,1.09574 0,0.60454 -0.49142,1.09574 -1.09626,1.09574 z"
       id="path10-6" />
    <path
       style="fill:#860626;fill-opacity:1;fill-rule:evenodd;stroke:none"
       d="M 21.068126,58.519371 H 9.954275 c -0.604835,0 -1.096264,-0.4912 -1.096264,-1.09574 0,-0.60455 0.491429,-1.09574 1.096264,-1.09574 h 9.866378 l -1.7011,-3.92956 H 9.954275 c -0.604835,0 -1.096264,-0.49119 -1.096264,-1.09574 0,-0.64233 0.491429,-1.13352 1.096264,-1.13352 h 8.240883 c 0.831649,0 1.587693,0.52897 1.927913,1.28466 l 2.192528,5.13864 c 0.189011,0.41563 0.151209,0.90682 -0.113406,1.32245 -0.264616,0.37784 -0.68044,0.60455 -1.134067,0.60455 z"
       id="path11-9" />
    <path
       style="fill:#860626;fill-opacity:1;fill-rule:evenodd;stroke:none"
       d="m 69.946388,31.428111 h -2.23033 c -1.17187,0 -2.07912,-0.9446 -2.07912,-2.07813 V 15.445405 c 0,-0.604546 0.49143,-1.095741 1.09626,-1.095741 h 3.21319 c 1.02066,0 1.85231,0.7179 2.04132,1.662504 v 13.753443 c -0.18901,0.9446 -1.02066,1.6625 -2.04132,1.6625 z m -2.11692,-2.19148 h 2.00352 V 16.541147 h -2.00352 z"
       id="path12-3" />
    <path
       style="fill:#860626;fill-opacity:1;fill-rule:evenodd;stroke:none"
       d="m 66.733198,16.541147 h -4.64967 c -0.60484,0 -1.09626,-0.491195 -1.09626,-1.095742 0,-0.604546 0.49142,-1.095741 1.09626,-1.095741 h 4.64967 c 0.60484,0 1.09627,0.491195 1.09627,1.095741 0,0.604547 -0.49143,1.095742 -1.09627,1.095742 z"
       id="path13-5" />
    <path
       style="fill:#860626;fill-opacity:1;fill-rule:evenodd;stroke:none"
       d="M 4.359547,31.428111 H 2.091414 c -1.134066,0 -2.079121,-0.9446 -2.079121,-2.07813 V 16.427794 c 0,-1.133525 0.945055,-2.07813 2.079121,-2.07813 h 3.213189 c 0.642637,0 1.096264,0.491195 1.096264,1.095741 v 13.904576 c 0,1.13353 -0.907253,2.07813 -2.04132,2.07813 z m -2.154726,-2.19148 h 2.04132 V 16.541147 h -2.04132 z"
       id="path14-7" />
    <path
       style="fill:#860626;fill-opacity:1;fill-rule:evenodd;stroke:none"
       d="m 9.954275,16.541147 h -4.61187 c -0.604836,0 -1.096264,-0.491195 -1.096264,-1.095742 0,-0.604546 0.491428,-1.095741 1.096264,-1.095741 h 4.61187 c 0.604836,0 1.096264,0.491195 1.096264,1.095741 0,0.604547 -0.491428,1.095742 -1.096264,1.095742 z"
       id="path15-6" />
    <path
       style="fill:#860626;fill-opacity:1;fill-rule:evenodd;stroke:none"
       d="m 40.914289,53.758561 h -9.752972 c -0.642637,0 -1.134066,-0.49119 -1.134066,-1.09574 0,-0.60455 0.491429,-1.09574 1.134066,-1.09574 h 9.752972 c 0.604835,0 1.096264,0.49119 1.096264,1.09574 0,0.60455 -0.491429,1.09574 -1.096264,1.09574 z"
       id="path16-6" />
  </g>
</svg>
